<?xml version="1.0" encoding="UTF-8"?>
<svg id="Layer_2" data-name="Layer 2" xmlns="http://www.w3.org/2000/svg" viewBox="0 0 1089.16 413.13">
  <defs>
    <style>
      .cls-1 {
        fill: #040404;
      }

      .cls-2 {
        fill: #010101;
      }

      .cls-3 {
        fill: #060606;
      }

      .cls-4 {
        fill: #050505;
      }

      .cls-5 {
        fill: #020202;
      }

      .cls-6 {
        fill: #a4cceb;
      }

      .cls-7 {
        fill: #080808;
      }

      .cls-8 {
        fill: #070707;
      }

      .cls-9 {
        fill: #0d0d0d;
      }

      .cls-10 {
        fill: #a2cbec;
      }
    </style>
  </defs>
  <g id="Layer_1-2" data-name="Layer 1">
    <g id="_4burYI" data-name="4burYI">
      <g>
        <path class="cls-10" d="M1008.88,237.17c-42.06,1.39-80.33-34.99-79.95-80.12,.38-44.22,35.71-79.81,79.75-80.04,44.24-.23,80.99,36.18,80.46,81.88-.49,42.28-36.82,79.84-80.27,78.28Z"/>
        <path d="M634.6,319.79c-8.59,0-17.22-.1-25.84,.06-2.6,.05-3.36-1.24-4.12-3.3-2.95-7.94-6.15-15.78-9.03-23.75-.94-2.6-2.21-3.52-5.04-3.49-15.16,.16-30.32,.19-45.48,0-3.14-.04-4.26,1.12-5.18,3.86-2.65,7.86-5.68,15.59-8.41,23.43-.74,2.13-1.57,3.31-4.13,3.26-8.31-.16-16.63-.06-25.64-.06,3.89-10.11,7.58-19.82,11.35-29.49,12.88-33.11,25.86-66.19,38.58-99.36,1.38-3.6,3.07-4.77,6.81-4.6,6.82,.31,13.66,.16,20.49,.05,2.1-.03,3.28,.52,4.11,2.6,17.2,43.21,34.47,86.38,51.7,129.57,.1,.26-.08,.63-.16,1.22Zm-84.98-52.91c9.86,0,19,0,28.14,0,7.82,0,7.84,0,5.19-7.15-5.04-13.6-10.12-27.19-15.56-41.82-6.09,16.77-11.78,32.46-17.77,48.97Z"/>
        <path d="M713.66,305.84c-6.86,8.61-14.53,13.8-24.29,15.44-17.95,3.02-35.52-7.66-42.1-26.18-5.57-15.69-5.55-31.69-.37-47.52,9.28-28.37,44.68-35.29,63.23-15.17,.31,.34,.74,.57,1.16,.89,1.35-1.13,.57-2.54,.58-3.73,.07-13.15,.11-26.31,0-39.46-.02-2.72,.58-3.84,3.56-3.73,6.15,.22,12.32,.16,18.48,.02,2.51-.06,3.47,.58,3.47,3.31-.08,42.29-.08,84.59-.03,126.88,0,2.27-.5,3.32-3.02,3.26-5.82-.15-11.66-.18-17.48,0-2.85,.09-3.33-1.22-3.21-3.62,.15-2.95,.03-5.92,.03-10.38Zm-44.14-33.15c.27,4.16,.5,8.32,1.58,12.37,2.64,9.91,9.64,15.99,18.9,16.4,8.88,.39,16.97-5.46,19.86-15.16,3.16-10.61,3.05-21.39-.53-31.92-2.94-8.65-9.83-13.63-18.23-13.75-8.52-.13-15.87,5.01-19.12,13.43-2.32,6.01-2.69,12.29-2.46,18.64Z"/>
        <path d="M753.34,292.09c8.03-1.28,15.9-2.48,23.75-3.81,1.96-.33,2.11,1.01,2.63,2.19,5.42,12.42,23,17.29,34.12,9.47,2.67-1.88,4.04-4.47,3.82-7.66-.24-3.45-2.61-5.31-5.71-6.14-7.71-2.05-15.49-3.86-23.18-5.97-4.64-1.27-9.28-2.68-13.75-4.45-12.41-4.92-18.27-13.48-18.05-25.86,.21-11.54,7.29-21.75,18.91-25.6,14.96-4.95,30.23-4.81,45.15,.23,9.23,3.12,14.88,10.24,18.23,19.29,.75,2.02,.76,2.91-1.72,3.31-6.4,1.02-12.77,2.28-19.13,3.56-1.57,.32-2.53,.11-3.14-1.44-3.34-8.46-10.51-9.9-18.38-9.82-3.49,.03-7,.32-10.34,1.52-2.94,1.05-5.61,2.45-5.76,6.07-.15,3.66,2.41,5.19,5.35,6.33,9.19,3.56,18.96,5,28.39,7.69,4.64,1.33,9.21,2.81,13.56,4.93,15.71,7.69,20.24,25.64,10.06,39.94-5.59,7.86-13.33,12.37-22.64,14.31-12.27,2.55-24.56,2.55-36.54-1.25-13.14-4.16-21.72-13.04-25.63-26.85Z"/>
        <path class="cls-10" d="M1021.89,68.15c-18.46,1.2-34.4-15.41-34.47-32.77-.08-22.25,16.78-34.93,33.58-35.37,20.09-.52,34.58,16.38,34.92,33.04,.4,19.72-14.98,35.91-34.02,35.1Z"/>
        <path class="cls-2" d="M.03,255.42c.02-23.13,4.81-41.91,19.62-57,21.68-22.1,63.65-20.54,81.61,2.93,4.65,6.07,7.38,12.97,8.82,20.41,.77,3.99-.54,7.19-4.71,8.01-4.17,.82-5.93-2.04-6.69-5.69-3.4-16.4-13.23-26.63-29.7-29.72-18.65-3.5-34.87,.94-46.35,16.97-10.44,14.57-11.95,31.43-11.03,48.66,.59,11.07,2.88,21.75,8.59,31.46,13.39,22.76,47.49,28.72,66.32,11.54,7.18-6.55,10.49-15.16,12.66-24.38,1.23-5.23,5.87-7.05,9.78-4.05,2.68,2.06,2.55,4.87,1.92,7.73-5.32,24.06-23.83,39.52-48.51,40.56-30.96,1.31-54.16-17.3-60.22-48.25-1.41-7.21-2.27-14.46-2.08-19.18Z"/>
        <path class="cls-6" d="M950.06,68.26c.01,27.75-21.9,49.78-49.47,49.86-28.18,.09-49.93-20.75-50.12-49.84-.18-28.33,21.86-50.03,50.32-49.76,29.42,.28,49.28,23.88,49.28,49.74Zm-87.03,0c-.56,20.07,16.42,38.26,38.2,37.59,20.83-.64,36.37-15.84,36.44-37.76,.07-20.72-16.8-37.28-37.72-37.08-21.04,.2-37.24,17.64-36.92,37.25Z"/>
        <path class="cls-2" d="M401.98,274.16c-10.5,0-21,.14-31.49-.08-3.27-.07-3.93,.95-3.57,3.98,1.06,8.93,3.72,17.21,9.21,24.43,9.85,12.97,29.69,13.62,40.7,1.36,3.14-3.5,5.46-7.51,7.45-11.75,1.74-3.71,4.64-5.32,8.55-3.38,3.76,1.86,3.84,4.96,2.29,8.48-6.94,15.79-18.92,24.56-36.17,25.64-16.98,1.06-29.44-6.6-36.84-21.52-9.93-20.01-9.82-40.52,.08-60.54,6.71-13.58,17.92-21.29,33.42-21.52,15.41-.23,26.71,6.99,34.39,20.11,5.7,9.74,7.69,20.43,7.97,31.58,.07,2.79-1.02,3.28-3.48,3.26-10.83-.1-21.66-.05-32.5-.04Zm-5.76-10.13c8.82,0,17.63-.06,26.45,.04,2.26,.02,3.22-.2,2.77-2.98-1.3-8.04-4.02-15.4-9.11-21.79-10.23-12.81-28.43-13.33-39.13-1.11-5.76,6.58-8.52,14.49-9.97,22.98-.49,2.83,.95,2.9,3.04,2.88,8.65-.07,17.3-.03,25.95-.03Z"/>
        <path class="cls-2" d="M213.63,274.16c-10.66,0-21.31,.06-31.97-.05-2.64-.03-3.96,.36-3.54,3.52,1.13,8.52,3.35,16.59,8.48,23.65,10.41,14.34,29.93,15.34,41.85,2.17,3.05-3.37,5.23-7.27,7.14-11.35,1.79-3.83,4.75-5.22,8.55-3.4,3.77,1.81,3.8,5.08,2.28,8.53-6.85,15.54-18.65,24.38-35.65,25.61-17.14,1.24-29.93-6.35-37.34-21.46-10.24-20.87-10.28-42.35,1.3-62.65,15.12-26.5,50.59-26.19,66.24,.06,5.86,9.83,8.04,20.61,8.29,31.94,.06,2.93-.92,3.54-3.64,3.5-10.65-.15-21.31-.06-31.97-.06Zm-6.04-10.14v.03c8.81,0,17.63-.08,26.44,.05,2.48,.04,3.2-.64,2.76-3.1-1.43-7.96-4.04-15.37-9.22-21.74-10.65-13.1-29.01-13.3-39.76-.26-5.2,6.3-7.88,13.71-9.13,21.76-.44,2.86,.39,3.35,2.97,3.31,8.65-.13,17.3-.05,25.94-.05Z"/>
        <path class="cls-2" d="M300.62,303.93c9.32-26.4,18.61-52.69,27.87-79,1.04-2.95,2.16-5.68,5.93-5.69,4.8-.02,7.55,3.78,5.87,8.33-11,29.74-22.07,59.45-33.06,89.19-1.32,3.58-3.28,6.27-7.45,6.15-3.95-.12-5.57-2.86-6.81-6.24-10.69-29.16-21.47-58.29-32.23-87.43-2.16-5.86-1.49-8.04,2.97-9.55,3.99-1.35,6.48,.22,8.3,5.39,9.02,25.51,18.03,51.04,27.02,76.56,.27,.76,.24,1.66,1.58,2.28Z"/>
        <path class="cls-5" d="M471.86,232.96c6.1-8.08,12.99-12.51,21.9-13.55,5.15-.6,7.03,.53,7.46,4.76,.45,4.41-1.35,6.38-5.93,6.43-5.24,.05-10.2,1.69-14.48,4.76-5.61,4.02-9.26,8.83-9.11,16.55,.42,20.63,.14,41.27,.13,61.9,0,1.49,.12,3.04-.22,4.47-.71,2.95-2.76,4.47-5.82,4.41-2.89-.06-4.61-1.68-5.23-4.43-.22-.96-.21-1.98-.21-2.97,0-29.12,.03-58.24-.03-87.37,0-4.06,1.06-6.93,5.65-7.09,4.14-.15,5.86,2.03,5.89,7.3,0,1.16,0,2.32,0,4.84Z"/>
        <path d="M132.91,253.08c0-20.99,.06-41.97-.05-62.96-.02-4.07,.9-7.08,5.54-7.05,4.46,.02,5.84,2.79,5.83,6.95-.06,41.97-.06,83.95,0,125.92,0,4.22-1.61,6.94-5.94,6.9-4.2-.04-5.43-2.89-5.41-6.8,.08-20.99,.04-41.97,.04-62.96h-.02Z"/>
        <path class="cls-1" d="M24.16,398.74c4.59-13.39,8.76-25.59,12.95-37.78,.75-2.18,1.31-4.93,4.37-4.52,3.21,.43,2.72,3.24,2.72,5.55,0,12.83,.02,25.65-.02,38.48,0,1.67,.76,4.22-1.99,4.24-2.74,.02-2.04-2.5-2.05-4.2-.04-11.42-.02-22.84-.81-34.4-3.35,9.81-6.7,19.62-10.05,29.43-.37,1.1-.65,2.24-1.13,3.29-1.03,2.28-.69,6.01-4.22,5.93-3.15-.07-3.09-3.52-3.87-5.74-3.34-9.56-6.51-19.18-9.76-28.77-.5-1.48-1.09-2.94-2.3-4.22,0,11.44,.02,22.89-.03,34.33,0,1.67,.8,4.24-1.89,4.32-2.75,.09-2.04-2.48-2.04-4.16-.05-12.99-.02-25.98-.06-38.97,0-2.22-.23-4.75,2.59-5.16,2.92-.43,3.77,2,4.55,4.33,4.14,12.24,8.36,24.45,13,38.01Z"/>
        <path class="cls-1" d="M329.25,387.14c0-4.83,.01-9.65,0-14.48,0-1.25,.28-2.44,1.46-2.93,1.27-.53,2.33,.05,2.52,1.47,.3,2.21,1.15,1.3,2.22,.58,5.8-3.92,11.39-4.43,16.41,1.31,1.51,1.73,1.85-.14,2.54-.74,3.37-2.92,7.26-4.02,11.59-3.15,4.55,.92,7.67,3.71,7.86,8.41,.31,7.98,.09,15.97,.09,23.96,0,1.61-.33,3.31-2.26,3.14-1.93-.17-1.83-2.05-1.84-3.54-.02-6.82,.01-13.65,0-20.47-.01-5.75-1.79-8-6.39-8.12-5.01-.13-9.5,3.48-9.64,8.08-.17,5.82-.04,11.65-.04,17.47,0,1.16,.02,2.33-.03,3.49-.07,1.57-.36,3.3-2.35,3.09-1.64-.17-1.62-1.79-1.62-3.18,.02-6.66,.03-13.31,0-19.97-.03-6.64-1.74-8.92-6.62-8.96-5.8-.04-9.65,3.73-9.68,9.53-.03,6.32,.01,12.65-.02,18.97,0,1.48,.05,3.44-1.84,3.57-2.32,.16-2.31-1.88-2.31-3.58,0-4.66,0-9.32,0-13.98h-.04Z"/>
        <path class="cls-1" d="M585.45,373.86c2.77-3,6.09-4.9,10.33-4.92,6.59-.03,10.58,3.73,10.65,10.36,.07,6.82,.06,13.65-.05,20.47-.03,1.81,.89,4.74-1.92,4.84-2.91,.11-2.13-2.82-2.15-4.65-.08-6.32-.03-12.65-.03-18.97,0-6.28-1.6-8.34-6.48-8.36-5.27-.02-9.48,3.71-9.57,8.72-.11,6.32,.02,12.65-.05,18.97-.02,1.68,.68,4.25-1.94,4.35-2.72,.1-2.06-2.48-2.08-4.16-.07-6.66-.02-13.31-.05-19.97-.02-5.69-1.89-7.97-6.46-7.96-5.3,0-9.64,3.76-9.69,8.54-.07,6.49,0,12.98-.04,19.47-.01,1.7,.6,4.21-2.16,4.1-2.28-.1-1.79-2.39-1.8-3.97-.02-9.32,0-18.64,0-27.96,0-1.35-.08-2.82,1.67-3.13,1.4-.24,2.08,.63,2.35,1.96,.6,2.98,1.63,.27,2.08,0,6.95-4.22,11.41-3.7,17.36,2.27Z"/>
        <path class="cls-4" d="M79.18,387.53c0,3,0,6,0,9,0,1.51-.1,3.05,1.63,3.83,1.15,.52,2.92,.74,2.15,2.62-.77,1.87-2.58,1.1-3.97,1.01-.93-.06-2.29-.37-2.66-1.02-1.36-2.4-2.5-.93-3.91-.16-3.62,1.97-7.52,2.63-11.6,1.91-5.36-.94-8.17-3.9-8.55-8.89-.39-5.12,1.72-8.54,6.91-10.13,3.8-1.16,7.78-1.71,11.68-2.52,2.51-.52,4.47-1.66,4.37-4.55-.1-3.03-1.79-4.86-4.74-5.62-6-1.55-9.52,.03-12.27,5.77-.58,1.21-1.31,2.15-2.54,1.86-1.58-.38-1.69-1.72-1.4-3.22,1.14-5.99,6.7-9.14,14.97-8.41,6.77,.6,9.83,3.67,9.91,9.99,.04,2.83,0,5.67,.01,8.5Zm-4.24-1.62c-4.96,1.07-9.72,1.85-14.32,3.18-3.27,.95-4.65,3.65-4.11,7.06,.52,3.32,2.77,4.68,5.94,4.98,9.64,.92,13.27-3.36,12.5-15.23Z"/>
        <path class="cls-3" d="M398.03,388.09c-2.66,0-5.36,.28-7.98-.06-4.16-.54-5.02,1.15-3.77,4.71,1.44,4.09,3.52,7.62,8.29,8.34,4.79,.72,7.92-1.78,10.17-5.66,.84-1.44,1.41-3.4,3.59-2.2,2.13,1.18,.87,2.87,.15,4.29-4.35,8.57-16.45,10.05-22.74,2.81-6-6.9-5.79-20.59,.41-27.26,4.06-4.37,10.83-5.45,15.96-2.55,4.9,2.77,9.23,11.7,8.05,16.21-.45,1.74-1.61,1.36-2.66,1.38-3.16,.05-6.32,.02-9.48,.02v-.03Zm-2.18-3.76c2.5,0,4.99,0,7.49,0,1.37,0,2.6,.11,2.3-2.09-.56-3.96-4.33-8.68-7.92-9.38-4.77-.93-8.02,1.15-10.22,5.25-2.86,5.31-2.26,6.27,3.87,6.23,1.5,0,2.99,0,4.49,0Z"/>
        <path class="cls-3" d="M133.95,388.11c-3,0-6.01,.16-8.99-.05-2.87-.2-3.93,.52-3.01,3.56,1.31,4.31,2.99,8.28,7.9,9.34,5.18,1.12,8.62-1.5,10.97-5.85,.76-1.4,1.52-2.88,3.36-1.91,2.16,1.14,1.06,2.81,.26,4.25-2.64,4.76-6.78,7.27-12.15,7.51-5.27,.23-9.46-2.08-12.05-6.62-3.79-6.63-3.98-13.67-1.05-20.66,2.31-5.54,6.41-8.81,12.7-8.72,6.05,.09,9.87,3.4,12.29,8.63,.62,1.35,1.06,2.8,1.38,4.25,1.37,6.13,1.2,6.31-5.13,6.31-2.17,0-4.33,0-6.5,0,0,0,0-.02,0-.03Zm-2.41-3.74v-.02c2.32,0,4.65-.14,6.96,.03,2.79,.21,3.61-.73,2.62-3.41-1.57-4.23-3.65-7.93-8.75-8.29-5.12-.37-7.8,2.79-9.66,7.04-1.33,3.03-1.53,5.14,2.88,4.68,1.97-.2,3.97-.03,5.96-.03Z"/>
        <path class="cls-3" d="M630.15,388.1c-3.16,0-6.32,.08-9.47-.03-1.91-.07-2.68,.41-2.38,2.52,.68,4.93,4.15,9.65,8.13,10.39,4.86,.9,8.37-1.12,10.72-5.38,.86-1.55,1.74-3.79,4.02-2.27,2.24,1.49,.4,3.36-.43,4.77-5.53,9.34-18.99,9.2-24.14-.35-3.7-6.86-3.67-14.1-.28-21.09,2.42-4.98,6.5-7.87,12.32-7.72,5.8,.15,9.55,3.27,12.1,8.2,.15,.29,.24,.62,.37,.92,3.62,8.7,2.74,10.07-6.46,10.06-1.5,0-2.99,0-4.49,0v-.02Zm-2.32-3.77v.03c2.66,0,5.32,.01,7.98,0,1.13,0,2.6,.2,2.32-1.62-.55-3.57-2.07-6.72-5.15-8.73-2.84-1.85-6.08-2.06-8.97-.26-3.44,2.14-5.98,5.79-5.26,9.5,.49,2.5,4.63,.61,7.09,1.08,.64,.12,1.33,.02,1.99,.02Z"/>
        <path class="cls-8" d="M98.66,386.01c-4.66,2.88-7.23,6.54-6.21,12.04,.09,.48,.1,1.02,0,1.49-.44,1.84,1.27,5.12-2.12,5.05-2.82-.06-1.83-3.07-1.84-4.86-.08-12.31-.04-24.62-.04-36.93,0-1,0-2-.02-2.99-.02-1.57,.07-3.31,2.1-3.27,2.09,.04,1.93,1.91,1.93,3.39,.02,8.29,0,16.58,0,25.98,4.64-4.53,8.69-8.47,12.73-12.42,.83-.81,1.62-1.67,2.5-2.44,1.28-1.12,2.55-3.53,4.43-1.62,1.94,1.96-.88,2.97-1.74,4.34-.17,.27-.46,.48-.7,.71q-8.48,8.56-1.7,18.33c1.7,2.46,3.4,4.92,5,7.45,.86,1.35,2.22,2.99,0,4.22-1.75,.97-2.67-.61-3.48-1.83-1.84-2.76-3.61-5.58-5.42-8.36-1.8-2.76-3.62-5.51-5.44-8.27Z"/>
        <path class="cls-4" d="M774.91,388.12c-.13-7.45,1.7-13.05,7.08-16.78,7.17-4.97,17.43-2.26,21.41,5.63,3.35,6.64,3.31,13.51-.04,20.17-3.05,6.07-9.07,8.87-15.87,7.74-6.29-1.05-11.08-6.21-12.31-13.38-.25-1.47-.24-2.98-.27-3.38Zm4.07-1.08c-.01,2.18,.22,4.3,.97,6.37,1.89,5.22,5.27,7.82,10.31,7.86,5.23,.04,8.33-2.88,10.07-7.45,1.93-5.05,1.8-10.14-.57-15.01-2.1-4.32-5.66-6.33-10.55-5.97-6.25,.47-10.22,5.93-10.24,14.2Z"/>
        <path class="cls-3" d="M718.16,387.32c-.14,12.99-9.77,20.75-20.84,16.79-6.45-2.31-10.32-9.17-10.07-17.86,.24-8.49,4.36-14.67,11.07-16.61,11.02-3.19,19.98,4.8,19.84,17.68Zm-4.09-.19c.05-2.7-.39-5.32-1.57-7.75-1.94-4.03-4.84-6.6-9.67-6.58-4.96,.02-8.21,2.39-10.01,6.82-2.18,5.36-2.05,10.8,.51,15.95,3.52,7.09,13.05,7.76,17.78,1.42,2.18-2.92,2.91-6.29,2.95-9.85Z"/>
        <path class="cls-4" d="M322.25,385.68c-.05,13.85-8.8,21.47-19.74,18.5-4.36-1.18-7.33-4.01-9.1-7.92-2.64-5.84-2.84-11.96-.47-17.95,2.75-6.96,8.26-10.11,15.84-9.39,6.51,.62,11.58,5.45,13.03,12.55,.36,1.78,.38,3.63,.44,4.21Zm-4.13,.84c.23-2.46-.31-4.94-1.35-7.2-1.93-4.24-5.12-7.05-10.03-6.94-4.84,.11-8.19,2.72-9.84,7.18-2.06,5.55-2.04,11.16,1,16.37,3.94,6.74,12.99,6.98,17.48,.59,2.08-2.96,2.93-6.3,2.74-10Z"/>
        <path class="cls-4" d="M554.12,387.35c0,4.08-.93,7.91-3.24,11.33-5.82,8.63-18.92,8.66-24.49-.12-4.01-6.31-4.26-13.2-1.55-20.09,2.54-6.46,7.6-9.64,14.37-9.43,6.45,.2,11.64,4.09,13.76,10.44,.85,2.54,1.26,5.17,1.16,7.86Zm-4.12-.32c.09-2.54-.38-5.01-1.41-7.28-1.91-4.25-4.95-6.98-9.96-6.98-5,0-8.14,2.59-9.93,6.96-2.19,5.36-1.97,10.81,.6,15.95,1.83,3.66,5.05,5.62,9.31,5.62,6.76,0,11.36-5.74,11.38-14.25Z"/>
        <path class="cls-4" d="M447.68,368.86c5.79,.3,10.5,1.01,12.72,6.43,.67,1.64,1.18,3.45-.69,4.39-2.25,1.13-2.65-.96-3.36-2.45-2.26-4.78-10.13-6.32-13.99-2.8-2.45,2.24-2.03,5.49,1.1,7.45,2.86,1.78,6.18,2.33,9.36,3.28,6.78,2.02,9.78,5.82,9.06,11.21-.68,5.04-5.23,8.36-11.8,8.6-6.89,.25-11.67-2.07-13.32-6.61-.66-1.82-1.77-4.26,.74-5.19,2.78-1.04,2.38,1.79,2.94,3.36,1.16,3.3,3.84,4.36,7.03,4.58,3.59,.25,7.25,.13,9.39-3.24,2.13-3.37,.81-6.19-2.7-7.65-3.97-1.65-8.18-2.73-12.14-4.38-3.72-1.56-5.62-4.52-5.29-8.71,.31-4.05,2.76-6.28,6.39-7.38,1.73-.52,3.55-.7,4.56-.89Z"/>
        <path class="cls-4" d="M255.4,404.96c-7.22-.05-11.84-2.86-12.97-7.74-.37-1.58-.99-3.58,1.24-4.2,1.97-.55,2.2,1.16,2.71,2.68,2,5.9,11.93,7.62,16.07,2.87,2.46-2.82,1.85-6.4-1.88-8.21-2.95-1.44-6.25-2.18-9.39-3.23-6.48-2.18-9.05-5.46-8.33-10.64,.65-4.65,4.89-7.53,11.34-7.52,4.99,0,9.72,.73,12.13,5.99,.8,1.74,1.44,3.82-.71,4.79-2.19,.99-2.57-1.21-3.28-2.69-2.2-4.62-10.52-6.1-14.11-2.56-2.51,2.48-1.51,6.01,2.3,7.97,4.01,2.06,8.7,2.18,12.65,4.47,3.35,1.94,4.95,4.74,4.77,8.62-.17,3.71-2.07,6.2-5.28,7.82-2.43,1.22-5.01,1.73-7.28,1.58Z"/>
        <path class="cls-7" d="M234.62,386.78c0,4.83,.04,9.65-.03,14.48-.02,1.12-.18,2.45-1.61,2.78-1.38,.33-2.3-.38-2.5-1.74-.34-2.34-1.35-1.17-2.25-.49-2.45,1.85-5.19,2.98-8.26,3.16-6.37,.37-10.99-3.71-11.09-10-.12-7.49-.05-14.98,0-22.47,0-1.38-.57-3.4,1.62-3.56,2.4-.18,2.36,1.8,2.36,3.51,0,6.66-.02,13.31-.01,19.97,0,6.13,1.81,8.57,6.38,8.72,5.36,.19,11.06-4.4,11.13-9.14,.1-5.99-.08-11.99,.09-17.97,.05-1.85-1.34-5.15,2.12-5,3.13,.13,1.95,3.32,2.03,5.26,.16,4.15,.05,8.32,.05,12.48h-.02Z"/>
        <path class="cls-4" d="M755.81,395.89c3.31-8.51,6.19-15.9,9.07-23.29,.71-1.82,1.16-4.41,3.89-3.24,2.67,1.15,.62,3.23,.06,4.68-4.18,10.66-8.46,21.28-12.81,31.86-2.23,5.43-6.25,7.93-10.69,7.05-1.27-.25-2.33-.66-2.22-2.13,.09-1.22,1.16-1.4,2.17-1.63,7-1.56,9.23-5.7,6.62-12.34-3.04-7.72-6.12-15.42-9.2-23.12-.62-1.56-1.61-3.43,.36-4.38,2.56-1.23,2.97,1.29,3.59,2.87,2.98,7.56,5.88,15.14,9.18,23.66Z"/>
        <path class="cls-3" d="M176.69,387.04c.03,9.71,4.52,14.71,12.63,14.12,3.41-.25,6.09-1.57,7.63-4.75,.86-1.77,1.97-3.56,4.09-1.94,1.97,1.51,.01,3.02-.8,4.25-6.04,9.17-21.01,8.35-25.61-1.58-3.32-7.18-3.2-14.63,.82-21.59,4.64-8.03,18.12-9,23.63-1.79,1.08,1.42,3.28,3.34,.92,5.12-2.62,1.97-3.13-.89-4.17-2.46-3.39-5.09-12.05-5.16-16.03-.18-2.54,3.18-3.09,6.92-3.12,10.81Z"/>
        <path class="cls-3" d="M488.53,388.11c-.06-15.13,10.28-23.09,21.99-17.82,2.51,1.13,4.48,2.82,5.74,5.31,.65,1.29,1.14,2.52-.39,3.46-1.46,.9-2.64,.28-3.26-1.11-2.49-5.61-7.21-6.09-12.16-4.84-4.98,1.26-6.77,5.45-7.52,10.16-.57,3.51-.44,6.96,.68,10.35,1.35,4.1,3.85,7.07,8.38,7.46,4.47,.39,8.78-.01,11.01-4.85,.77-1.67,1.89-3.12,3.78-1.96,2.21,1.36,.36,2.96-.4,4.2-5.58,9.09-20.27,8.67-25.47-.65-1.84-3.31-2.28-6.91-2.38-9.71Z"/>
        <path class="cls-1" d="M834.51,400.86c-2.24,1.49-4.4,3-7.04,3.67-7.67,1.96-13.74-2.46-13.87-10.37-.12-7.32-.02-14.63-.01-21.95,0-1.5-.24-3.27,1.99-3.22,2.21,.04,1.94,1.89,1.95,3.33,.04,6.82-.01,13.64,.03,20.46,.04,5.82,2.16,8.4,6.8,8.4,5.25,0,10.74-4.42,10.81-8.93,.11-6.48,0-12.97,.04-19.46,.01-1.55-.57-3.73,1.93-3.83,2.52-.1,2.14,2.06,2.15,3.65,.03,9.14,.04,18.29-.02,27.43,0,1.54,.56,3.56-1.81,4.02-2.45,.48-1.73-2.27-2.97-3.2Z"/>
        <path class="cls-9" d="M277.38,387.25c0-3.15-.06-6.31,.02-9.46,.06-2.25,.29-4.43-3.05-4.26-.87,.04-1.49-.62-1.53-1.61-.03-.94,.41-1.82,1.31-1.74,4.28,.4,3.11-2.68,3.25-4.92,.08-1.32,0-2.66,.17-3.97,.15-1.09,1.01-1.81,2.07-1.79,1.07,.02,1.88,.76,1.96,1.89,.1,1.49,.2,3,.04,4.47-.32,3.02,.37,4.82,3.95,4.22,1.29-.22,2.82-.16,2.66,1.91-.13,1.62-1.39,1.81-2.54,1.63-3.95-.63-4.19,1.58-4.09,4.66,.19,5.8,.12,11.62,.02,17.43-.05,3.09,.03,5.81,4.29,5.48,1.25-.1,2.41,.43,2.36,1.92-.04,1.48-1.29,1.68-2.48,1.88-4.61,.76-7.83-1.52-8.21-6.31-.31-3.79-.06-7.62-.06-11.44-.05,0-.1,0-.15,0Z"/>
        <path class="cls-4" d="M671.93,387.47c0-3.16-.06-6.32,.02-9.48,.06-2.38,.41-4.79-3.25-4.48-.89,.08-1.51-.52-1.57-1.53-.06-.97,.38-1.87,1.27-1.76,4.59,.55,3.44-2.7,3.52-5.14,.04-1.33,.01-2.66,.1-3.99,.06-.98,.85-1.5,1.65-1.54,.99-.05,2.09,.3,2.25,1.49,.18,1.31,.22,2.66,.11,3.98-.26,3.3-.06,6.06,4.5,5.09,1.09-.23,2.15,.3,2.29,1.4,.19,1.44-1.02,2.26-2.22,2.07-4.92-.77-4.69,2.24-4.59,5.62,.16,5.65,.14,11.31,0,16.96-.08,3.07,.31,5.35,4.18,5.05,1.21-.09,2.56,.36,2.62,1.71,.09,1.76-1.5,1.88-2.83,2.06-4.88,.65-7.9-1.94-8.05-7.03-.1-3.49-.02-6.98-.02-10.48Z"/>
        <path class="cls-7" d="M417.95,386.83c0-4.82-.03-9.63,.01-14.45,.02-1.87,1.68-4.13,2.69-2.34,2.28,4.03,3.56,.55,5.24,.06,1.26-.37,2.5-.91,3.78-1.12,1.24-.21,2.34,.17,2.43,1.74,.06,1.15-.42,2.06-1.58,2.15-8.27,.64-9.01,6.16-8.62,12.76,.29,4.97,.08,9.96,.04,14.95-.01,1.72,.59,4.15-2.16,4.08-2.4-.06-1.81-2.32-1.82-3.88-.04-4.65-.01-9.3-.01-13.95Z"/>
      </g>
    </g>
  </g>
</svg>