<svg xmlns="http://www.w3.org/2000/svg" id="Layer_1" version="1.1" viewBox="0 0 2360.11 643.48"><defs><style>.st0{fill:#0d0d0d}</style></defs><path d="M1398.24,367.28c0-16.64-10.63-24.32-29.13-24.96l-41.21-1.5v47.95l40.05,3.65c17.6,1.62,30.29-4.34,30.29-25.14ZM2360.11,643.15l-147.63-26.84-12.44-105.71-84.76-10.4-13.04,96.07-112.36-20.42,72.81-539.89L2260.51,0l99.6,643.15ZM2187.31,385.69l-31.14-232.25-28.48,229.59,59.61,2.67ZM99.6.33l197.82,35.96,72.81,539.89-112.36,20.42-13.04-96.07-84.76,10.4-12.44,105.71L0,643.48,99.6.33ZM232.22,383.03l-28.48-229.59-31.14,232.25,59.61-2.67ZM1255.62,442.7V182.97s112.43-21.78,112.43-21.78c56.79-10.6,111.87,4.23,111.87,74.3,0,34.06-17.19,55.33-29.78,64.69,19.82,17.81,32.21,39.05,32.21,80.16,0,51.12-31.62,98.97-102.99,85.43l-123.74-23.08ZM1393.37,250.79c0-14.72-13.53-22.11-30.65-20.34l-34.82,3.66v45.32l35.09-1.49c22.48-1.29,30.38-11.94,30.38-27.15ZM1496.17,486.36V139.13l235.11-42.83v108.8l-148.03,13.47v43.93l128.08-6.25v103.26l-128.08-5.68v46.43l148.03,12.77v115.97l-235.11-42.66ZM1818.59,544.87l-2.07-347.52-67.33,6.12v-110.33l274.17-50.06v135.45l-92.07,8.37v378.41l-112.7-20.45ZM380.68,574.29V51.41l232.94,42.34v110.39l-128.95-11.65v55.93l118.55,5.7v108.36l-118.55,4.91v57.81l128.95-10.4v117.14l-232.94,42.34ZM877.76,483.93V141.76l108.29,19.68,49.78,142.09v-133.04l68.63,12.47v259.73l-83.05,15.11-50.06-133.48v142.58l-93.59,17.01ZM626.1,313.03c0-133.11,43.68-214.22,128.95-199.66,72.79,12.48,103.99,91.51,103.99,197.58s-31.2,187.18-101.91,199.66c-83.19,16.64-131.03-68.63-131.03-197.58ZM775.85,310.95c0-58.23-6.19-87.86-24.96-89.43-18.76-1.57-27.04,29.12-24.96,89.43,0,60.31,6.24,91.51,24.96,89.43,18.72-2.08,24.96-31.2,24.96-89.43Z" class="st0"/></svg>