<?xml version="1.0" encoding="UTF-8"?>
<svg id="Layer_2" data-name="Layer 2" xmlns="http://www.w3.org/2000/svg" viewBox="0 0 243.96 98.97">
  <g id="Layer_1-2" data-name="Layer 1">
    <g id="o1sntR">
      <g>
        <path d="M89.25,.37c2.77,2.76,5.69,5.67,8.57,8.54-29.75,29.73-59.52,59.48-89.26,89.2-2.79-2.81-5.7-5.73-8.56-8.61C29.7,59.83,59.49,30.08,89.25,.37Z"/>
        <path d="M152.66,.02V10.26h-.89c-7.78,0-15.55,0-23.33,0-1.29,0-1.09-.14-1.3,1.05-.71,4.02-1.42,8.04-2.13,12.07-.05,.3-.07,.61-.11,.97,1.11-.82,2.07-1.64,3.12-2.29,3.57-2.21,7.5-2.65,11.59-2.25,9.24,.92,14.3,7.98,15.79,14.93,1.1,5.13,1.03,10.26-1.32,15.04-3.64,7.4-9.62,11.78-17.87,12.7-5.3,.59-10.48-.1-15.33-2.51-6.62-3.28-10.18-8.58-10.49-16,0-.21,0-.43,0-.69h12.41c.1,.52,.17,1.03,.3,1.53,.92,3.76,3.16,6.34,6.95,7.27,3.98,.98,7.59,.21,10.39-3.02,4.17-4.82,4.19-12.36,.06-16.9-1.03-1.14-2.27-2-3.74-2.46-4.2-1.3-9.35-.93-12.76,3.72-.33,.46-.7,.6-1.24,.59-3.19-.02-6.39-.01-9.58-.01-.24,0-.49,0-.86,0,.13-.8,.24-1.51,.36-2.23,1.84-10.31,3.68-20.61,5.49-30.92C118.3,.17,118.53,0,119.21,0c10.87,.02,21.74,.02,32.61,.02,.27,0,.53,0,.84,0Z"/>
        <path d="M200.93,29.29c-.25,.02-.44,.04-.64,.04-3.49,0-6.98,0-10.47,0-.4,0-.69-.01-.76-.54-.38-2.93-2.17-4.57-4.95-5.21-2.55-.58-5.11-.6-7.63,.2-1.93,.61-2.87,1.98-2.78,3.89,.06,1.27,.66,2.28,1.75,2.83,1.34,.68,2.72,1.34,4.16,1.73,3.49,.94,7.03,1.66,10.53,2.56,2.4,.61,4.68,1.57,6.87,2.77,3.14,1.73,4.88,4.35,5.15,7.91,.34,4.4-.59,8.43-3.7,11.74-2,2.12-4.58,3.31-7.3,4.09-6.86,1.96-13.8,2.03-20.54-.31-5.96-2.07-9.6-6.37-10.37-12.81-.05-.44-.05-.88-.07-1.38h11.79c.06,.51,.09,1,.18,1.48,.39,2.12,1.57,3.68,3.46,4.65,3.77,1.93,7.59,2.02,11.42,.16,1.37-.66,2.28-1.73,2.6-3.24,.5-2.36-.37-4.19-2.84-5.12-2.73-1.02-5.56-1.76-8.37-2.54-2.5-.69-5.08-1.12-7.54-1.94-1.88-.63-3.69-1.56-5.41-2.57-2.46-1.44-3.83-3.7-4.12-6.53-.43-4.15,.33-7.99,3.25-11.18,1.69-1.85,3.87-2.95,6.21-3.64,7.39-2.16,14.75-2.23,21.95,.82,4.76,2.01,7.76,5.88,8.19,12.15Z"/>
        <path d="M89.22,32.18c2.8,2.8,5.71,5.71,8.62,8.62-19.12,19.1-38.27,38.24-57.39,57.34-2.86-2.86-5.76-5.78-8.61-8.64,19.08-19.06,38.24-38.2,57.39-57.32Z"/>
        <path d="M57.41,.35c2.79,2.79,5.69,5.7,8.54,8.56C46.85,28.01,27.71,47.14,8.6,66.25c-2.81-2.82-5.69-5.72-8.56-8.6C19.11,38.6,38.27,19.47,57.41,.35Z"/>
        <path d="M141.18,98.34c0-.4,0-.72,0-1.04,0-4.7,0-9.41-.04-14.11,0-.76-.16-1.52-.32-2.27-.24-1.11-.97-1.8-2.02-2.18-2.68-.98-5.19,.26-5.91,3.01-.24,.9-.33,1.86-.34,2.79-.03,4.28-.02,8.57-.02,12.85,0,.29,0,.59,0,.94h-6.79c0-.3,0-.59,0-.88,0-4.73,0-9.46,0-14.18,0-.54-.04-1.09-.14-1.62-.47-2.57-2.82-3.83-5.3-2.9-2.24,.84-3.1,2.61-3.15,4.82-.08,2.89-.03,5.79-.04,8.69,0,2,0,4,0,6.07h-6.68v-24.45h6.29v3.06c2.01-2.43,4.45-3.81,7.59-3.81,3.1,0,5.7,.94,7.2,4,.39-.46,.71-.86,1.06-1.23,2.41-2.6,5.44-3.16,8.77-2.57,4.31,.76,6.57,3.57,6.59,8.26,.03,5.35,0,10.69,.01,16.04,0,.55-.11,.79-.73,.78-1.78-.04-3.56-.01-5.35-.01-.19,0-.39-.03-.69-.05Z"/>
        <path d="M197.78,76.46c0-2.36,.02-4.81-.02-7.25-.01-.7,.19-1.19,.7-1.68,1.85-1.79,3.65-3.63,5.47-5.45,.14-.14,.28-.26,.52-.48v36.72h-6.32v-2.8c-.09-.06-.18-.13-.27-.19-.06,.15-.09,.33-.18,.46-1.55,2.12-3.67,3.08-6.25,3.14-1.89,.05-3.76,0-5.52-.85-2.72-1.3-4.4-3.52-5.36-6.26-1.6-4.54-1.54-9.07,.78-13.37,2.65-4.9,8.56-6.79,13.39-4.29,1.11,.57,2.03,1.51,3.06,2.3Zm.23,9.59c.07-.02,.14-.03,.21-.05-.34-1.48-.56-3-1.04-4.44-.57-1.73-1.81-2.86-3.66-3.23-3.14-.63-5.6,.78-6.63,3.81-.11,.33-.22,.66-.29,1-.62,3.11-.45,6.09,1.4,8.83,1.88,2.78,7.37,2.76,8.92-.73,.74-1.67,1.06-3.38,1.09-5.18Z"/>
        <path d="M72.09,98.13c-2.82-2.81-5.72-5.71-8.56-8.54,8.57-8.55,17.15-17.11,25.69-25.63,2.77,2.78,5.68,5.7,8.53,8.55-8.51,8.49-17.07,17.04-25.66,25.61Z"/>
        <path d="M158.93,87.73c-.34,3.04,1.45,5.55,4.31,6.09,2.06,.39,4,.12,5.67-1.25,.38-.31,.77-.68,.96-1.11,.28-.62,.68-.7,1.28-.69,1.63,.03,3.25,.01,4.98,.01-.71,2.23-1.76,4.13-3.47,5.61-1.97,1.7-4.3,2.49-6.89,2.55-1.91,.04-3.81,.08-5.65-.56-4.68-1.65-7.2-5.06-7.88-9.87-.57-4.02,.09-7.8,2.75-11.04,4.35-5.29,13.1-5.92,17.77-1.26,2.28,2.27,3.43,5.11,3.75,8.29,.08,.79,.07,1.58,.12,2.37,.03,.63-.18,.89-.89,.88-5.27-.03-10.54-.02-15.81-.02-.34,0-.68,0-1.01,0Zm10.78-4.33c-.14-3.3-2.44-5.35-5.73-5.16-2.94,.18-5.26,2.52-5.05,5.16h10.78Z"/>
        <path d="M237.18,91.11v-4.64c-1.96,1.11-4.11,.94-6.11,1.44-.5,.13-1.01,.27-1.48,.47-1.58,.7-2.18,1.84-1.94,3.59,.19,1.35,1.06,2.23,2.7,2.42,1.18,.14,2.39,.03,3.69,.03-.82,.8-1.65,1.6-2.47,2.41-.23,.22-.51,.42-.68,.69-1.02,1.59-2.51,1.61-4.11,1.27-2.5-.54-4.63-1.65-5.46-4.25-.85-2.67-.77-5.28,1.15-7.57,.75-.9,1.71-1.49,2.83-1.83,2.67-.81,5.4-1.21,8.17-1.48,.8-.08,1.6-.32,2.35-.61,.88-.33,1.39-1,1.39-1.99,0-1.13-.15-2.25-1.31-2.79-1.81-.83-3.7-.9-5.55-.11-1.32,.56-1.81,1.76-1.99,3.15h-6.73c.15-2.31,.9-4.28,2.76-5.69,2.32-1.75,5.04-2.36,7.88-2.48,2.43-.1,4.85,.06,7.18,.85,3.04,1.03,4.51,3.1,4.5,6.31,0,1.19,.02,2.38-.02,3.56-.01,.31-.14,.7-.35,.91-1.99,2.03-4.02,4.04-6.03,6.05-.07,.07-.15,.12-.37,.28Z"/>
        <path d="M209.86,73.78c1.37,0,2.7,0,4.03,0,.59,0,1.19,.04,1.78,0,.65-.05,.9,.13,.9,.84-.03,7.67-.02,15.34-.02,23.01,0,.22-.03,.44-.04,.71h-6.65v-24.55Z"/>
        <path d="M209.85,61.53h6.7c0,.86,0,1.69,0,2.51,0,.84,.02,1.68-.02,2.52,0,.17-.23,.48-.36,.48-2.09,.03-4.18,.02-6.32,.02v-5.53Z"/>
        <path d="M243.91,92.46v5.88h-5.61c-.06-.07-.13-.14-.19-.21,1.89-1.84,3.77-3.68,5.8-5.67Z"/>
      </g>
    </g>
  </g>
</svg>