<?xml version="1.0" encoding="UTF-8"?>
<svg id="Layer_2" data-name="Layer 2" xmlns="http://www.w3.org/2000/svg" viewBox="0 0 136.91 136.81">
  <g id="Layer_1-2" data-name="Layer 1">
    <g>
      <path d="M136.89,68.43c0,18.98,.01,37.95,0,56.93-.01,8.05-3.41,11.44-11.5,11.44-37.95,.02-75.91,.02-113.86,0-8.03,0-11.43-3.45-11.43-11.54C.08,87.3,.19,49.35,0,11.4-.04,3.21,5.02-.02,11.34,0,49.29,.15,87.25,.07,125.2,.08c.94,0,1.88,0,2.82,.05,5.05,.32,8.64,3.79,8.79,8.84,.17,5.73,.08,11.46,.09,17.19,0,14.09,0,28.18,0,42.27Zm-134.25-.1c0,19.06-.01,38.12,0,57.19,0,6.11,2.61,8.7,8.75,8.71,38.03,.01,76.07,.01,114.1,0,6.36,0,8.86-2.48,8.86-8.86,.02-38.03,.02-76.06,0-114.09,0-6.27-2.4-8.69-8.73-8.69-38.03-.03-76.07-.03-114.1,0-6.42,0-8.88,2.49-8.88,8.84-.02,18.97,0,37.94,0,56.9Z"/>
      <path d="M70.82,72.58c-.11,1.02-.27,1.92-.28,2.81-.06,12.39-.11,24.79-.13,37.18,0,3.63,.3,3.88,3.88,3.58,8.18-.68,13.63-5.34,15.13-13.46,.88-4.77,1.14-9.66,1.8-14.48,.12-.85,.85-1.61,1.3-2.42,.38,.83,1.09,1.66,1.1,2.49,.08,9.48,.02,18.97,.08,28.45,.01,1.92-.67,2.68-2.62,2.68-22.44-.03-44.89,0-67.33-.07-.83,0-1.65-.75-2.48-1.15,.79-.47,1.58-.96,2.39-1.41,.14-.08,.37-.02,.56-.02,6.95,.02,6.52,.56,6.52-6.59,0-28.54,0-57.09,0-85.63,0-4.33-.12-4.45-4.39-4.48-1.13,0-2.28,.11-3.37-.1-.61-.12-1.12-.79-1.68-1.22,.53-.43,1-.99,1.6-1.26,.47-.21,1.11-.09,1.67-.1,8.15-.16,16.31-.51,24.46-.42,13.12,.15,26.27,.24,39.36,1.02,8.93,.53,16.98,3.72,22.79,11.19,7.85,10.09,7.94,32.7-10.84,41.39-8.93,4.13-18.24,5.69-27.86,2.22-.42-.15-.9-.13-1.65-.22Zm28.84-26.8c-.22-1.94-.35-4.86-.92-7.7-2.74-13.76-12.71-18.48-24.85-18.35-2.22,.02-3.29,1.12-3.29,3.56,.04,14.09,.01,28.17-.12,42.26-.03,2.62,1.14,4.03,3.37,4.87,5.69,2.14,11.15,1.53,16.09-1.93,7.53-5.26,9.45-13.14,9.71-22.7Zm-44.02,22.6c0-14,.03-27.99-.01-41.99-.02-7,.86-6.14-6.11-6.2-4.32-.03-4.34,0-4.34,4.45,0,28.46,0,56.92,0,85.38,0,7.64-.1,6.47,6.53,6.52,3.88,.03,3.93-.05,3.94-3.93,0-14.75,0-29.49,0-44.24Z"/>
    </g>
  </g>
</svg>