<?xml version="1.0" encoding="UTF-8"?>
<svg id="Layer_2" data-name="Layer 2" xmlns="http://www.w3.org/2000/svg" viewBox="0 0 793.39 236.25">
  <g id="Layer_1-2" data-name="Layer 1">
    <g id="lPgMdd">
      <g>
        <path d="M528.28,171.42c-8.28-1.07-23.3-2.04-37.87-5.15-19.31-4.12-28.83-17.01-29.11-35.92-.07-4.34,1.74-6.18,5.83-6.18,6.16-.01,12.33-.13,18.49,.09,4.66,.17,8.61,2.2,10.17,6.79,3.05,8.95,10.21,12.28,18.48,12.87,13.6,.98,27.26,1.33,40.9,1.28,7.77-.03,15.55-1.31,23.3-2.19,1.78-.2,3.52-.98,5.22-1.63,5.05-1.93,7.78-5.56,7.71-11.05-.07-5.5-2.88-9.52-8.03-10.76-7.55-1.82-15.28-3.4-23.01-3.9-17.27-1.1-34.63-1.02-51.88-2.33-8.19-.62-16.44-2.67-24.28-5.25-11.8-3.89-19.48-12.15-20.93-24.9-.69-6.07-.94-12.34-.25-18.39,1.53-13.4,9.36-22.45,22.01-26.41,8.82-2.76,18.07-4.77,27.26-5.63,25.26-2.36,50.56-2.57,75.62,2.34,4.37,.86,8.68,2.34,12.82,4.02,14.64,5.91,20.35,17.74,21.22,32.69,.22,3.83-1.49,5.59-5.22,5.59-6.5-.01-13,.14-19.49-.11-4.07-.15-7.96-1.95-9-6.01-2.43-9.51-9.61-12.33-17.88-13.28-20.58-2.37-41.19-2.67-61.73,.62-2.43,.39-4.83,1.32-7.08,2.35-4.01,1.84-5.86,5.08-5.87,9.59-.01,4.47,1.48,8.48,5.75,9.52,8.82,2.14,17.8,4.13,26.82,4.81,16.75,1.25,33.6,1.28,50.37,2.33,6.08,.38,12.19,1.83,18.09,3.49,22.22,6.27,30.13,20.34,27.77,43.63-1.87,18.41-11.17,27.6-30.4,32.24-19.45,4.69-39.3,4.52-65.79,4.86Z"/>
        <path d="M303.66,94.42c-2.57-5.38-5.61-10.23-7.28-15.51-6.5-20.55,1.99-36.61,22.49-42.83,15.99-4.85,32.49-5.6,48.98-4.38,10.4,.77,20.95,1.99,30.97,4.71,17.27,4.68,27.89,20.62,26.53,38.29-.13,1.66-2.92,4.26-4.68,4.45-5.43,.56-11,.51-16.45,.05-5.37-.45-10.2-2.67-12.2-8.16-2.83-7.76-8.48-11.61-16.29-12.94-12.76-2.17-25.52-2.2-38.21,.43-5.23,1.08-10.02,3.23-11.44,9.07-1.47,6.05,1.01,10.95,5.83,14.35,6.11,4.31,12.46,8.31,18.89,12.13,16.04,9.52,32.17,18.87,48.28,28.26,.96,.56,2.04,.92,3.69,1.65,.98-3.12,2-5.88,2.7-8.72,1.93-7.78,5.89-11.37,13.86-11.99,3.48-.27,6.99-.06,10.49-.14,4.35-.1,6.89,1.75,6.04,6.3-1.64,8.79-3.56,17.52-5.43,26.27-.27,1.27-.91,2.46-1.53,4.09,5.41,3.17,10.73,6.24,16.01,9.38,4.72,2.81,5.02,4.18,1.72,8.65-1.58,2.14-3.27,4.23-5.15,6.1-5.24,5.2-11.73,6.74-17.66,2.46-8.27-5.96-15.35-5.87-24.83-1.8-17.92,7.69-37.43,7.38-56.59,6.24-12.25-.73-24.51-2.26-36.58-4.49-9.77-1.8-18.82-5.99-24.67-14.74-12.91-19.3-4.88-45.79,16.48-54.71,2.1-.88,4.21-1.73,6.05-2.49Zm76.99,48.64c.03-.42,.06-.83,.09-1.25-1.33-.87-2.63-1.81-4-2.61-13.93-8.19-27.88-16.35-41.82-24.53-6.88-4.03-20.44,1.1-22.97,8.71-3.14,9.42,1.22,16.91,12.06,19.64,14.03,3.53,28.36,3.77,42.69,2.51,4.68-.41,9.3-1.62,13.95-2.47Z"/>
        <path d="M173.41,172.06c-12.64-1.22-29.35-1.83-45.68-4.62-25.01-4.27-36.34-16.23-40.51-41.4-3.07-18.52-2.76-37.17,1.09-55.63,3.64-17.48,14.3-28.55,31.38-33.42,21.44-6.11,43.44-6.42,65.42-5.25,11.91,.64,23.99,1.81,35.55,4.59,24.59,5.91,33.49,20.86,36.18,46.02,.35,3.28-1.16,5.12-4.53,5.14-7.33,.03-14.67,.21-21.99-.09-4.89-.2-8.71-2.74-9.89-7.73-2.11-8.88-8.21-12.83-16.58-14.35-20.86-3.79-41.76-3.94-62.57-.04-12.64,2.37-16.29,5.84-17.59,18.77-1.12,11.2-1.26,22.68-.15,33.87,1.33,13.52,5.21,17.28,18.62,19.6,20.82,3.6,41.75,3.56,62.58-.46,7.8-1.5,13.43-5.47,15.51-13.62,1.44-5.63,5.58-8.1,11.11-8.24,6.33-.17,12.66-.15,18.99-.09,5.92,.05,7.07,1.44,6.29,7.26-3.76,28.38-17,42.04-45.4,46.06-11.19,1.58-22.51,2.2-37.83,3.63Z"/>
        <path d="M681.03,.08c13.62-.3,24.31,5.47,34.26,12.61,4.09,2.93,6.66,3.09,10.75-.05C736.26,4.79,747.68-.21,761.02,0c19.71,.32,34.18,16.8,32.19,36.48-1.34,13.25-7.36,24.05-16.07,33.6-2.18,2.39-2.6,4.38-1.75,7.54,3.53,13.09,1.01,24.91-9.25,34.19-9.45,8.54-20.63,10.15-32.68,6.56-.8-.24-1.67-.39-2.34-.84-7.15-4.72-13.78-3.49-21.43-.1-12,5.31-24.04,3.46-34.15-5.19-10.54-9.02-13.07-20.92-9.82-34.05,.87-3.51,.41-5.88-1.96-8.54-7.99-8.97-13.92-18.95-15.44-31.26C645.62,16.57,659.97-.02,681.03,.08Zm26.94,26.12c-7.44-6-16.17-10.28-26.35-10.45-10.76-.19-18.23,7.78-17.62,18.56,.2,3.57,.78,7.59,2.61,10.52,4.09,6.57,8.67,12.93,13.79,18.73,4.67,5.29,5.68,7.9,2.63,14.2-.43,.9-.96,1.77-1.26,2.72-2.09,6.57-2.04,12.93,2.95,18.24,4.9,5.22,11.01,6.64,17.82,4.33,2.83-.96,5.59-2.15,8.31-3.4,6.62-3.03,13.17-2.96,19.77,.07,2.87,1.31,5.78,2.59,8.78,3.53,6.69,2.09,12.67,.47,17.26-4.7,4.9-5.52,5.31-12.06,2.48-18.71-4.17-9.81-4.02-10.44,3.4-17.72,7.25-7.11,12.97-15.14,14.42-25.6,1.8-12.95-6.8-22.55-19.56-20.29-7.33,1.3-14.25,5.01-21.26,7.87-3.44,1.4-3.5,3.61-1.26,6.63,5.82,7.86,9.75,16.64,11.38,26.35,2.2,13.08-4.86,26.01-16.3,29.91-13.09,4.46-26.32-.47-32.47-12.32-4.1-7.88-3.92-16.29-.89-24.26,3.04-8.01,7.25-15.58,11.37-24.21Zm12.82,12.72c-6.27,7.18-9.65,14.72-10.01,23.42-.24,5.88,4.16,10.11,9.9,10.12,5.72,0,10.08-4.27,9.83-10.19-.36-8.57-3.93-15.92-9.73-23.35Z"/>
        <path d="M434.66,206.29c-2.05,2.71-4.06,5.45-6.17,8.12-1.65,2.09-3.23,4.28-5.17,6.07-5.3,4.88-9,3.88-11.24-2.94-3.19,1.3-6.43,2.47-9.54,3.92-7.97,3.71-10.7,2.84-14.81-5.27-3.7,2.39-7.19,5.12-11.1,7.04-4.7,2.31-7.49,.81-10.02-4.46-9.83,6.82-11.97,6.93-15.01,.59-1.51,1.04-2.89,2.35-4.53,3.01-1.39,.55-3.7,1.03-4.51,.31-1.09-.97-1.78-3.24-1.5-4.74,.53-2.84,1.88-5.52,2.33-8.77-2.86,3.33-5.63,6.74-8.61,9.96-1.38,1.49-3.17,2.61-4.78,3.9-.66-1.98-1.33-3.97-1.92-5.74-8.51,7.26-9.49,7.42-13.81,1.72-2.5,1.47-4.91,3.86-7.55,4.14-2.21,.24-4.69-1.98-8.03-3.58-4.42,2.04-9.94,9.01-16.35,.57-3.7,2.04-7.6,5.65-11.38,1.85-3.85-3.86-.57-8.2,1.46-11.83,2.91-5.22,6.31-10.17,9.62-15.16,.81-1.21,1.94-2.41,3.2-3.05,.95-.48,2.35-.06,3.55-.04-.19,1.05-.08,2.31-.63,3.11-4.14,6.04-8.52,11.92-12.58,18.01-1.38,2.07-2.05,4.62-3.38,7.73,6.3,.4,9.05-2.83,11.96-6.34,3.14-3.79,6.59-7.41,10.37-10.55,2.13-1.77,5.81-2.84,7.29,.49,.7,1.57-.9,5.16-2.55,6.56-2.57,2.18-5.97,3.53-9.19,4.74-2.43,.91-4.19,2.16-2.74,4.54,.6,.97,3.82,1.5,4.92,.79,3.6-2.31,6.88-5.17,10.07-8.04,2.71-2.44,4.93-5.47,7.75-7.76,2.14-1.73,4.84-3.65,7.38-3.76,2.59-.12,5.4,1.66,7.8,3.12,.34,.21-.92,3.42-1.75,5.08-1.67,3.38-3.56,6.66-5.36,9.98,.58,.45,1.17,.89,1.75,1.34,1.83-1.47,3.89-2.73,5.45-4.44,3.6-3.93,6.87-8.15,10.48-12.06,.79-.85,2.46-.88,3.73-1.28-.17,1.19-.09,2.51-.58,3.55-.82,1.77-2,3.37-3.54,5.87,6.76-3.07,9.83-10.98,18.99-10.3-3.98,6.24-7.31,11.48-10.64,16.71l1.66,1.28c4.11-1.34,6.68-4.64,9.15-8.05,1.66-2.29,3.04-4.83,4.98-6.83,1.03-1.06,2.99-1.21,5.69-2.19-2.33,7.7-9.55,11.05-9.24,18.86,6.78-2.03,10.56-6.82,14.81-11.18,2.95-3.02,6.46-5.62,10.09-7.79,1.15-.69,3.74,.27,5.19,1.21,.64,.41,.49,2.85-.05,4.03-.43,.94-2.23,2.07-2.99,1.82-.99-.33-1.56-1.94-2.89-3.82-2.76,3.19-5.75,6.22-8.18,9.66-.84,1.19-.29,3.36-.37,5.08,1.69,.02,3.73,.65,5-.08,3-1.71,5.85-3.83,8.37-6.2,6.67-6.26,13.06-12.83,19.76-19.07,1.25-1.16,3.37-1.39,5.08-2.05-.25,1.74-.33,3.53-.79,5.21-1.65,6.03-3.42,12.03-5.15,18.05,.47,.4,.94,.81,1.41,1.21,2.72-1.84,5.68-3.41,8.11-5.57,3.22-2.87,5.85-6.39,9.05-9.29,3.98-3.62,6.09-3.04,8.98,1.53,.54,.85,2.15,1.03,3.27,1.51l-.09-.06Zm-30.71-4.36c-.58-.33-1.15-.65-1.73-.98-3.15,3.32-6.51,6.46-9.38,10.01-2.08,2.56-1.7,5.45,1.35,7.23,3.26,1.91,5.64,.3,6.59-2.83,1.34-4.39,2.14-8.94,3.17-13.42Zm-82.12,2.7c-8.99,.9-17.54,10.06-16.22,16.62,7.92-2.83,10.79-10.12,16.22-16.62Zm103.54,1.98c-4.09,3.89-8.39,7.11-8.35,13.45,7.35-1.39,12.13-8.95,8.35-13.45Zm-125.33,.7c-.49-.78-.98-1.56-1.47-2.34-3.02,2.48-6.04,4.96-9.05,7.44,.43,.55,.85,1.1,1.28,1.65,3.08-2.25,6.16-4.5,9.24-6.75Z"/>
        <path d="M434.74,206.36c-1.36-2.88-.68-4.62,2.73-4.25,3.02,.32,4.33-1.24,5.75-3.61,1.93-3.24,4.21-6.38,6.9-8.99,1.02-.98,3.77-.84,5.41-.28,1.14,.39,1.73,2.38,3.04,4.36-7.64-.83-9.6,.74-11.6,8.25,3.83,.25,7.56,1.01,10.18-3.12,.69-1.09,2.63-1.38,4-2.04,.35,1.54,.7,3.08,1.2,5.29h8.99l.17,1.4c-4.04,.7-8.08,1.36-12.11,2.1-3.52,.64-10.66,10.36-9.75,13.73,.25,.93,2.91,2.24,3.63,1.85,4.09-2.24,8.17-4.65,11.8-7.57,3.57-2.88,6.36-6.74,9.97-9.57,2.11-1.65,5.8-2.94,7.3,.45,.7,1.58-.87,5.18-2.51,6.57-2.56,2.17-6.2,3.02-9.09,4.88-1.33,.86-1.99,2.78-2.95,4.22,1.64,.4,3.61,1.56,4.86,1.03,2.54-1.08,4.84-2.9,6.94-4.75,1.95-1.71,3.52-3.84,5.55-5.48-.51,4.71-7.89,11.92-13.57,12.68-2.91,.39-6.11-1.42-9.17-2.24,.12-.45,.23-.9,.35-1.35-2.75,1.13-5.41,2.71-8.27,3.23-2.25,.4-5.6,.29-6.86-1.08-1.24-1.34-1-4.68-.45-6.9,.75-3.01,2.41-5.78,3.8-8.94-3.55-1.94-6.19-1.69-8.15,2.15-2.95,5.77-5.81,11.62-9.18,17.15-1.95,3.21-4.47,6.29-7.35,8.69-4.31,3.6-8.69,2.13-10.06-2.41,2.5,.22,5.48,1.33,7.68,.46,2.39-.94,4.62-3.41,5.91-5.77,3.55-6.49,6.57-13.27,10.4-21.17-2.85,.48-4.22,.71-5.58,.95,0,0,.09,.07,.09,.07Zm35.45,5.82l1.4,1.83c3.04-2.33,6.07-4.67,9.11-7-.54-.69-1.07-1.38-1.61-2.07-2.97,2.41-5.94,4.83-8.91,7.24Z"/>
        <path d="M41.31,50.03c.12-6.99,5.9-12.63,12.86-12.56,7.16,.08,12.91,6.08,12.74,13.28-.17,6.93-5.97,12.57-12.95,12.59-7.03,.02-12.77-6.02-12.64-13.32Z"/>
        <path d="M54.41,79.01c7.22,.15,12.58,5.64,12.48,12.77-.1,7.28-5.88,12.86-13.18,12.73-7.11-.13-12.46-5.7-12.38-12.89,.09-7.52,5.53-12.76,13.08-12.61Z"/>
        <path d="M12.97,79.3c6.87,.11,12.4,5.75,12.19,12.46-.22,7.09-5.99,12.68-12.87,12.45-6.83-.23-12.48-6.27-12.26-13.11,.21-6.63,5.99-11.9,12.93-11.79Z"/>
        <path d="M12.31,38.12c7.18-.11,12.67,4.99,12.77,11.85,.1,7.07-5.54,12.96-12.44,12.98C6.11,62.97-.02,56.98,0,50.61c.02-6.84,5.49-12.39,12.31-12.49Z"/>
        <path d="M253.1,192.48c-.37,3.01-2.05,6.87-.79,8.68,2.48,3.56,6.82,2.3,10.49,.79,.61-.25,1.15-.66,1.71-1.03,5.37-3.56,7.84-8.27,6.47-12.34-1.41-4.2-5.8-6.29-12.76-4.92-13.66,2.69-23.07,11.06-27.86,23.89-3.56,9.52,2.01,16.52,12.15,16.76,7.57,.18,13.93-2.66,19.57-7.47,1.08-.92,2.18-1.84,3.27-2.76,.35,.27,.71,.54,1.06,.81-.7,1.02-1.22,2.27-2.14,3.02-6.73,5.49-14.28,9.21-23.1,9.55-11.61,.45-17.95-7.45-15.35-18.83,3.44-15.07,21.56-28.5,37-27.45,7.39,.5,11.75,3.95,12.02,9.52,.32,6.41-6.09,13.5-13.39,14.64-1.79,.28-3.95,.7-5.41-.02-2.62-1.3-6.03-2.95-6.94-5.29-1.4-3.59,1.52-6.24,4.01-7.58Z"/>
      </g>
    </g>
  </g>
</svg>