<?xml version="1.0" encoding="UTF-8"?>
<svg id="Layer_2" data-name="Layer 2" xmlns="http://www.w3.org/2000/svg" viewBox="0 0 612.83 127.1">
  <defs>
    <style>
      .cls-1 {
        fill: #c22a53;
      }

      .cls-2 {
        fill: #262626;
      }
    </style>
  </defs>
  <g id="Layer_1-2" data-name="Layer 1">
    <g>
      <path class="cls-1" d="M131.29,78.18c4.15-12.44,7.81-23.47,11.51-34.49,2.23-6.63,4.21-13.35,6.83-19.82C155.59,9.2,169.65,.24,185.4,.42c4.33,.05,3.03,2.35,2.28,4.59-6.8,20.37-13.62,40.74-20.42,61.11-6.21,18.63-12.52,37.23-18.5,55.93-1.26,3.94-3.14,5.18-7.11,4.98-6.48-.32-13.02-.51-19.48,0-5.46,.43-7.85-1.5-9.46-6.71-5.26-17.01-11.06-33.85-16.67-50.75-.41-1.25-.95-2.46-1.53-3.95-1.98,1.15-1.98,3.1-2.5,4.67-5.83,17.35-11.69,34.7-17.33,52.11-1.1,3.4-2.65,4.77-6.36,4.61-7.65-.33-15.33-.21-22.99-.1-2.88,.04-4.46-.76-5.45-3.74C26.84,83.7,13.72,44.25,.47,4.85-.94,.64,.97,.24,4.17,.42c16.29,.94,28.51,8.37,34.4,23.77,6.06,15.84,10.96,32.11,16.46,48.17,.51,1.5,.44,3.38,2.67,4.75,2.42-7.17,4.8-14.17,7.14-21.19,5.68-17.05,11.43-34.08,16.94-51.18,1.13-3.51,2.78-4.58,6.46-4.2,8.88,.92,15.13,5.45,19.61,12.9,4.26,7.08,6.33,15,8.91,22.72,4.07,12.15,8.08,24.33,12.15,36.48,.46,1.38,1.14,2.69,2.38,5.55Z"/>
      <path class="cls-2" d="M429.07,74.05c-13.99,0-27.98,.13-41.97-.07-3.95-.06-4.61,1.02-3.03,4.46,5.43,11.81,14.89,18,27.46,19.77,7.35,1.04,14.58,.26,21.74-1.77,9.54-2.71,19.07-2.22,28.58,.51,3.49,1.01,4.23,2.01,1.78,5.21-15.17,19.86-41.93,29.05-66.05,22.44-26.72-7.32-44.46-28.26-46.49-54.87-2.2-28.87,11.81-53.31,36.9-64.39,42.99-18.98,91.81,15.14,88.62,61.92q-.46,6.79-7.07,6.78c-13.49,0-26.98,0-40.47,0Zm-14.61-47.41c-15.29-.04-26.43,8.25-30.87,22.69-.86,2.79-.27,3.58,2.51,3.57,18.79-.04,37.57-.06,56.36,.03,3.03,.01,3.2-1.08,2.46-3.61-4.03-13.84-15.75-22.64-30.45-22.68Z"/>
      <path class="cls-1" d="M267.59,13.48c8.25-7.38,16.38-11.79,26.17-12.96,25.7-3.07,47.44,16.05,47.43,41.92,0,26.65-.07,53.29,.07,79.94,.02,3.42-.77,4.68-4.35,4.57-7.65-.24-15.32-.24-22.98-.02-3.53,.1-4.46-1.11-4.44-4.57,.15-22.98,.26-45.96,.04-68.94-.15-16.02-15.29-25.87-29.68-19.42-8.26,3.7-12.15,10.53-12.17,19.51-.05,22.32-.05,44.63-.07,66.95q0,6.45-6.58,6.42c-6.99-.01-13.99-.12-20.98,.06-3.27,.09-4.33-1.1-4.32-4.34,.12-30.97-.08-61.95,.24-92.92,.14-13.94,13.3-27.48,27.05-29.18,3.58-.44,4.93,.62,4.62,4.21-.21,2.46-.04,4.95-.04,8.79Z"/>
      <path class="cls-1" d="M220.12,63.71c0,19.31-.1,38.63,.08,57.94,.04,4.08-1.04,5.57-5.29,5.39-7.48-.32-14.98-.18-22.47-.02-2.97,.06-4.07-.84-4.06-3.96,.1-31.3-.1-62.6,.17-93.9,.12-13.98,11.86-26.37,25.6-28.5,4.49-.69,6.16,.08,6.08,5.12-.29,19.31-.12,38.62-.12,57.94h.02Z"/>
      <path class="cls-2" d="M567.77,64.79c.09-12.25,10.12-22.71,21.81-22.75,12.85-.04,23.35,9.75,23.25,21.66-.12,13.41-10.22,23.29-23.56,23.05-11.4-.21-21.58-10.61-21.5-21.96Z"/>
      <path class="cls-2" d="M521.08,41.96c12.52,.28,22.08,10.43,21.76,23.09-.31,12.24-10.45,21.79-22.85,21.52-12.19-.26-22.13-10.53-21.86-22.6,.27-12.56,10.42-22.29,22.95-22.01Z"/>
    </g>
  </g>
</svg>