<svg xmlns="http://www.w3.org/2000/svg" id="Layer_2" data-name="Layer 2" viewBox="0 0 1184.17 1260.83"><defs><style>.cls-1{fill:#f10009}</style></defs><g id="Layer_1-2" data-name="Layer 1"><g id="dlmMzf"><g><path d="M84.35,0V963.16h963.05V0H84.35ZM922.57,838.26H208.97c-.09-1.98-.24-3.75-.24-5.52-.01-233.81-.01-467.62,0-701.43,0-6.89,.03-6.9,7.16-6.9H922.57V838.26Z" class="cls-1"/><path d="M492.81,1189.4c0-16.49,0-31.45,0-46.42,0-16.66,.1-33.32-.08-49.98-.04-3.88,1.03-5.24,5.05-5.15,10.82,.25,21.66,.08,32.49,.09q6.59,0,6.6,6.51c0,48.15,0,96.3-.01,144.45,0,4-.11,8,.02,11.99,.1,3.05-.78,4.52-4.22,4.48-12.16-.16-24.33,.1-36.48-.22-2.04-.05-4.62-1.73-5.95-3.43-23.2-29.64-46.23-59.41-69.32-89.14-2.1-2.7-4.3-5.33-7.2-8.91-.13,2.8-.27,4.38-.27,5.96-.01,29.99-.11,59.98,.09,89.97,.03,4.65-1.33,5.93-5.91,5.82-12.47-.31-24.95-.11-37.9-.11-.13-2.19-.32-3.97-.32-5.75-.02-52.15,0-104.3-.07-156.45,0-3.62,.64-5.39,4.93-5.27,11.49,.31,22.99,.21,34.48,.02,3.54-.06,5.7,1.21,7.86,4,24.04,31.09,48.23,62.07,72.39,93.07,.9,1.15,1.9,2.23,3.81,4.47Z" class="cls-1"/><path d="M329.36,1111.47c-25.74-27.5-67.65-36.97-105.03-22.39-66.25,25.83-69.51,96.49-38.45,137.3,18.42,24.19,44.02,33.9,70.94,34.45,15.18-.07,27.27-1.98,38.95-6.36,57.72-21.61,75.69-98.04,33.59-143Zm-70.05,106.63c-26.17-.13-46.43-21.79-46.23-49.42,.17-23.9,21.44-43.67,46.85-43.56,25.6,.11,46.66,20.2,46.57,44.43-.11,27.4-20.8,48.69-47.19,48.55Z" class="cls-1"/><path d="M677.29,1196.25h-34.49v-34.52c1.7-.12,3.28-.33,4.85-.33,25.33-.02,50.65,.09,75.97-.1,4.41-.03,5.76,1.2,5.58,5.65-.72,16.9-2.17,33.63-9.97,49.04-14.1,27.89-37.2,42.19-68.04,44.47-19.16,1.41-37.57-1.44-54.59-10.8-20.51-11.28-33.62-28.53-39.46-51.06-5.77-22.25-4.89-44.42,4.32-65.6,13.24-30.47,37.74-45.91,70.04-49.9,17.86-2.21,35.24-.4,51.72,7.37,17.05,8.04,28.62,21.34,37,38.94-13.81,5.82-27.47,11.58-41.41,17.46-.88-1.77-1.53-3.08-2.18-4.39-13.39-26.89-47.62-30.03-65.77-6.03-15.86,20.98-14.94,54.59,2.05,74.42,11.66,13.62,32.84,17.84,48.85,9.75,9.5-4.8,15.34-13.75,15.53-24.36Z" class="cls-1"/><path d="M106.05,1187.31H44.23c0,2.09,0,4.01,0,5.94,0,19-.09,38,.08,57,.03,3.85-.97,5.25-5.05,5.15-11.49-.27-23-.23-34.5,0-3.81,.08-4.77-1.23-4.76-4.88,.1-52.5,.09-105,0-157.5,0-3.76,.85-5.3,4.98-5.2,11.49,.27,23,.25,34.5,.03,3.76-.07,4.84,1.14,4.81,4.84-.15,18.33-.07,36.67-.04,55,0,1.29,.19,2.58,.32,4.16h61.49c0-1.89,0-3.8,0-5.71,0-17.5,.18-35-.1-52.5-.08-4.75,1.49-5.89,5.97-5.77,10.83,.29,21.67,.31,32.49-.02,4.63-.14,5.9,1.29,5.89,5.86-.16,42-.09,84-.09,126,0,10.33-.11,20.67,.05,31,.05,3.4-.95,4.72-4.53,4.66-11.66-.18-23.33-.2-35,.02-3.84,.07-4.77-1.35-4.75-4.95,.14-18.83,.06-37.67,.06-56.5,0-1.98,0-3.96,0-6.61Z" class="cls-1"/><path d="M927.95,1255.31c-13.81,0-27.11-.03-40.42,.02-3.83,.01-3.09-2.76-3.09-4.93-.05-18.66-.04-37.32-.04-55.99q0-7.37-7.18-7.39c-16.16-.01-32.33,0-48.49,0-1.94,0-3.88,0-6.35,0,0,3.49,0,6.28,0,9.07,0,18-.13,35.99,.08,53.99,.05,4.2-1.27,5.41-5.38,5.32-10.99-.24-22-.32-32.99,.03-4.71,.15-5.89-1.41-5.88-5.92,.15-40.66,.09-81.31,.09-121.97,0-11.5,.09-23-.1-34.49-.06-3.8,.96-5.26,5.05-5.16,11.49,.27,22.99,.24,34.49,0,3.9-.08,4.71,1.35,4.68,4.93-.15,17.66-.06,35.32-.05,52.99,0,1.82,0,3.64,0,6.03,1.84,.12,3.42,.31,5,.31,17.33,.02,34.66-.09,51.99,.1,3.88,.04,5.18-1.02,5.13-5.04-.21-16.83-.09-33.66-.09-50.49,0-2.64,0-5.27,0-8.34h43.55v166.94Z" class="cls-1"/><path d="M1119.91,1251.06c-19.99-53.11-40.01-106.2-59.94-159.33-1.03-2.74-2.41-3.89-5.43-3.85-13.32,.15-26.65,.14-39.97,.02-2.93-.03-4.43,.91-5.5,3.71-20.41,53.31-40.92,106.58-61.39,159.87-.39,1.02-.48,2.16-.83,3.81,14.87,0,29.32,.09,43.77-.15,1.23-.02,2.94-1.9,3.57-3.3,2.36-5.32,4.4-10.78,6.51-16.21q3.62-9.33,13.55-9.34h49.37c3.15,8.32,6.34,16.19,9.06,24.23,1.2,3.53,2.82,4.96,6.72,4.88,12.32-.25,24.64-.07,36.97-.1,1.4,0,2.8-.24,4.56-.41-.43-1.64-.62-2.77-1.02-3.83Zm-103.14-58.96c5.76-17.11,11.39-33.81,17.01-50.5,.36,.04,.71,.08,1.06,.11,5.52,16.62,11.04,33.25,16.74,50.39h-34.81Z" class="cls-1"/><path d="M1144.79,1086.74c-22.51-.1-39.98,17.27-39.97,39.73,.02,22.3,17.3,39.75,39.41,39.79,22.03,.05,39.86-17.59,39.94-39.48,.08-22.07-17.5-39.94-39.38-40.04Zm-.65,69.46c-17.06-.08-29.8-12.93-29.55-29.81,.25-17.43,13.04-30.03,30.21-29.77,16.69,.25,29.28,13.01,29.26,29.68-.01,17.46-12.54,29.97-29.92,29.9Z" class="cls-1"/><path d="M876.39,171.06v451.14h-5.75c-37.5,0-75-.12-112.5,.14-5.35,.03-6.25-1.73-6.23-6.55,.16-49.83,.1-99.66,.1-149.49v-6.85h-38.11c-.12,2.23-.35,4.49-.35,6.75-.02,49.84-.02,99.67-.03,149.5,0,6.48-.02,6.5-6.51,6.5h-118.25v-6.8c.01-145.33,.01-290.66,.04-435.99,0-9.52-.89-8.31,8.21-8.32,36.67-.04,73.33-.02,110-.02h6.43v162.68h38.57v-6.21c0-50.17,.07-100.33-.11-150.5-.02-4.85,1.36-6.1,6.13-6.07,37.33,.18,74.67,.09,112,.09h6.36Z" class="cls-1"/><path d="M542.89,176.98v437.91c0,6.59-.01,6.61-6.43,6.61-37.5,.01-74.99-.08-112.48,.1-4.74,.03-6.15-1.22-6.14-6.08,.18-50.32,.11-100.64,.11-150.96v-5.81h-38.18v162.38c-2.3,.15-4.05,.37-5.8,.37-37.82,.02-75.65-.07-113.47,.13-4.77,.02-5.74-1.56-5.74-5.97,.12-145.3,.11-290.61,.13-435.91v-8.97h124.71v7.13c0,49.99,.08,99.98-.1,149.97-.02,4.91,1.4,6.2,6.18,5.98,8.81-.4,17.66-.09,26.49-.12,1.78-.01,3.57-.2,5.84-.34V170.78c2.27-.12,4.06-.3,5.85-.3,37.49-.02,74.98-.03,112.47-.03,6.55,0,6.56,.02,6.56,6.53Z" class="cls-1"/><path d="M876.46,667.92v124.44h-6.76c-202.82,0-405.63-.01-608.45,.1-4.86,0-6.53-.97-6.49-6.26,.25-37.67,.13-75.33,.13-112.99v-5.29H876.46Z" class="cls-1"/><path d="M1161.46,1123.17c3.75-8.2-.87-15.76-9.8-16.54-6.78-.59-13.63-.24-20.45-.41-3.23-.08-3.28,1.95-3.28,4.29,.04,10.31-.01,20.63,.03,30.95,.01,1.27,.32,2.54,.48,3.7q8.73,1.23,8.74-7.16v-8.07c3.93-1.38,6.03-.25,7.38,2.91,1.04,2.44,2.43,4.73,3.66,7.09,3.37,6.48,4.6,6.98,12.55,4.8-2.75-4.97-5.46-9.86-7.64-13.78,3.15-2.83,6.94-4.75,8.33-7.78Zm-11.25-.92c-3.94,.84-8.09,.68-12.81,.95v-9.58c4.32,.2,8.53,.14,12.64,.75,1.33,.19,3.51,2.33,3.35,3.23-.32,1.76-1.78,4.36-3.18,4.65Z" class="cls-1"/></g></g></g></svg>