<?xml version="1.0" encoding="UTF-8"?>
<svg id="Layer_2" data-name="Layer 2" xmlns="http://www.w3.org/2000/svg" viewBox="0 0 538.25 639.57">
  <defs>
    <style>
      .cls-1 {
        fill: #686666;
      }

      .cls-2 {
        fill: #b5b4b4;
      }

      .cls-3 {
        fill: #c2d9ca;
      }

      .cls-4 {
        fill: #322f30;
      }

      .cls-5 {
        fill: #302d2e;
      }

      .cls-6 {
        fill: #cccbcb;
      }

      .cls-7 {
        fill: #cac9ca;
      }

      .cls-8 {
        fill: #dddcdc;
      }

      .cls-9 {
        fill: #d9d8d8;
      }

      .cls-10 {
        fill: #dfdedf;
      }

      .cls-11 {
        fill: #221f20;
      }

      .cls-12 {
        fill: #373435;
      }

      .cls-13 {
        fill: #367b44;
      }

      .cls-14 {
        fill: #45683a;
      }

      .cls-15 {
        fill: #6cb556;
      }

      .cls-16 {
        fill: #2c292a;
      }

      .cls-17 {
        fill: #4a733e;
      }

      .cls-18 {
        fill: #35482e;
      }

      .cls-19 {
        fill: #35492e;
      }

      .cls-20 {
        fill: #397e48;
      }

      .cls-21 {
        fill: #4b753f;
      }

      .cls-22 {
        fill: #5f5d5d;
      }

      .cls-23 {
        fill: #615f5f;
      }

      .cls-24 {
        fill: #312e2f;
      }
    </style>
  </defs>
  <g id="Layer_1-2" data-name="Layer 1">
    <g id="G9AbhM.tif">
      <g>
        <path class="cls-13" d="M150.67,509.48c-32.31,.59-64.61,.86-96.92-.14-13.82-2.37-27.76-.6-41.63-1-10.28-.3-10.3-.06-10.3-10.21,0-132.86,0-265.72,0-398.58,0-1.58,.14-3.18-.02-4.74-.47-4.55,1.64-5.87,5.99-5.85,45.07,.17,90.15,.2,135.22,.27-12.41,20.35-24.43,40.7-29.92,64.48-4.24,18.36-9.33,36.41-8.3,55.48-2.68,4.25-2.62,8.52-.05,12.79-.03,66.91,0,133.81-.18,200.72-.02,6.34,2.37,8.19,8.4,8.11,21.33-.26,42.67-.32,64.01-.02,7.73,.11,10.32-3.15,9.96-10.46-.36-7.36-.09-14.75-.07-22.12,0-2.35-.3-4.93,2.3-6.26,2.7-1.39,4.27,.73,6.2,2.1,14.66,10.39,30.6,18.92,47.24,25.01,22.1,8.08,45.35,12.63,69.24,11.74,.64,4.55,3.86,4.86,7.53,4.77,4.23-.1,5.17-2.75,5.24-6.23,12.57,.08,24.73-1.43,37.17-4.31,16.82-3.89,32.66-10.06,48.42-16.39,10.15-4.08,19.66-10.17,28.83-16.51,3.86-2.67,7.59-2.5,7.46,4-.15,7.89,.34,15.8-.15,23.66-.39,6.22,1.66,8.16,7.95,8.08,24.19-.33,48.38-.13,72.57-.14-2.32,2.65-5.42,1.49-8.17,1.5-21.32,.1-42.65,.33-63.97-.11-7.47-.15-10.24,1.93-10.06,9.71,.46,20-.21,40.02,.33,60.02,.2,7.58-1.87,9.66-9.54,9.64-91.88-.27-183.76-.19-275.64-.12-3.04,0-6.33-1.1-9.13,1.15Z"/>
        <path class="cls-15" d="M150.67,509.48c2.8-2.25,6.09-1.15,9.13-1.15,91.88-.07,183.76-.15,275.64,.12,7.67,.02,9.75-2.06,9.54-9.64-.54-19.99,.12-40.02-.33-60.02-.18-7.78,2.6-9.86,10.06-9.71,21.32,.44,42.65,.2,63.97,.11,2.75-.01,5.85,1.15,8.17-1.5,0,0,.41-.43,.41-.43,2.42-1.75,1.45-4.34,1.45-6.56,.05-63.69,.05-127.37-.04-191.06,0-2.4,1.27-5.34-1.64-7.18-26.8-1.56-53.62-.98-80.43-.3-3.54,.76-3.07,3.68-3.44,6.24-2.66,18.41-7.45,36.03-16.55,52.54-11,19.97-26.55,35.44-45.86,46.68-15.76,9.17-32.8,16.06-51.66,16.11-3.44,0-4.82,1.5-4.37,4.84-.13,.47-.24,.94-.35,1.42-.36,.04-.69,.17-.98,.39l-.59-.43c.06-40.58,.24-81.16,.06-121.74-.03-6.44,2.36-8.16,8.37-7.99,12.11,.34,24.24,.17,36.37,.09,50.06-.31,100.12-.68,150.18-.97,13.83-.08,13.99,.14,14,14.2,.02,62.2,.01,124.4,0,186.6,0,10.18-1.52,11.88-11.86,11.94-21.35,.13-42.7,.3-64.04-.11-6.98-.14-9.29,2.2-9.2,9,.27,20.55,0,41.12,.17,61.67,.04,5.08-1.01,7.71-6.92,7.7-95.14-.14-190.29-.1-285.43-.14-1.27,0-2.55-.47-3.82-.72Z"/>
        <path class="cls-15" d="M324.6,429.31c-.07,3.48-1.01,6.12-5.24,6.23-3.66,.09-6.89-.22-7.53-4.77,.03-26.91,.05-53.82,.08-80.73-.09-1-.18-1.99-.27-2.99-.31-4.81-4.06-3.18-6.56-3.27-16.14-.59-31.34-5.34-45.42-12.5-19.23-9.79-35.33-23.74-47.33-42.02-11.24-17.13-18.86-35.53-20.88-56.13-.38-3.9,1-9.11-4.6-11.08-.5-.04-.99-.13-1.47-.26-.01-.5,.09-.96,.32-1.41,40.5-.02,81,0,121.5-.11,4.88-.01,6.66,2.1,6.33,6.69-.13,1.83-.02,3.68-.02,5.52,.24,65.24,.49,130.49,.69,195.73,0,2.49-.2,4.79,3.14,5.28,4.62,.67,5.14-2.39,5.45-5.74,0,0,.6-.44,.6-.44,.29,.22,.61,.35,.97,.4,.08,.53,.16,1.07,.25,1.6Z"/>
        <path class="cls-15" d="M313.36,87.5c.05,38.66,.06,77.32,.2,115.99,.02,4.63-.84,7.45-6.42,7.43-40.48-.15-80.96-.11-121.45-.13-.23-.44-.33-.9-.31-1.4,.5-.13,1-.21,1.52-.23,4.23,.58,4.8-2.01,4.69-5.32-.48-15.22,5.13-29.08,11.14-42.4,13.35-29.58,36.23-49.93,65.99-62.18,4.88-2.01,9.37-5.73,15.27-5.61,9.72,.18,18.39-4.93,27.88-6.11l.75-.06,.75,.02Z"/>
        <path class="cls-20" d="M61.73,557.24c6.85-2.39,10.12,3.05,13.28,8.27,12.53,20.73,24.87,41.56,37.42,62.27,2.64,4.36,1.4,6.23-3.25,6.91-9.63,1.4-14.81-.99-18.41-10.27-1.86-4.78-4.88-5.74-9.03-5.76-14.24-.05-28.47,.04-42.71-.08-5.39-.05-8.23,3.22-9.99,7.48-1.39,3.37-3.36,6.44-6.43,7.67-4.65,1.86-10.82,2.81-14.26-.52-3.51-3.4,1.58-7.33,3.52-10.6,11.73-19.69,24.11-39,35.36-58.96,3.54-6.28,7.94-6.79,14.5-6.41Zm-1.35,47.6c3.43,0,6.87-.19,10.28,.04,6.6,.45,7.39-3.43,5.18-7.89-3.24-6.51-7.18-12.72-11.3-18.72-2.57-3.74-5.6-6.74-8.6,.39-2,4.76-5.55,8.85-8.18,13.37-6.9,11.84-6.33,12.8,7.09,12.82,1.85,0,3.69,0,5.54,0Z"/>
        <path class="cls-24" d="M133.16,608.08c0-6.33-.2-12.66,.05-18.98,.3-7.65,3.79-9.7,10-5.27,10.03,7.16,19.48,15.12,29.35,22.52,3.62,2.71,7.25,8.73,11.2,6.95,4.45-2.01,1.44-8.6,1.89-13.16,.39-3.92,.08-7.9,.21-11.85,.12-3.98,1.75-6.39,6.27-6.2,4.29,.19,6.2,2.28,6.2,6.42,.02,13.18,.01,26.37,.08,39.55,.01,2.61-.58,4.71-3.34,5.56-3.78,1.16-7.08,.6-10.26-2.03-9.91-8.21-19.93-16.28-30-24.28-2.12-1.69-4.17-4.73-7.47-2.87-2.77,1.57-1.85,4.68-1.89,7.23-.08,5.01-.2,10.03,.03,15.03,.23,4.93-1.98,7.45-6.77,7.76-5.5,.36-5.62-3.44-5.59-7.38,.05-6.33,.01-12.66,.01-18.98h.03Z"/>
        <path class="cls-1" d="M313.36,87.5l-.75-.02s-.75,.06-.75,.06c-.02-.6-.04-1.19-.06-1.79,.03-24-.07-47.99,.19-71.99,.06-5.42-1.41-7.82-7.11-7.12-15.44,1.9-30.98,.11-46.48,5.4-14.04,4.8-28.06,9.94-40.9,16.68-26.72,14.04-50.49,32.51-68.62,57.24-1.63,2.23-3.43,3.04-5.88,3.25-45.07-.07-90.15-.09-135.22-.27-4.35-.02-6.46,1.3-5.99,5.85,.16,1.56,.02,3.16,.02,4.74,0,132.86,0,265.72,0,398.58,0,10.15,.01,9.91,10.3,10.21,13.88,.4,27.81-1.37,41.63,1-16.27,1.7-32.58,.33-48.87,.74-3.23,.08-4.91-1.44-4.87-4.75,.03-1.84-.01-3.69-.01-5.53C0,365.7,0,231.6,0,97.5q0-10.29,10.41-10.3c41.36,0,82.72-.1,124.08,.1,6.26,.03,10.62-1.56,14.61-6.82,19.72-26.06,45.77-44.52,74.72-58.67C249.67,9.18,276.91,.88,306.26,1.77c5.01,.15,8.46,.73,7.54,6.82-.02,25.69-.04,51.38-.06,77.07-.13,.61-.26,1.23-.38,1.84Z"/>
        <path class="cls-16" d="M253.1,581.87c6.3,0,12.62-.28,18.91,.07,9.77,.54,12.96,4.08,13.09,13.7,.04,2.63,.06,5.26-.06,7.88-.32,6.9-4.13,10.58-10.89,10.77-9.19,.25-18.4,.38-27.58,.07-6.21-.21-9.58,1.55-8.52,8.4,.28,1.8,.01,3.67,.04,5.51,.06,4.11-1.56,6.66-6.05,6.21-3.72-.37-6.55-1.8-6.49-6.28,.18-12.87,.29-25.73,.41-38.6,.05-5.47,2.49-8.18,8.24-7.95,6.29,.25,12.61,.06,18.91,.06,0,.06,0,.11,0,.17Zm1.61,23.37c3.42,0,6.83-.04,10.25,0,4.07,.05,7.61-.72,7.43-5.82-.16-4.82-1.37-8.88-7.61-8.7-6.3,.19-12.62,.22-18.92-.03-5.38-.21-8.16,1.26-8.31,7.41-.16,6.69,3.56,7.24,8.48,7.14,2.89-.06,5.78-.01,8.67-.02Z"/>
        <path class="cls-10" d="M481.39,76.28c5.65-.16,6.81,5.12,9.26,8.3,6.35,8.24,9.57,18.45,14.94,27.13,5.9,9.54,8.82,20.11,12.18,30.17,2.65,7.91,4.95,16.72,7.06,24.98,3.12,12.2,1.43,25.28,7.31,36.77,2.52,4.93-.03,7.54-4.52,8.66-2.25,.56-4.72,.27-7.09,.27-62.98-.02-125.96-.05-188.94-.09-10.19,0-10.22-.03-10.22-10.07-.04-64.04,.07-128.08-.27-192.11-.04-7.92,1.88-11.14,10.07-10.08,4.93,.64,10.09-.43,14.99,.31,12.47,1.88,25.11,3.14,36.79,8.63,2,.94,4.64,.65,6.99,.71,3.31,.1,5.69,1.1,5.8,4.9-15.82-4.79-31.79-9.04-48.31-10.52-7.69-.69-15.33-3.94-23.18-.96-.4,.65-1.15,1.3-1.16,1.96-.3,27.39-1.02,54.78,.33,82.16-.05,38.64-.03,77.28-.25,115.91-.03,5.41,1.66,7.4,7.23,7.37,38.63-.19,77.27-.12,115.91-.14,25.5,.18,51,.36,76.49,.53,5.21,.03,5.57-3.08,5.38-7.4-.46-10.61-4.4-20.55-5.52-30.98-2.02-18.76-9.32-36.05-16.28-53.13-6.25-15.34-14.57-30.04-24.98-43.26Z"/>
        <path class="cls-7" d="M417.1,579.54c7.11,0,14.24-.24,21.34,.06,7.75,.33,10.17,5.24,9.92,16.4-.18,8.11-7.62,5.37-11.24,8.27-1.3,1.04-3.38-1.89-4.88-3.33-1.91-1.83-1.41-5.89-5.64-5.61-6.81,.45-13.71-.87-20.43,.72-2.38,.56-2.34,3.13-2.54,5.28q-1.98,21.09,19.4,20.89c4.09-.03,7.23,.36,8.06-5.62,.89-6.43,7.16-3.4,11.2-3.83,3.86-.41,5.48,1.85,5.93,5.68,1.64,14.05-3.16,19.57-17.54,19.65-10.01,.06-20.03,.11-30.04-.04-10.28-.15-17.37-7.45-17.42-17.69-.04-7.64-.03-15.28,0-22.92,.04-12.67,5.34-17.93,18.08-17.96,5.27-.01,10.54,0,15.81,0v.05Zm-.65,53.98s0,.03,0,.05c6.05,0,12.11,0,18.16,0,.53,0,1.05-.03,1.58-.07,8.34-.62,11.56-5,9.84-13.24-.59-2.83-1.66-4.88-4.98-5.05-3.21-.17-5.73,.13-6.14,4.18-.43,4.29-3.64,5.54-7.33,5.58-7.37,.09-14.74,.05-22.1-.11-4.38-.09-6.69-2.21-6.51-6.96,.23-6.31,.24-12.64,.03-18.94-.2-6.2,2.77-8.43,8.66-8.19,5.78,.24,11.58,.18,17.37-.01,4.55-.15,8.08,.34,9.59,5.77,1.16,4.17,5.34,3.82,8.71,3.15,3.54-.7,2.83-3.86,2.92-6.43,.25-7.66-5.04-10.17-11.08-10.42-12.08-.51-24.21-.31-36.31-.13-6.01,.09-10.3,3.18-10.51,9.47-.36,11.03-.36,22.09,0,33.12,.17,5.34,3.08,8.6,9.17,8.3,6.3-.3,12.63-.07,18.94-.07Z"/>
        <path class="cls-22" d="M481.39,76.28c10.41,13.22,18.73,27.93,24.98,43.26,6.96,17.08,14.26,34.37,16.28,53.13,1.12,10.44,5.06,20.38,5.52,30.98,.19,4.32-.17,7.44-5.38,7.4-25.5-.16-51-.35-76.49-.53,.04-.45,.04-.9,0-1.34,.61-.06,1.21-.13,1.82-.19,23.71,.06,47.41,.02,71.12,.27,4.74,.05,6.75-1.29,6.31-6.24-1-11.15-4.68-21.78-6.27-32.87-.87-6.06-1.27-13.32-4.23-18.78-5.86-10.85-6.51-23.47-13.07-34.01-4.79-7.7-7.94-16.42-12.78-24.09-9.91-15.72-22.06-29.6-35.93-42.07-10.47-9.41-22.22-17.06-34.56-23.25-9.4-4.71-19.34-8.82-29.86-11.55-13.26-3.44-26.04-8.42-40.06-8.28-8.08,.08-16.08-1.11-23.71-4.04-.28-.28-.56-.55-.85-.82,7.86-2.98,15.49,.27,23.18,.96,16.52,1.48,32.49,5.73,48.31,10.52,34.75,11.88,63.38,32.28,85.65,61.53Z"/>
        <path class="cls-2" d="M300.71,636.58c-2.97-1.33-3.01-3.94-3.01-6.65,.04-13.93,.13-27.86-.02-41.78-.06-5.95,2.33-8.62,8.43-8.56,16.55,.17,33.11,.05,49.66,.07,1.3,0,2.66,.02,3.91,.34,3.58,.92,6.27,2.68,6.06,7-.23,4.7-3.51,5.4-7.15,5.43-12.35,.08-24.7,.23-37.05,0-4.56-.08-7.16,.95-6.44,6.03,.51,3.99,3.62,3.07,6.09,3.12,5,.09,10-.06,15,.06,4.54,.1,10.08,.25,10.17,6.1,.1,6.46-5.74,6.36-10.51,6.53-2.89,.1-5.81-.22-8.68,.08-4.03,.41-8.41-1.59-12.07,1.6,0,0,.02-.02,.02-.02-2.28,1.69-1.16,4.27-1.67,6.42-2.55-8.42-.68-11.24,7.68-11.39,5.79-.1,11.59,.03,17.37-.19,2.22-.09,4.45-1.48,4.25-3.81-.16-1.97-2.53-2.41-4.45-2.42-6.32-.04-12.64-.13-18.96-.02-5.82,.1-6.95-3.66-7.15-8.27-.23-5.23,3.17-5.86,7.29-5.84,11.58,.07,23.17,.08,34.75-.02,2.7-.02,6.52,.86,6.56-3.51,.04-3.89-3.15-4.16-6.27-4.15-16.06,.05-32.12,.16-48.18-.01-4.58-.05-6.08,2.02-6.07,6.13,.02,13.16,.06,26.33-.05,39.49-.03,3.84,1.85,5.06,5.33,5.06,16.85-.01,33.7,.06,50.55,.04,2.66,0,5.84-.13,5.69-3.78-.14-3.53-2.83-4.49-6.18-4.46-11.06,.11-22.12,.11-33.17-.01-2.5-.03-5.31,1.01-7.45-1.32,16.88,.56,33.86-2.12,50.64,1.6,0,0,.01,0,.01,0-.63,8.18-3.38,10.85-11.98,10.93-17.65,.16-35.3,.14-52.96,.19Z"/>
        <path class="cls-9" d="M499.51,639.56c-9.14-1.04-20.09,2.49-30.07-4.33-3.74-2.56-5.76-4.8-5.72-9.24,.11-11.59-.08-23.18,.09-34.77,.09-6.53,5.35-11.65,11.99-11.71,15.81-.13,31.61-.09,47.42-.04,7.7,.03,14.61,6.33,14.84,14.02,.3,10,.23,20.02,.02,30.03-.14,6.77-9.99,15.58-17.45,16.03-.26,.02-.53,0-.79,0-6.32,0-12.64,0-20.32,0Zm30.88-7.7c1.7-.7,2.21-2.35,2.41-3.83,1.74-12.83,1.65-25.73,.11-38.52-.63-5.25-5.39-7.86-10.48-7.94-14.74-.23-29.49-.37-44.21,.12-8.01,.27-12.36,5.33-12.55,13.38-.22,9.21-.23,18.43,.04,27.64,.22,7.69,4.01,11.66,11.82,11.82,15,.3,30.01,.2,45.01,.02,2.73-.03,5.85-.05,7.86-2.7h0Z"/>
        <path class="cls-21" d="M185.37,209.39c-.02,.49,.08,.96,.31,1.4-23.66,.17-47.33,.34-71,.5-2.1,.02-4.21-.02-6.31,.08-2.63,.12-3.58,1.74-3.58,4.21,0,2.47,.94,4.12,3.57,4.21,3.42,.11,6.84,.06,10.26,.09,22.35,.17,44.71,.33,67.06,.5-.22,.44-.33,.91-.32,1.41-26.88,.06-53.76,.12-80.64,.18-2.57-4.27-2.62-8.54,.05-12.79,26.86,.07,53.73,.14,80.59,.21Z"/>
        <path class="cls-6" d="M315.1,615.93c3.66-3.19,8.04-1.19,12.07-1.6,2.86-.29,5.79,.03,8.68-.08,4.77-.17,10.61-.08,10.51-6.53-.09-5.84-5.63-5.99-10.17-6.1-5-.11-10,.04-15-.06-2.47-.05-5.58,.87-6.09-3.12,7.37,.05,14.75,.13,22.12,.14,3.91,0,7.35,1.15,9.71,4.33,2.06,2.77,1.79,6.08,.58,9.05-1.22,3.01-3.96,3.88-7.14,3.86-8.43-.04-16.86,.06-25.28,.11Z"/>
        <path class="cls-6" d="M300.71,636.58c17.65-.05,35.31-.03,52.96-.19,8.59-.08,11.34-2.75,11.98-10.93,2.27,6.49,.23,12.25-5.56,12.32-19.59,.23-39.23,1.6-58.8-.68-.21-.02-.39-.34-.58-.52Z"/>
        <path class="cls-15" d="M322.78,427.75c-1.83-19.13-.44-38.3-.72-57.45-.1-6.77-.97-13.63,.73-20.36,0,0,.59,.43,.59,.43,0,25.64,0,51.29,0,76.93l-.6,.44Z"/>
        <path class="cls-15" d="M313.75,85.66c.02-25.69,.04-51.39,.06-77.07,1.1,25.7,1.24,51.39-.06,77.07Z"/>
        <path class="cls-6" d="M313.45,622.32c.51-2.15-.61-4.73,1.67-6.42-.67,4.73,1.15,6.5,6.12,6.37,12.1-.31,24.2-.14,36.31-.07,3.06,.02,6.53-.68,8.09,3.23-16.78-3.72-33.76-1.04-50.64-1.6-.51-.51-1.03-1.01-1.54-1.52Z"/>
        <path class="cls-11" d="M104.73,221.97c26.88-.06,53.76-.12,80.64-.18,.48,.13,.97,.22,1.47,.26,.59,5.2,1.09,10.41,1.78,15.6,2.22,16.75,8.27,32.11,16.91,46.54,10.37,17.33,23.38,31.85,40.84,42.6,15.02,9.25,30.34,16.92,48.15,18.53,4.38,6.78,11.31,4.19,17.38,4.72-.03,26.91-.05,53.82-.08,80.73-23.89,.89-47.14-3.66-69.24-11.74-16.64-6.08-32.59-14.62-47.24-25.01-1.93-1.37-3.49-3.49-6.2-2.1-2.6,1.34-2.29,3.91-2.3,6.26-.02,7.38-.3,14.77,.07,22.12,.36,7.31-2.22,10.57-9.96,10.46-21.33-.3-42.67-.23-64.01,.02-6.03,.07-8.42-1.77-8.4-8.11,.19-66.91,.15-133.81,.18-200.72Z"/>
        <path class="cls-11" d="M324.6,429.31c-.08-.53-.16-1.07-.24-1.6,0-25.91,.01-51.81,.02-77.72,.11-.47,.23-.95,.35-1.42,5.52,1.27,10.02-3.05,15.04-3.07,14.19-.04,26.73-6.39,38.16-12.66,25.32-13.87,44.94-33.92,56.78-61.28,6.92-15.99,11.43-32.08,11.9-49.4,26.81-.68,53.62-1.26,80.43,.3,0,19.24-.05,38.48-.02,57.72,.07,49.02,.17,98.05,.26,147.07,0,0-.4,.43-.41,.43-24.19,0-48.39-.19-72.57,.14-6.29,.09-8.34-1.86-7.95-8.08,.49-7.86,0-15.77,.15-23.66,.13-6.5-3.61-6.67-7.46-4-9.17,6.34-18.68,12.43-28.83,16.51-15.76,6.33-31.61,12.5-48.42,16.39-12.44,2.88-24.6,4.39-37.17,4.31Z"/>
        <path class="cls-11" d="M185.37,209.39c-26.86-.07-53.73-.14-80.59-.21-1.03-19.07,4.06-37.12,8.3-55.48,5.49-23.77,17.51-44.12,29.92-64.48,2.45-.21,4.25-1.02,5.88-3.25,18.13-24.73,41.89-43.2,68.62-57.24,12.84-6.74,26.87-11.89,40.9-16.68,15.5-5.29,31.04-3.5,46.48-5.4,5.7-.7,7.17,1.7,7.11,7.12-.27,23.99-.16,47.99-.19,71.99-23.69,2.81-45.92,8.81-66.36,22.4-25.53,16.98-41.84,39.88-52.15,68.17-3.92,10.75-3.62,22.03-6.39,32.84-.52,.02-1.02,.09-1.52,.23Z"/>
        <path class="cls-14" d="M446.6,222.17c-.46,17.31-4.98,33.41-11.9,49.4-11.84,27.36-31.46,47.41-56.78,61.28-11.43,6.26-23.97,12.62-38.16,12.66-5.03,.01-9.53,4.33-15.04,3.07-.45-3.34,.93-4.83,4.37-4.84,18.86-.05,35.9-6.94,51.66-16.11,19.31-11.24,34.86-26.71,45.86-46.68,9.1-16.51,13.89-34.13,16.55-52.54,.37-2.55-.1-5.48,3.44-6.24Z"/>
        <path class="cls-13" d="M527.26,427.27c-.09-49.02-.19-98.05-.26-147.07-.03-19.24,0-38.48,.02-57.72,2.92,1.84,1.64,4.78,1.64,7.18,.09,63.69,.09,127.37,.04,191.06,0,2.22,.97,4.81-1.45,6.56Z"/>
        <path class="cls-14" d="M324.37,349.99c0,25.91-.01,51.81-.02,77.72-.36-.05-.68-.18-.97-.4,0-25.65,0-51.29,0-76.93,.29-.22,.62-.34,.98-.39Z"/>
        <path class="cls-17" d="M294.52,345.32c-17.82-1.61-33.13-9.28-48.15-18.53-17.46-10.75-30.47-25.27-40.84-42.6-8.64-14.44-14.68-29.79-16.91-46.54-.69-5.19-1.19-10.4-1.78-15.6,5.61,1.97,4.22,7.18,4.6,11.08,2.02,20.6,9.64,39.01,20.88,56.13,11.99,18.28,28.09,32.23,47.33,42.02,14.08,7.16,29.28,11.91,45.42,12.5,2.5,.09,6.25-1.53,6.56,3.27-5.7-.58-11.41-1.16-17.11-1.73Z"/>
        <path class="cls-18" d="M294.52,345.32c5.7,.58,11.41,1.16,17.11,1.73,.09,1,.18,2,.27,2.99-6.08-.54-13,2.05-17.38-4.73Z"/>
        <path class="cls-21" d="M186.89,209.16c2.78-10.81,2.47-22.09,6.39-32.84,10.32-28.29,26.63-51.2,52.15-68.17,20.44-13.59,42.68-19.59,66.36-22.4,.02,.59,.04,1.19,.06,1.79-9.49,1.18-18.15,6.29-27.88,6.11-5.9-.11-10.4,3.61-15.27,5.61-29.76,12.25-52.65,32.6-65.99,62.18-6.01,13.32-11.61,27.18-11.14,42.4,.1,3.31-.46,5.9-4.69,5.32Z"/>
        <path class="cls-3" d="M60.38,604.85c-1.85,0-3.69,0-5.54,0-13.43-.03-13.99-.99-7.09-12.82,2.63-4.52,6.19-8.61,8.18-13.37,2.99-7.12,6.03-4.12,8.6-.39,4.13,6,8.07,12.21,11.3,18.72,2.22,4.46,1.42,8.34-5.18,7.89-3.41-.23-6.85-.04-10.28-.04Zm-.98-26.59c-.7,2.5-2.04,4.22-2.8,6-2.06,4.82-9.67,8.62-6.52,13.75,3.19,5.19,10.64,1.51,16.18,1.99,4.25,.37,5.88-2.28,3.77-6.06-2.88-5.14-4.66-11.04-10.62-15.67Z"/>
        <path class="cls-8" d="M254.72,605.24c-2.89,0-5.78-.04-8.67,.02-4.93,.1-8.64-.45-8.48-7.14,.15-6.15,2.93-7.62,8.31-7.41,6.3,.24,12.62,.21,18.92,.03,6.24-.18,7.45,3.88,7.61,8.7,.17,5.1-3.36,5.87-7.43,5.82-3.42-.05-6.83,0-10.25,0Zm1.16-2.05s0-.05,0-.08c3.42,0,6.84,.08,10.25-.03,2.34-.08,3.01-1.74,3-3.8,0-2.04-.64-3.81-2.97-3.85-6.57-.1-13.14-.15-19.71,.05-2.79,.09-4.2,2.03-3.96,4.84,.25,2.98,2.6,2.82,4.71,2.85,2.89,.04,5.78,.01,8.68,.01Z"/>
        <path class="cls-15" d="M446.31,209.19c.04,.45,.04,.9,0,1.34-38.64,.01-77.27-.05-115.91,.14-5.57,.03-7.26-1.97-7.23-7.37,.22-38.64,.19-77.27,.25-115.91,.44-.04,.89-.07,1.34-.09,6.16,1.61,12.24,4.01,18.51,4.68,13.59,1.45,25.47,7.15,36.95,13.77,18.65,10.76,34.29,24.94,45.06,43.8,7.47,13.09,14.26,26.67,16.1,41.87,.76,6.31,2.36,12.11,4.95,17.78Z"/>
        <path class="cls-22" d="M324.75,87.29c-.45,.02-.89,.05-1.34,.09-1.34-27.38-.63-54.77-.32-82.16,0-.66,.76-1.31,1.16-1.96,.28,.27,.57,.55,.85,.82-.08,27.19-.15,54.39-.22,81.58-.04,.54-.08,1.09-.12,1.63Z"/>
        <path class="cls-4" d="M416.45,633.52c-6.32,0-12.64-.24-18.94,.07-6.08,.29-8.99-2.96-9.17-8.3-.36-11.03-.36-22.09,0-33.12,.21-6.28,4.49-9.38,10.51-9.47,12.1-.18,24.22-.37,36.31,.13,6.05,.25,11.33,2.76,11.08,10.42-.08,2.57,.62,5.73-2.92,6.43-3.38,.67-7.55,1.02-8.71-3.15-1.51-5.43-5.03-5.92-9.59-5.77-5.78,.19-11.59,.25-17.37,.01-5.89-.24-8.86,1.99-8.66,8.19,.2,6.31,.2,12.64-.03,18.94-.18,4.75,2.13,6.86,6.51,6.96,7.36,.16,14.74,.2,22.1,.11,3.69-.04,6.9-1.3,7.33-5.58,.41-4.05,2.93-4.35,6.14-4.18,3.32,.18,4.39,2.22,4.98,5.05,1.71,8.24-1.5,12.62-9.84,13.24-.52,.04-1.05,.07-1.58,.07-6.05,0-12.11,0-18.16,0,0-.02,0-.03,0-.05Z"/>
        <path class="cls-11" d="M324.87,85.67c.07-27.19,.15-54.39,.22-81.58,7.63,2.93,15.63,4.12,23.71,4.04,14.02-.14,26.8,4.84,40.06,8.28,10.52,2.73,20.46,6.83,29.86,11.55,12.35,6.19,24.09,13.84,34.56,23.25,13.87,12.47,26.03,26.34,35.93,42.07,4.83,7.67,7.99,16.39,12.78,24.09,6.56,10.55,7.21,23.17,13.07,34.01,2.96,5.47,3.36,12.72,4.23,18.78,1.59,11.09,5.27,21.72,6.27,32.87,.44,4.95-1.57,6.29-6.31,6.24-23.7-.25-47.41-.21-71.12-.27-3.56-32.33-14.96-61.23-38.32-84.46-23.45-23.31-51.43-37.29-84.94-38.88Z"/>
        <path class="cls-19" d="M324.87,85.67c33.52,1.59,61.49,15.57,84.94,38.88,23.36,23.22,34.75,52.13,38.32,84.46-.61,.06-1.21,.13-1.82,.19-2.59-5.66-4.19-11.46-4.95-17.78-1.84-15.2-8.63-28.78-16.1-41.87-10.77-18.86-26.4-33.04-45.06-43.8-11.47-6.62-23.36-12.32-36.95-13.77-6.27-.67-12.35-3.06-18.51-4.68,.04-.54,.08-1.09,.12-1.63Z"/>
        <path class="cls-12" d="M313.45,622.32c.51,.51,1.03,1.01,1.54,1.52,2.14,2.33,4.95,1.29,7.45,1.32,11.06,.12,22.12,.13,33.17,.01,3.35-.03,6.04,.92,6.18,4.46,.15,3.65-3.03,3.77-5.69,3.78-16.85,.02-33.7-.05-50.55-.04-3.48,0-5.36-1.22-5.33-5.06,.11-13.16,.07-26.33,.05-39.49,0-4.11,1.5-6.18,6.07-6.13,16.06,.18,32.12,.07,48.18,.01,3.11-.01,6.31,.26,6.27,4.15-.04,4.37-3.86,3.49-6.56,3.51-11.58,.09-23.17,.09-34.75,.02-4.13-.03-7.52,.61-7.29,5.84,.2,4.61,1.33,8.37,7.15,8.27,6.32-.11,12.64-.02,18.96,.02,1.92,.01,4.29,.45,4.45,2.42,.19,2.33-2.03,3.73-4.25,3.81-5.78,.22-11.58,.09-17.37,.19-8.35,.15-10.23,2.96-7.68,11.39Z"/>
        <path class="cls-23" d="M530.4,631.85c-2.01,2.65-5.13,2.67-7.86,2.7-15,.17-30.01,.28-45.01-.02-7.81-.16-11.6-4.12-11.82-11.82-.27-9.21-.26-18.43-.04-27.64,.2-8.04,4.54-13.11,12.55-13.38,14.72-.49,29.48-.34,44.21-.12,5.09,.08,9.85,2.69,10.48,7.94,1.54,12.79,1.63,25.69-.11,38.52-.2,1.48-.71,3.12-2.41,3.83,.01-11.85,.05-23.7,.03-35.55-.02-9.84-.54-10.46-10.15-10.53-13.7-.1-27.41,.37-41.08-.17-7.42-.29-10.19,3.4-10.46,9.62-.39,8.94-.49,17.93,.04,26.85,.37,6.37,3.27,10.22,11.07,9.94,16.83-.61,33.7-.17,50.55-.17Z"/>
        <path class="cls-5" d="M530.4,631.85c-16.85,0-33.72-.44-50.55,.17-7.8,.28-10.7-3.57-11.07-9.94-.52-8.92-.43-17.91-.04-26.85,.27-6.22,3.04-9.91,10.46-9.62,13.67,.54,27.39,.07,41.08,.17,9.61,.07,10.13,.69,10.15,10.53,.02,11.85-.02,23.7-.03,35.55,0,0,0,0,0,0Zm-30.8-7.65c3.15,0,6.3,0,9.45,0q12.23-.03,12.23-11.93c0-3.68-.26-7.37,.05-11.02,.6-6.96-1.98-10.18-9.32-9.71-6.8,.43-13.65,.09-20.47,.09q-11.97,0-12,12.16-.06,20.42,20.06,20.42Z"/>
      </g>
    </g>
  </g>
</svg>