<?xml version="1.0" encoding="UTF-8"?>
<svg id="Layer_2" data-name="Layer 2" xmlns="http://www.w3.org/2000/svg" viewBox="0 0 827.1 1321.91">
  <g id="Layer_1-2" data-name="Layer 1">
    <g id="fXxkbH">
      <g>
        <path d="M253.59,603.99c13.15,4.03,25.76,8.8,38.79,11.66,19.95,4.37,40.29,3.63,60.67,3.11,29.88-.77,49.51-17.71,65.76-39.74,10.21-13.85,18.42-29.16,27.09-43.12-3.48,21.49-9.02,43.57-19.46,65.91,8.03,.25,15.23,.98,22.37,.62,35.48-1.81,64.74-17.76,90.3-41.18,19.44-17.81,31.12-40.22,34.8-66.31,3.08-21.85-1.43-42.4-13.58-61.05-.27-.41-.57-.83-.94-1.14-.22-.19-.59-.18-1.42-.41-1.21,3.69-2.16,7.52-3.7,11.1-2.56,5.94-4.94,12.07-8.4,17.48-9.17,14.37-24.73,17.91-40.62,9.2-6.37-3.49-12.47-7.79-17.92-12.59-7.14-6.29-8.32-15.45-8.55-24.29-.58-22.08,4.85-43.22,11.46-64.03,3.93-12.36,8.87-24.39,12.91-36.71,1.21-3.68,1.39-7.87,1.26-11.8-1.13-34.63-16.06-62.64-41.54-85.46-14.25-12.77-30.22-22.82-49.14-30.73,1.06,3.31,1.73,5.57,2.5,7.79,4.84,14.08,9.24,28.31,6.72,43.41-.79,4.74-2.85,9.66-5.62,13.59-4.03,5.72-9.81,8.31-17.39,6.93-18.58-3.37-29.91-15.2-37.23-31.47-10.81-24.01-12.56-49.43-10.74-75.34,1.94-27.66,.77-54.98-10.75-80.82-2.44-5.47-6.02-10.44-9.07-15.64-.5,.19-1.01,.38-1.51,.56-.42,4.85-.79,9.72-1.29,14.56-1.82,17.7-7.5,34.19-17.15,49.03-3.81,5.86-9.5,10.54-14.55,15.54-20.48,20.24-34.14,44.47-42.57,71.83-.27,.89-.62,1.75-1.37,3.82V.58c1.68-.12,3.26-.31,4.85-.35,40.02-.87,79.96,.73,119.72,5.22,53.89,6.1,106.7,17.23,157.61,36.36,60.11,22.6,114.23,54.85,159.83,100.45,47.39,47.4,80.45,103.53,100.68,167.35,9.44,29.78,15.79,60.18,18.39,91.3,2.38,28.38-.04,56.57-4.88,84.54-9.53,55.08-31.11,105.06-64.58,149.82-26.35,35.24-58.1,64.9-94.07,90.16-37.55,26.37-77.9,47.28-121.06,62.8-6.53,2.35-13.14,4.49-20.43,6.98,105.77,174.16,211.23,347.83,317.36,522.58-3.04,0-4.8,0-6.55,0-121.99,0-243.98,0-365.98,.07-3.33,0-5.26-.86-7-3.89-25.07-43.74-50.26-87.4-75.47-131.06-35.53-61.52-71.11-123.02-106.66-184.53-3.5-6.05-7.11-12.03-10.4-18.19-.96-1.8-1.42-4.1-1.42-6.17-.06-122.66-.04-245.31-.03-367.97,0-.98,0-1.97,0-2.07Z"/>
        <path d="M184.81,1006.2c-3.96,.18-7.73,.46-11.5,.49-37.15,.28-74.3,.5-111.45,.76-18.82,.13-37.65,.23-56.47,.45-3.09,.04-4.95-.34-4.93-4.21,.12-25.81-1.31-51.72,.37-77.42,2.36-36.12,19.28-63.93,53.99-77.84,33.54-13.44,77.96-8.5,104.58,20.14,12,12.91,19.24,28.24,22.5,45.41,1.3,6.83,2.06,13.83,2.23,20.78,.53,22.14,.67,44.29,.94,66.44,.02,1.47-.14,2.93-.26,5.02Zm-92.98-42.95c0-.33,0-.67,0-1,16.5,0,32.99-.05,49.48,.04,3.03,.02,4.63-.68,4.52-4.13-.26-8.49,.33-17.05-.49-25.48-1.96-20.17-11.36-35.46-31.22-42.38-14.75-5.13-29.78-4.94-44.59,.32-17.51,6.22-27.6,18.96-30.23,36.99-1.45,9.98-.78,20.25-1.26,30.39-.19,4.03,1.02,5.42,5.32,5.35,16.15-.27,32.31-.11,48.46-.11Z"/>
        <path d="M113.14,1219.07c24.32-14.4,47.89-28.35,72.93-43.18,0,6.65,0,11.91,0,17.18,.01,9.5-.15,19,.14,28.5,.11,3.52-1.09,5.38-4.1,7.04-19.65,10.87-39.19,21.95-58.81,32.88-7.26,4.05-7.93,5.47-5.82,14.82,8.19,0,16.48,.03,24.77,0,13.17-.05,26.33-.05,39.5-.27,3.69-.06,4.98,1.24,4.97,4.91-.05,11.33,0,22.67,.38,33.99,.15,4.38-1.21,5.75-5.61,5.74-22-.06-43.99,.14-65.99,.32-34.16,.28-68.31,.62-102.47,.92-3.16,.03-6.31,0-10.01,0-.2-1.97-.48-3.55-.5-5.14-.26-23.82-.61-47.65-.67-71.47-.03-13.13,2.23-25.89,8.41-37.66,11.17-21.28,29.74-30.14,52.77-29.03,23.32,1.12,39.38,13.63,48.09,35.38,.6,1.5,1.19,3,2.02,5.08Zm-73.98,57.87c14.83,0,29.11,.08,43.38-.16,1.02-.02,2.88-2.29,2.87-3.51-.07-10.3,.09-20.66-.93-30.89-1.26-12.61-10.12-18.87-24.52-18.52-11.43,.28-20.09,7.99-20.68,19.53-.56,10.95-.12,21.95-.12,33.54Z"/>
        <path d="M149.54,1037.14h35.88v112.65H1.3v-111.26H36.48v67.48c12.44,0,24.05,.09,35.65-.19,.85-.02,2.33-2.82,2.34-4.33,.07-16.5-.09-32.99-.19-49.49-.01-1.98,0-3.96,0-6.34h34.15v59.4h41.11v-67.91Z"/>
        <path d="M64.82,542.54c0,3.66,.31,6.51-.14,9.23-.2,1.24-1.67,2.71-2.92,3.29-39.55,18.3-42.67,72.55-15.12,98.97,27.36,26.24,79.18,24.21,102.95-4.81,15.06-18.38,17.63-39.57,10-61.64-7.59-21.95-24.28-33.85-46.53-38.5-3.86-.81-7.85-1.02-12.21-1.57v66.36c-2.36,.13-4.74,.27-7.84,.44v-76.48c29.61-2.74,59.14,13.2,71.82,38.92,13.42,27.21,8.66,61.27-12.12,83.16-12.15,12.8-27.59,19.55-44.99,21.63-18.64,2.22-36.68,.02-53.06-9.73-24.25-14.43-35.34-36.48-34.74-64.26,.64-29.23,14.08-50.72,40.79-63.42,1.02-.48,2.1-.82,4.1-1.6Z"/>
        <path d="M166.96,297.54c2,6.15-.55,9.86-6.08,13.5-39.77,26.18-79.28,52.73-118.87,79.18-1.9,1.27-3.71,2.65-5.96,4.26H167.95v9.71H19.43c-1.92-7.02-1.45-8.46,4.64-12.54,41.05-27.56,82.11-55.11,123.16-82.66,.65-.44,1.28-.9,2.53-1.79H18.61v-9.67H166.96Z"/>
        <path d="M122.17,127.93c20.22,7.81,34.32,20.7,41.44,40.66,11.7,32.78,2,66.92-24.56,85.7-16.52,11.68-35.25,14.96-55.08,13.74-30.76-1.9-56.76-21.36-65.13-49.25-8.38-27.91-1.82-64.98,27.87-83.38,4.05-2.51,8.42-4.52,13.87-7.42,0,4.2,.2,7.27-.12,10.28-.1,.97-1.4,2.19-2.44,2.64-27.03,11.74-36.91,40.34-32.76,66.96,3.83,24.59,22.93,43.81,49.78,48.72,22.85,4.18,44.52,1.33,63.34-13.65,32.31-25.7,27.22-85.61-12.65-102.07-2.7-1.12-3.98-2.58-3.62-5.57,.25-2.13,.05-4.3,.05-7.37Z"/>
        <path d="M171.83,819.37c-6.78-2.44-13.47-4.82-20.14-7.26-40.14-14.7-80.27-29.42-120.4-44.15-2.97-1.09-6.09-1.42-6.04-6.31,.05-4.88,1.3-7.14,6.05-8.94,45.11-17.09,90.1-34.5,135.13-51.8,1.38-.53,2.77-1.01,4.62-1.69v10.69c-10.62,4.05-21.55,8.39-32.61,12.35-3.77,1.35-5.33,3.07-5.23,7.37,.45,20.32,.57,40.65,.55,60.97,0,3.54,1.34,4.94,4.44,6,8.81,3,17.54,6.28,26.28,9.47q8.72,3.18,7.36,13.3Zm-133.04-59.02c29.64,10.79,57.83,21.06,86.14,31.37v-64.21c-28.74,10.96-56.75,21.64-86.14,32.84Z"/>
        <path d="M160.57,498.15v-65.82h8.07v75.76H19.59v-74.67h7.89v65.1h62.33v-59.29c2.33-.11,4.73-.22,7.96-.36v59.29h62.79Z"/>
        <path d="M17.7,110.31c-2.54-9.23-2.22-9.95,5.33-13.91,23.99-12.6,47.96-25.23,72.85-38.32-2.86-1.55-5.06-2.82-7.32-3.96-21.85-10.96-43.71-21.9-65.57-32.86-7.78-3.9-8.19-4.78-6.55-14.49,10.29,5.31,20.43,10.54,30.56,15.78,18.61,9.62,37.21,19.27,55.86,28.83,1.56,.8,3.43,1.43,5.16,1.42,16.48-.07,32.96-.12,49.44-.55,8.88-.23,9.58,.22,8.17,9.65-1.2,.1-2.48,.29-3.76,.3-16.48,.13-32.97,.03-49.44,.48-4.13,.11-8.62,1.18-12.24,3.11-26.13,13.92-52.08,28.18-78.09,42.32-1.42,.77-2.89,1.45-4.39,2.2Z"/>
      </g>
    </g>
  </g>
</svg>