<?xml version="1.0" encoding="UTF-8"?>
<svg id="Layer_2" data-name="Layer 2" xmlns="http://www.w3.org/2000/svg" viewBox="0 0 798.39 337.05">
  <defs>
    <style>
      .cls-1 {
        fill: #f3eeeb;
      }

      .cls-2 {
        fill: #f3edf2;
      }

      .cls-3 {
        fill: #f3ece0;
      }

      .cls-4 {
        fill: #f9f9f2;
      }

      .cls-5 {
        fill: #69647c;
      }

      .cls-6 {
        fill: #66617c;
      }

      .cls-7 {
        fill: #efbc64;
      }

      .cls-8 {
        fill: #eeefef;
      }

      .cls-9 {
        fill: #eef0ec;
      }

      .cls-10 {
        fill: #ebebe8;
      }

      .cls-11 {
        fill: #ebe5e8;
      }

      .cls-12 {
        fill: #ecb752;
      }

      .cls-13 {
        fill: #ecae43;
      }

      .cls-14 {
        fill: #ecbb9d;
      }

      .cls-15 {
        fill: #f1c648;
      }

      .cls-16 {
        fill: #f0f0f4;
      }

      .cls-17 {
        fill: #eba742;
      }

      .cls-18 {
        fill: #eae0db;
      }

      .cls-19 {
        fill: #e8983f;
      }

      .cls-20 {
        fill: #e8a749;
      }

      .cls-21 {
        fill: #e8a34d;
      }

      .cls-22 {
        fill: #e4944a;
      }

      .cls-23 {
        fill: #e4a85a;
      }

      .cls-24 {
        fill: #e58840;
      }

      .cls-25 {
        fill: #e99f40;
      }

      .cls-26 {
        fill: #edefe7;
      }

      .cls-27 {
        fill: #eeb845;
      }

      .cls-28 {
        fill: #eddfd7;
      }

      .cls-29 {
        fill: #e8e5e9;
      }

      .cls-30 {
        fill: #f1eae7;
      }

      .cls-31 {
        fill: #fefefa;
      }

      .cls-32 {
        fill: #fafaf9;
      }

      .cls-33 {
        fill: #e2e1d8;
      }

      .cls-34 {
        fill: #eceff2;
      }

      .cls-35 {
        fill: #edb956;
      }

      .cls-36 {
        fill: #e6913e;
      }

      .cls-37 {
        fill: #e69343;
      }

      .cls-38 {
        fill: #e69242;
      }

      .cls-39 {
        fill: #fcf4e9;
      }

      .cls-40 {
        fill: #8b82a1;
      }

      .cls-41 {
        fill: #83bb75;
      }

      .cls-42 {
        fill: #a14f89;
      }

      .cls-43 {
        fill: #89be7c;
      }

      .cls-44 {
        fill: #b74983;
      }

      .cls-45 {
        fill: #ba437b;
      }

      .cls-46 {
        fill: #b8aecd;
      }

      .cls-47 {
        fill: #b3cdac;
      }

      .cls-48 {
        fill: #bb427a;
      }

      .cls-49 {
        fill: #d03c6c;
      }

      .cls-50 {
        fill: #d0406b;
      }

      .cls-51 {
        fill: #d03f6a;
      }

      .cls-52 {
        fill: #cf3c71;
      }

      .cls-53 {
        fill: #cf406b;
      }

      .cls-54 {
        fill: #cf4070;
      }

      .cls-55 {
        fill: #d1406e;
      }

      .cls-56 {
        fill: #a7c89f;
      }

      .cls-57 {
        fill: #c1457b;
      }

      .cls-58 {
        fill: #b3447d;
      }

      .cls-59 {
        fill: #d88d57;
      }

      .cls-60 {
        fill: #da5c5f;
      }

      .cls-61 {
        fill: #da6255;
      }

      .cls-62 {
        fill: #bd4079;
      }

      .cls-63 {
        fill: #c23e73;
      }

      .cls-64 {
        fill: #db6753;
      }

      .cls-65 {
        fill: #cac8d3;
      }

      .cls-66 {
        fill: #caa19a;
      }

      .cls-67 {
        fill: #d25063;
      }

      .cls-68 {
        fill: #d2456b;
      }

      .cls-69 {
        fill: #d24967;
      }

      .cls-70 {
        fill: #ded2d7;
      }

      .cls-71 {
        fill: #df6e51;
      }

      .cls-72 {
        fill: #df754c;
      }

      .cls-73 {
        fill: #df774b;
      }

      .cls-74 {
        fill: #df7250;
      }

      .cls-75 {
        fill: #de835c;
      }

      .cls-76 {
        fill: #df7f81;
      }

      .cls-77 {
        fill: #df7f55;
      }

      .cls-78 {
        fill: #df7a45;
      }

      .cls-79 {
        fill: #cd376e;
      }

      .cls-80 {
        fill: #cd3c70;
      }

      .cls-81 {
        fill: #cd406c;
      }

      .cls-82 {
        fill: #d44869;
      }

      .cls-83 {
        fill: #d34b64;
      }

      .cls-84 {
        fill: #d34865;
      }

      .cls-85 {
        fill: #d34964;
      }

      .cls-86 {
        fill: #d34965;
      }

      .cls-87 {
        fill: #e3803f;
      }

      .cls-88 {
        fill: #e0794b;
      }

      .cls-89 {
        fill: #e38f4a;
      }

      .cls-90 {
        fill: #e38a42;
      }

      .cls-91 {
        fill: #e38641;
      }

      .cls-92 {
        fill: #c83a72;
      }

      .cls-93 {
        fill: #c53d74;
      }

      .cls-94 {
        fill: #c63d74;
      }

      .cls-95 {
        fill: #c63c74;
      }

      .cls-96 {
        fill: #d65260;
      }

      .cls-97 {
        fill: #d6535f;
      }

      .cls-98 {
        fill: #d75a5c;
      }

      .cls-99 {
        fill: #dd6e52;
      }

      .cls-100 {
        fill: #dd704f;
      }

      .cls-101 {
        fill: #dc6a51;
      }

      .cls-102 {
        fill: #dc6a53;
      }

      .cls-103 {
        fill: #d55060;
      }

      .cls-104 {
        fill: #d5515f;
      }

      .cls-105 {
        fill: #da6a5c;
      }

      .cls-106 {
        fill: #da6457;
      }

      .cls-107 {
        fill: #da645d;
      }

      .cls-108 {
        fill: #d65665;
      }

      .cls-109 {
        fill: #db7157;
      }

      .cls-110 {
        fill: #e08243;
      }

      .cls-111 {
        fill: #e08444;
      }

      .cls-112 {
        fill: #e17e47;
      }

      .cls-113 {
        fill: #e08155;
      }

      .cls-114 {
        fill: #e17c49;
      }

      .cls-115 {
        fill: #e17c47;
      }

      .cls-116 {
        fill: #e0864b;
      }

      .cls-117 {
        fill: #d96158;
      }

      .cls-118 {
        fill: #c93a71;
      }

      .cls-119 {
        fill: #ad4a81;
      }

      .cls-120 {
        fill: #d55465;
      }

      .cls-121 {
        fill: #dc7061;
      }

      .cls-122 {
        fill: #dc6b54;
      }

      .cls-123 {
        fill: #dc6953;
      }

      .cls-124 {
        fill: #dc6c52;
      }

      .cls-125 {
        fill: #e28146;
      }

      .cls-126 {
        fill: #e28546;
      }

      .cls-127 {
        fill: #de744b;
      }

      .cls-128 {
        fill: #de754d;
      }

      .cls-129 {
        fill: #d85c59;
      }

      .cls-130 {
        fill: #d85f58;
      }

      .cls-131 {
        fill: #d86157;
      }

      .cls-132 {
        fill: #e18243;
      }

      .cls-133 {
        fill: #d7575f;
      }

      .cls-134 {
        fill: #d7585d;
      }

      .cls-135 {
        fill: #d7585b;
      }

      .cls-136 {
        fill: #25184c;
      }

      .cls-137 {
        fill: #25184d;
      }

      .cls-138 {
        fill: #25194d;
      }

      .cls-139 {
        fill: #251b50;
      }

      .cls-140 {
        fill: #25194c;
      }

      .cls-141 {
        fill: #25194e;
      }

      .cls-142 {
        fill: #24184e;
      }

      .cls-143 {
        fill: #24194c;
      }

      .cls-144 {
        fill: #23174b;
      }

      .cls-145 {
        fill: #23174c;
      }

      .cls-146 {
        fill: #23174a;
      }

      .cls-147 {
        fill: #221642;
      }

      .cls-148 {
        fill: #22164a;
      }

      .cls-149 {
        fill: #22154b;
      }

      .cls-150 {
        fill: #211840;
      }

      .cls-151 {
        fill: #201744;
      }

      .cls-152 {
        fill: #433c59;
      }

      .cls-153 {
        fill: #95588c;
      }

      .cls-154 {
        fill: #8a6097;
      }

      .cls-155 {
        fill: #86be79;
      }

      .cls-156 {
        fill: #86bc78;
      }

      .cls-157 {
        fill: #55506b;
      }

      .cls-158 {
        fill: #281b4f;
      }

      .cls-159 {
        fill: #59526f;
      }

      .cls-160 {
        fill: #2b2248;
      }

      .cls-161 {
        fill: #2a1d50;
      }

      .cls-162 {
        fill: #291d4f;
      }

      .cls-163 {
        fill: #291e50;
      }

      .cls-164 {
        fill: #5a5372;
      }

      .cls-165 {
        fill: #57526d;
      }

      .cls-166 {
        fill: #846da2;
      }

      .cls-167 {
        fill: #534b6d;
      }

      .cls-168 {
        fill: #524d64;
      }

      .cls-169 {
        fill: #261b4d;
      }

      .cls-170 {
        fill: #271d4c;
      }

      .cls-171 {
        fill: #271a4e;
      }

      .cls-172 {
        fill: #4d4768;
      }
    </style>
  </defs>
  <g id="Layer_1-2" data-name="Layer 1">
    <g>
      <path class="cls-149" d="M197.65,157.23c-1.6-6.15-3.21-12.3-4.81-18.46-.14-.3-.28-.6-.41-.9-.92-2-1.85-4-2.77-6l-.02-.04c-4.88-8.63-11.21-16-19.22-21.89-.31,.09-.51-.02-.61-.33-5.44-2.57-10.88-5.14-16.32-7.7-1.27-.24-2.76,.47-3.79-.86-1.32-.34-2.64-.68-3.96-1.02l-.93-.21c-2.33,.01-4.66,.03-6.99,.04-.34,.31-.68,.62-1.02,.94,.15,2.75,3.09,3.68,3.9,5.99,.7,.74,1.4,1.47,2.11,2.2,3.76,3.08,5.79,7.19,6.97,11.79,1.45,2.45,1.35,5.32,2.14,7.95,2.65,11.02,2.95,22.04,.06,33.07-.07,.32-.14,.63-.22,.95-.72,5.21-2.15,10.17-5.01,14.65-.59,1.12-1.19,2.24-1.78,3.36-1.36,5.12-4.57,9.12-7.93,13.03-3.38,4-3.07,8.57,.76,11.02,2.68,1.07,5.05,.43,7.51-.96,15.33-8.62,24.37-21.64,27.53-38.86,.25-1.35-.1-2.94,1.34-4.1,3.87,21.87-14.01,45.98-37.37,50.67-2.39,1.55-5.15,1.95-7.87,2.46-4.22,1.54-8.6,2.32-13.09,2.54-.34,.02-.68,.04-1.01,.06-7.65,1.65-15.43,1.89-23.2,1.87-9.41-.03-18.85,.58-28.24-.71-1.88,1.57-3.68-.18-5.52-.15-6.51,1.63-7.86,3.84-6.56,10.3,5.67,28.2,29.16,37.49,50.7,36.35,4.29-.23,8.54-1,12.82-1.52,2.84-1.23,5.78-2.1,8.86-2.43,4.33-1.64,8.65-3.28,12.97-4.92l-.04,.03c1.74-.85,3.48-1.7,5.22-2.55,.76-.71,1.48-1.52,2.69-1.35,.9-.93,1.89-1.72,3.29-1.68,2.15-1.55,3.9-3.74,6.68-4.32,3.75-2.98,7.5-5.95,11.25-8.93,.61-1.76,2.3-2.23,3.68-3.08,.78-1.34,1.83-2.42,3.21-3.17,.04-.79,.04-1.61,1.14-1.68,6.93-7.48,12.26-16.04,16.95-25.04,0-1.93,1.03-3.44,2.07-4.94,.97-3.03,1.93-6.07,2.9-9.1-.15-.33-.1-.62,.15-.87,.58-3.14,1.16-6.27,1.75-9.41,.1-1.2,.2-2.41,.3-3.61,0-4.65,.01-9.3,.02-13.95-.09-1.51-.19-3.02-.28-4.53Zm-23.35,.35c-1.51-.94-1.22-2.29-1.12-4.29,1.33,1.58,2.04,2.63,1.12,4.29Z"/>
      <path class="cls-149" d="M520.53,115.07c1.64-.47,3.29-.94,4.93-1.41,2.85-.72,5.72-1.38,8.54-2.17,7.23-2.02,7.22-2.05,7.6,5.28,0,16.32,0,32.65,0,48.97v5.48c4.24-4.56,8.68-7.38,12.95-10.41,.62-.4,1.25-.79,1.87-1.19,1.98,.11,3.62-.81,5.24-1.76,2.92-.44,5.83-.88,8.75-1.31,2.65,0,5.3,.01,7.95,.02,1.21,.1,2.43,.19,3.64,.29,5.49,1.53,10.76,3.53,15.22,7.24,.78,.87,1.56,1.74,2.33,2.6,1.23,2.09,2.47,4.17,3.7,6.26-.16,2.15,1.06,3.93,1.61,5.89,.47,2.71,.94,5.43,1.4,8.14,.01,22.84,.03,45.69,.04,68.53-7.57,1.33-15.22,.09-22.81,.66-3.54,.27-4.39-.91-4.36-4.38,.17-20.77,.17-41.54,.02-62.31-.04-5,.38-10.25-2.78-14.73-.32-.68-.64-1.36-.96-2.03,.34-1.17-.52-1.87-1.13-2.57-4.57-5.31-10.61-5.73-16.78-4.38-6.72,1.47-12.43,4.83-16.05,11.01-.13,.22,.08,.64,.13,.96,0,24.98,0,49.95,0,74.93,.19,2.66-.83,3.67-3.69,3.54-5.98-.26-12.01-.46-17.96,.01-4.68,.37-5.62-1.19-5.61-5.65,.13-44.27,.02-88.53-.03-132.8,1.04-.66,2.09-1.32,3.13-1.98,1.13,.19,2.2,.13,3.07-.73Z"/>
      <path class="cls-149" d="M8.06,148.27l.19-.23s-.16-.26-.16-.26c.22-2.35,.43-4.7,.65-7.06,.83-8.68,2.3-17.26,4.27-25.75,.9-.85,.98-1.98,1.08-3.1,.38-1.01,.75-2.01,1.13-3.02,.83-1.71,1.66-3.42,2.49-5.12,.44-.91,.88-1.83,1.32-2.74,1.69-1.81,3.28-3.69,3.92-6.17,3.7-3.32,7.39-6.63,11.09-9.95,1.76-.92,3.5-1.87,5.28-2.76,5.6-2.81,5.75-2.71,5.75,3.63,0,41.45,0,82.9,.02,124.35,0,2.96,.23,5.93,.36,8.89,.05,.29,.19,.53,.43,.71,.22,19.36,7.67,34.53,25.33,43.8-1.87-.47-1.81,2.89-3.35,2.04-3.75-2.05-7.25,.28-10.88,.21-12.26-.26-24.52-.12-36.78-.07-1.76,0-3.67-.59-5.24,.81-.35,0-.69,0-1.04,0-2.59-.69-3.82-2.81-5.11-4.86,0-.32,0-.63,0-.95,1.81-1.38,1.11-3.36,1.11-5.09,.04-33.91,.04-67.82,0-101.73,0-1.72,.76-3.72-1.13-5.06-.25-.16-.48-.34-.71-.53Z"/>
      <path class="cls-149" d="M501.48,149.73c-.33,.04-.66,.07-.99,.1-5.4,.92-10.27,3.19-15.01,5.81-.37,.37-.74,.73-1.11,1.09,.05,1.21-.9,1.64-1.7,2.18-.71,1.09-1.58,2.12-2.11,3.3-1.1,2.49-2.4,2.34-4.51,1.04-2.79-1.71-5.86-2.96-8.8-4.41-4.59-.76-9.17-1.53-13.75-2.3-3.32,.02-6.64,.04-9.96,.06-2.65,.39-5.3,.78-7.95,1.17-7.14,2.38-14.01,5.27-19.83,10.21-3.25,3.59-5.95,7.56-8.13,11.88-1.45,1.37-.41,3.36-1.24,4.88-.01,3.98-.02,7.96-.03,11.95,.89,1.77-.63,4.13,1.36,5.65,2.2,3.45,4.41,6.9,6.61,10.36,.4,.4,.8,.81,1.2,1.21,3.09,2.04,6.18,4.08,9.46,6.25-4.79,3.03-9.31,5.97-13.26,9.68-1.65,2.59-3.07,5.3-4.01,8.25-.93,3.86,.27,7.36,1.79,10.81,2.31,2.75,5.16,4.85,8.22,6.68,.99,1.26,2.49,.96,3.8,1.2,8.01,.68,16.02,1.37,24.02,2.05,9.61,.42,19.29,.2,28.65,2.84,12.16,3.44,15.13,14.65,6.29,23.74-5.03,5.18-11.55,7.69-18.45,9.17-8.82,1.9-17.69,2.8-26.7,1.13-15.18-2.81-22.68-14.14-19.2-29.18,.45-1.92,.8-3.86,1.2-5.79l-.4,.05-.39-.13c-.3,.09-.6,.18-.9,.27-2.32,.75-4.59,1.87-6.97,2.18-5.26,.68-8.07,3.52-8.84,8.63-.91,3.3-.76,6.5,.87,9.57,.58,1.11,1.17,2.23,1.76,3.34,.44,.63,.88,1.26,1.32,1.89,3.69,3.82,8.22,6.38,12.9,8.71,2.28,1.93,5.27,1.62,7.87,2.5,3.14,.59,6.29,1.17,9.43,1.76,5.85,.05,11.7,.11,17.54,.16,4.32-.64,8.65-1.29,12.97-1.94l.42-.24,.47,.08c2.26-1.06,4.53-2.01,7.1-1.83,1.01-.18,1.45-1.57,2.69-1.25,1.11-.52,2.22-1.04,3.32-1.56,.98-.45,1.96-.89,2.94-1.33,5.6-3.66,10.95-7.61,15-13.07,.38-.62,.76-1.25,1.15-1.88,.5-1.05,.99-2.1,1.49-3.16,.53-1.95,1.06-3.91,1.59-5.86,.22-4.71,.09-9.39-1.17-13.98-.75-1.23-2.2-2.08-2.1-3.79-4.5-5.35-10.65-7.94-17.03-10.14-.63-.08-1.26-.16-1.89-.25-4.76-.55-9.52-1.11-14.28-1.67-3.24-.12-6.47-.24-9.71-.37-2.19,.09-4.4,.37-6.48-.67-3.18,.55-6.33-.09-9.49-.25-2.52,0-5.06,.3-7.48-.75l-.25,.19-.25-.19c-3.96,.09-7.67-.99-8.57-5.16-.85-3.96,2.34-6.2,5.37-8.14,1.07-.69,2.07-.92,3.28-.51,11.2,3.8,22.52,3.15,33.88,.84l.4-.23,.46,.07c1.4-.55,2.79-1.11,4.19-1.66,2.28-1.11,4.56-2.22,6.85-3.32,1-.71,2.01-1.42,3.02-2.13,.34-.29,.67-.57,1-.86,5.25-4.62,8.68-10.43,10.94-16.98,.09-.66,.18-1.32,.27-1.99,.01-3.31,.02-6.63,.04-9.95-.11-.87-.21-1.75-.31-2.62-1.87-4.93-3.74-9.9-7.6-13.66-2.41-2.36-.71-2.93,1.23-3.37,5.75-1.29,11.08,.5,16.38,2.38,1.49-3.42,.3-7.34,2.03-10.71,.07-1.9,.04-3.82,.25-5.7,.19-1.75-.74-2.21-2.17-2.33Zm-37.45,61.21c-2.28,6.43-7.04,10.46-14.19,10.7-7.12,.24-11.89-3.46-14.99-9.6-3.46-6.86-4.1-14.27-4.18-20.63,.03-7.67,.56-14.11,2.85-20.26,2.43-6.53,6.62-11.1,14.07-11.53,7.2-.41,12.84,2.99,15.86,10.48,5.44,13.46,5.42,27.23,.58,40.84Z"/>
      <path class="cls-149" d="M295.62,235.37c-.87,.81-1.74,1.63-2.62,2.44-3.64,3.94-8.25,6.2-13.32,7.68-.33,.06-.66,.13-.99,.19-4.93,1.83-9.93,2.68-15.11,1.06l.07,.05c-1.75,.03-3.51,.13-4.97-1.12-.78,.08-1.58,.17-2.1-.62-4.05-1.47-7.33-3.97-9.97-7.33-1.97-1.56-3.49-3.41-3.91-5.98-2.21-3.01-3.26-6.45-3.89-10.06-1.62-1.72-1.05-3.86-1.13-5.88-1.72-3.91-.79-8.14-1.45-12.18-.33-1.95,.94-2.5,2.74-2.46,12.7,.26,25.41-.47,38.1,.39,5.12-.11,10.24-.1,15.35-.36,3.39-.17,6.94,1.08,10.15-.98-.26-3.49-.52-6.98-.78-10.48-.03-.34-.06-.68-.09-1.02-.67-1.24-1.06-2.54-.91-3.97-1.16-1.12-1.3-2.52-1.14-4.01-1.81-3.29-3.62-6.57-5.44-9.86-.21-.29-.43-.58-.65-.87-1.32-1.39-2.65-2.79-3.96-4.17-3.1-1.98-6.2-3.96-9.3-5.93-.94-.21-2.08,.23-2.74-.86-.98-.36-1.97-.72-2.95-1.08-3.31-.46-6.62-.93-9.93-1.39-2.98,0-5.97,0-8.95,.01-1.52,.09-3.03,.18-4.54,.28-3.49,.92-6.97,1.83-10.46,2.75-.23,.28-.51,.35-.84,.21-2.65,1.41-5.2,3.04-8.16,3.76-1.09,.71-2.17,1.42-3.26,2.12-3.59,3.61-7.18,7.21-10.76,10.82-.65,1.97-2.98,2.92-3.15,5.18-.55,1.16-1.09,2.31-1.63,3.47,.12,.27,.04,.46-.24,.55-.96,2.74-1.91,5.48-2.86,8.22,.16,.3,.11,.56-.16,.78-.58,4.68-1.16,9.36-1.75,14.04l.19,.29-.22,.28c.56,4.44,1.12,8.89,1.68,13.34,.08,.6,.17,1.19,.26,1.79,1.55,3.75,3.1,7.51,4.65,11.26,.42,.77,.84,1.53,1.25,2.3,2.74,3.14,5.47,6.28,8.2,9.42,1.82,1.41,3.64,2.82,5.47,4.23,.45,1.03,1.55,.72,2.31,1.12l3.36,1.71c1.61,1.43,3.5,2.16,5.63,2.28,3.5,.08,6.88,.89,10.25,1.76,1.25,.06,2.5,.12,3.76,.18,1.99-.04,3.99-.07,5.99-.1l.31-.23,.36,.17c6.23-1.18,12.42-2.49,18.25-5.07,2.3-1.3,4.61-2.59,6.91-3.88,2.7-2.34,5.4-4.68,8.1-7.02,.28-.34,.56-.67,.84-1,1.91-2.37,3.82-4.73,5.73-7.1,.15-.6,.3-1.19,.45-1.79-3.51-2.51-3.71,2.48-6.03,2.67Zm-59.13-39.52c.68-10.25,2.59-20.11,8.77-28.59,7.99-10.93,21.41-10.19,28.17,1.5,4.75,8.21,5.31,17.29,5.09,26.51-.06,2.49-1.33,3-3.51,2.97-5.97-.09-11.95-.03-17.93-.03v.02c-5.82,0-11.63,.02-17.44,0-1.57-.01-3.34,.49-3.15-2.37Z"/>
      <path class="cls-149" d="M651.17,217.14c.1,.86,.21,1.71,.31,2.57,.55,4.24,1.77,8.26,3.94,11.97,2.33,8.06,8.55,14.1,11.25,22.04-3.09-2.4-6.19-4.8-9.28-7.19-.48-.82-1-1.59-2.1-1.62l-1.97-1.23c-1.4-2.34-3.67-3.69-5.86-5.13,0,0,.03,.02,.03,.02-.72-1.32-1.83-2.22-3.15-2.89h0c-3.97-4.4-7.93-8.79-11.9-13.19-1.71-2.94-4.21-5.41-5.21-8.77-1.25-4.43-2.5-8.85-3.75-13.28-1.05-1.2-.67-2.46-.18-3.74,.34-2.66,.68-5.33,1.02-7.99,.28-.15,.34-.36,.16-.62,1.08-2.74,2.48-5.37,2.8-8.36,.38-.61,.76-1.23,1.14-1.84,1.29-1.53,2.22-3.25,2.79-5.16,.27-.21,.35-.48,.23-.8,1.66-2.49,2.81-5.16,2.96-8.19l.25-.26s-.14-.33-.14-.33c1.98-4.95,.48-9.52-2.09-14.67,7.03,2.15,12.91,4.6,15.32,11.47,2.18,6.23,0,12.4-1.02,18.73,5.31-5.97,11.61-10.06,18.78-12.86,1.77,.3,3.22-.73,4.82-1.14,2.2,.03,4.42,.25,6.47-.82,1.82,.57,3.65,.48,5.47,.04,2.93,1.01,5.98,.82,9.01,.88,0,0-.03,0-.03,0,1.56,1,3.3,.95,5.04,.87l1.01,.13c11.32,2.93,22.64,5.85,33.96,8.78,2.67,.31,5.33,.62,8,.94l4.77,.38c4.05,1.26,8.15,.64,12.26,.5,7.6-.25,14.16-3.63,20.89-6.56,.34,1.88-.93,3.15-1.85,4.46-6.09,8.65-14.25,14.17-24.63,16.51-11.15,2.51-21.8-.75-32.56-2.57-13.89-2.35-27.55-6.34-41.82-5.93-6.39,.18-12.59,1.17-17.18,6.36-.94,.37-1.62,.98-1.83,2.02-1.89,1.62-2.82,3.82-3.67,6.06-1.22,1.06-1.52,2.44-1.36,3.97-1.67,3.5-2.09,7.19-1.76,11.01v1.01c-.11,1.52-.27,3.06,.66,4.43Z"/>
      <path class="cls-149" d="M340.07,109.93l3.43-.09c.04,21.48,.12,42.95,.11,64.43-.01,26.14-.1,52.28-.16,78.41-1.15,1.69-2.75,2.06-4.73,2.02-5.15-.12-10.34-.38-15.46,.06-4.84,.41-5.72-1.55-5.71-5.94,.15-41.76,.1-83.51,.06-125.27,0-1.92,.69-4.02-.84-5.74-.02-.33-.03-.66-.05-.99,0,0-.05,.04-.05,.04,5.75-1.34,11.46-2.85,16.95-5.06,0,0,0,0,0,0,2.3-.09,4.44-.73,6.44-1.86Z"/>
      <path class="cls-149" d="M363.99,161.87c.26,.17,.46,.12,.62-.15,7.96-1.74,15.93-3.49,23.89-5.23,.03,30.09,.02,60.18,.13,90.27,.01,3.25-.39,6.26-2.06,9.06-6.12,.1-12.25-.03-18.34,.38-3.93,.26-4.89-.98-4.87-4.88,.18-28.19,.09-56.38,.11-84.56,0-1.64-.29-3.33,.53-4.89Z"/>
      <path class="cls-32" d="M657.39,246.52c3.09,2.4,6.19,4.8,9.28,7.19-2.7-7.94-8.93-13.98-11.25-22.04,.84-.03,1.56-.26,1.96-1.09,3.38,3.45,3.47,8.77,6.9,12.19,.52,2.52,3.08,3.62,4.08,5.81,1.58,2.4,3.52,4.43,6.05,5.84,1.68,1.79,3.69,3.1,6,3.93,1.78,2.19,4.77,1.85,6.9,3.31,.33,.63,.67,1.26,1,1.89-1.56,.41-2.84-1.84-4.82-.31,1.39,.82,2.64,1.56,3.89,2.3,3.4,2.44,6.94,4.61,10.98,5.84,3.14,1.51,6.42,2.32,9.92,2.15,2.65,.09,5.3,.18,7.95,.28-2.71,1.81-6.5-.19-8.95,2.54-.96,.5-4.4-.3-1.27,2.36,2.77,2.35,5.44,4.9,9.05,5.99,5.4,3.68,11.2,3.51,17.17,1.8-.45,1.4-2.93,1.36-2.49,3.24,.28,1.19,1.6,.76,2.51,.87,.82,.02,1.57,.2,2,1-3.03-.6-5.36,1.45-7.43,2.83-1.61,1.07-4.02-2.38-4.47,1.18,.02-1.98,.4-4.16-2.11-5.03-1.3-.46-2.65-.41-3.75,.59-1.92,1.73-1.15,3.58-.2,5.43-.85,.03-1.6,.24-2.04,1.06-.27-.12-.55-.23-.83-.32-.4-2.55-1.49-4.79-3.13-6.77-.7-2.34-2.05-4.28-3.67-6.06-3.26-5.05-7.18-9.36-12.71-11.88,2.36,4.68,5.54,8.75,6.3,13.98-1.56-.64-2.94-2.21-4.88-1-1.19-2.93-.77-6.43-3.12-8.96-.37-1.18-.83-2.31-1.93-3.02-2.54-4.01-5.93-6.98-10.38-8.76,2.58,3.62,3,7.7,3.46,11.76-.3,.68-.6,1.36-.91,2.04-.57-.08-1.15-.17-1.72-.25,.96,2.75-2.02,3.97-2.42,6.19l-1-1c-.36-.34-.71-.69-1.07-1.03,2.74-3.17,5.23-6.41,3.07-10.96-.88-4.77-4.52-7.39-7.93-10.19-2.81-3.29-6.75-5.17-9.94-7.99-1.6-1.41-1.84-.01-2.06,1.19-.76-2.69-3.73-4.83-1.98-8.13Z"/>
      <path class="cls-36" d="M662.47,199c2.99-9.38,6.78-12.22,16.78-12.08,6.14,.09,12.23,.83,18.12,2.75-.4,.66-.69,1.45-1.23,1.96-7.25,6.91-14.54,13.78-21.82,20.66-.63-.28-1.27-.55-1.9-.83-3.38-1.75-6.24-4.17-8.92-6.84-1.78-1.61-.42-3.79-1.04-5.62Z"/>
      <path class="cls-27" d="M214.84,75.85c-.16,.21-.23,.45-.2,.72-3.46,4.65-6.47,9.78-13.21,12.21,1.84-6.98,3.49-13.25,5.17-19.62-2.24-.38-3.24,1.41-4.82,1.75,.05-.87-.84-1.82-1.04-2.11-1.76-2.5,3.11-3.59,1.29-5.02-2.82-2.23-1.12-4.69-1.27-7.07-.1-1.56,.5-3.51-1.98-3.85,.05-.23,.08-.46,.11-.69,4.34-1.47,7.71-5.19,12.57-5.47,.98,.87,1.96,1.75,2.95,2.62-2.87,1.52-.66,4.96-2.57,6.84-1.5,1.81-4.22,2.46-5.01,4.96,1.06,1.04,1.94,.35,2.85,.17,5.75-1.17,7.53,.44,6.8,6.39-.34,2.75-1.07,5.45-1.62,8.17Z"/>
      <path class="cls-84" d="M87.23,37.01c1.86,3.18,5.23,.88,7.63,2.09,0,10.7,.37,21.42-.24,32.08-.17,3.02,2.65,5.27,.74,8.89-1.18,2.23,3.31-.09,4.46,1.68-1.45,.98-2.89,1.96-4.34,2.94-.28-.08-.48,0-.63,.26-2.35,.86-4.7,1.72-7.05,2.59-1.61-1.39-1.04-3.14-1.03-4.93,.02-2.69,1-5.77-1.91-7.79-.14-1.04,2.74-1.87,.38-2.98-2.73-1.28-1.94-1.71,.29-2.21,1.24-.28,1.37-1.38,1.3-2.38-.72-9.45,1.59-19.03-1.25-28.38-.43-1.41,.66-1.63,1.65-1.86Z"/>
      <path class="cls-144" d="M550.42,68.85c.18,.38,.36,.77,.55,1.15,3,9.11,2.69,17.59-4.7,24.73-.6,.42-1.2,.84-1.8,1.27-3.37,1.19-6.74,2.38-10.11,3.57-5.64,.01-11.28,.02-16.92,.03-2.14-12.53-.39-25.12-1.1-38.66,1.59,2.45,1.07,4.12,1.08,5.68,.07,7.46,0,14.93,.05,22.39,.01,1.74-.5,3.85,2.01,4.45,.94,.23,2.51-1.23,2.73,.78,.22,1.97-2.03,1.11-3.86,3.14,3.18-1.91,3.69,2.03,6.05,.61,7.83,1.72,12.83,.03,15.92-5.38,5.45-9.53,3.2-23.51-4.96-30.74,.36-.39,.72-.79,1.08-1.18,.99,.01,1.99,.02,2.98,.03,.33,.08,.66,.16,.98,.23,1.01,.52,2.02,1.05,3.03,1.57,.33,.12,.65,.24,.98,.35l6,5.97Z"/>
      <path class="cls-158" d="M588.39,99.87c-2.24-.78-1.51-2.77-1.52-4.25-.06-10.76,.25-21.53-.08-32.29-.13-4.2,2.16-3.5,4.6-3.53,2.54-.03,4.76-.46,4.63,3.61-.32,10.09,.07,20.21-.2,30.3-.1,3.73,.78,5.29,4.59,4.26,2.43,1.65,5.17,.45,7.73,.82,.08,.3,.08,.6,0,.89-6.58,.06-13.17,.12-19.75,.18Z"/>
      <path class="cls-115" d="M45.45,218.99c-.12-2.96-.35-5.93-.36-8.89-.02-41.45-.01-82.9-.02-124.35,0-6.34-.16-6.44-5.75-3.63-1.77,.89-3.52,1.84-5.28,2.76-2.23-2.17-.74-3.58,1.07-4.79,3.43-2.27,5.29-5.92,7.46-9.12,3.66-5.4,6.44-11.42,11.6-15.67,.96-.79,1.29-1.34,.73-2.39,0,0-.02-.06-.02-.06,.67,.03,1.35,.06,2.02,.09,1.46,1.55,3.33,.71,5.03,.88h.47s.47,.03,.47,.03c-.38,.29-.76,.82-1.16,.84-5.66,.17-5.97,5.87-9.04,8.7,.44,.17,.87,.34,1.31,.52-.9,2.52-4.97,1.34-5.34,4.59,2.06,.73,4.41-.04,6.25,1.39l-6.69,4.01c-.39,1.89-.96,3.7-2.15,5.26-.42,1.88-.53,3.77-.13,5.67-.08,9.81-.22,19.61-.22,29.42-.02,33.27,0,66.53,0,99.8,0,1.65-.17,3.3-.26,4.95Z"/>
      <path class="cls-148" d="M522.47,321.67c-.34,0-.68-.02-1.02-.03-5.43,.79-6.37-1.89-6.11-6.76,.44-8.27,.58-16.6-.03-24.85-.45-6.02,1.01-9.62,7.33-10.33,.2,.15,.43,.23,.68,.24-.17,1.59,1.16,1.72,2.13,2.22-.02,.3-.03,.61-.04,.91-3.45,5.42-1.4,11.46-1.95,17.21-.28,2.99,.57,5.55,2.87,7.56-.35,.29-.69,.59-1.04,.88-2.86-.47-1.62,1.75-1.81,2.9-.56,3.32,1.04,6.87-1.02,10.05Z"/>
      <path class="cls-137" d="M598.33,277.64c.05-2.92,.09-5.84,.14-8.76,.92-.37,1.85-.72,2.76-1.11,4-1.73,5.62-1.11,5.44,3.9-.41,11.1-.24,22.23-.06,33.34,.05,3.27-.55,5.09-4.26,4.48-.96-.16-1.98,.07-2.97,.12-1.79-4.77-.39-9.72-.82-14.57-.16-1.8-.17-3.61-.24-5.42,0-3.99,0-7.99,0-11.98Z"/>
      <path class="cls-31" d="M355.61,121.47c-2.17-1.1-6.2,.5-5.41-5.19-2.17,2.68-1.54,4.72-1.54,6.56-.04,41.49-.01,82.98-.09,124.47,0,1.86,1.34,4.54-1.94,5.35,0-33.1-.1-66.21,.05-99.31,.06-13.52-.94-27.08,.95-40.56,.22-1.15-.53-2.55,.94-3.47,1.68,.59,.58,3.71,3.09,3.5-.27,6.6-.27,6.54,5.96,5.81,1.6-.19,3.26,.16,4.89,.26,.36,.34,.73,.67,1.09,1.01,1.47,1.17,3.25,1.51,5.01,1.88,.98,.27,1.02,1.05,1.03,1.86-2.13,.43-3.77-.95-5.38-1.83-2.95-1.6-5.69-2.1-8.66-.34Z"/>
      <path class="cls-144" d="M536.44,60.68c-.36,.39-.72,.79-1.08,1.18-2.11-.34-4.23-.64-6.34-1.03-3.97-.73-4.93,.98-4.82,4.81,.3,10.77,.16,21.56,.2,32.34-2.36,1.42-2.87-2.52-6.05-.61,1.84-2.03,4.08-1.16,3.86-3.14-.22-2.01-1.79-.55-2.73-.78-2.51-.61-2-2.72-2.01-4.45-.04-7.46,.02-14.93-.05-22.39-.01-1.56,.52-3.22-1.08-5.68,.7,13.55-1.05,26.13,1.1,38.66-.54,1.66-1.31,1.1-2.11,.21-.01-12.11-.05-24.23,.01-36.34,0-1.38-1.04-3.78,1.85-3.62,6.41,.37,12.9-1.01,19.24,.82Z"/>
      <path class="cls-148" d="M656.23,99.55c-.3,.11-.61,.22-.91,.33-2.99,.51-5.98,.37-8.96-.15l.04,.02c-1-1.32-1.99-2.64-2.99-3.96-.07-.33-.14-.66-.21-.99,0-7.57-.02-15.14-.03-22.71,.05-.75,.1-1.51,.15-2.26,2.5-3.28,5-6.56,7.51-9.83,0,0-.07-.04-.07-.04,1.47,3.11,.38,6.42,.75,9.62,0,.84,0,1.67-.01,2.51,0,6.42,0,12.84-.01,19.26,0,3.28,0,6.33,4.72,6.36,2.07,.02,.23,1.2,0,1.85Z"/>
      <path class="cls-137" d="M583.31,98.77c-.63,.36-1.27,.71-1.91,1.07-2.32,.03-4.65,.07-6.97,.1-.59-.59-1.79-.06-2.12-1.14,.18-1.43-.48-1.96-1.86-1.71,.01-.39,.01-.77,.02-1.16,1.61-3.81,1.95-7.61-.05-11.41-.01-.18-.01-.37-.01-.56,3.16-7.53,.1-12.21-7.84-12.03-.38-.35-.75-.71-1.13-1.06,.38-.33,.76-.65,1.14-.97,3.92-.43,7.82-.56,11.71,.3,4.52,2.19,5.64,6.18,5.66,10.74,.02,3.98,.2,7.98-.08,11.94-.2,2.94,.65,4.88,3.44,5.89Z"/>
      <path class="cls-146" d="M616.34,71.77s.05,.01,.07,.01c-.01,.03,0,.06,0,.09l-.07-.1Z"/>
      <path class="cls-146" d="M618.54,69.97s-.01,.03-.02,.04c-.03,.01-.06,.01-.09,.02l.11-.06Z"/>
      <path class="cls-146" d="M638.33,97.62c-.84,3.03-4.95,3.87-8.81,1.81-.66-.93-.88-2.21-2.16-2.63-.29-.26-.58-.52-.87-.79,2.98-3.22,.53-7.27,1.66-10.78,.04-2.82,1.01-5.71-.6-8.41-1.56-6.47-6.91-4.51-11.14-5.04-.11-1.51,1.81-.72,2.11-1.77,1.8-.36,3.75,.08,5.38-1.07l-.06-.04c2.14,.42,4.28,.84,6.42,1.25,.41,.83,1.17,.76,1.91,.76,3.09,2.73,4.14,6.21,4.04,10.24-.11,4.32-.09,8.65,.04,12.96,.04,1.4-.78,3.65,2.08,3.51Z"/>
      <path class="cls-73" d="M712.29,192.64c6.09,.98,12.17,1.96,18.26,2.95-2.97-.04-5.28,.83-7.27,3.4-2.54,3.28-5.31,6.54-10,8.1,1.52,.53,2.27,.79,2.9,1.01-1.28,2-4.93,.09-4.79,3.67-.13,.27-.27,.53-.41,.79,0,0-.38-.02-.38-.02l-.32,.22c-4.35,.14-8.58,1.75-12.99,1.08,.19-2.84,2.44-4.2,4.35-5.64,1.23-.93,2.81-1.02,3.7-2.83,2.39-4.9,6.6-7.8,12.86-9.58h-6.94c.35-1.24,3.48-1.3,1.04-3.14Z"/>
      <path class="cls-86" d="M95.78,31.59c-2.29,1.46-4.58,2.92-6.87,4.39-3.2-1.24-2-4.02-2.01-6.22-.08-13.02-.04-13.02-13.01-12.82-1.03-.1-2.15,.16-2.95-.8,4.54-.86,9.33,1.19,13.75-1.16,2.95-2.02,1.51-5.25,2.17-7.9,1-.04,2-.09,3-.13,.21,.22,.44,.25,.7,.09,1.33,.95,2.83,.88,4.35,.77,0,0-.14,.38-.14,.38,.45,1.55-2.4,1.38-1.66,2.54,2.96,4.65,1.33,9.75,1.73,14.63,.17,2.1-.37,4.3,.95,6.23Z"/>
      <path class="cls-53" d="M733.27,258.61c-2.91-2.74-5.98-2.47-9.06-.39-2.04,1.39-3.98,2.93-5.96,4.41-.02,.65-.07,1.26-.16,1.81-.03,.18-.07,.36-.11,.53-.04,.17-.08,.34-.14,.5-.05,.16-.11,.31-.17,.46-.13,.3-.28,.56-.47,.8-.09,.13-.19,.25-.3,.35-.09,.09-.19,.18-.3,.26-.08,.07-.17,.13-.26,.18-.08,.06-.17,.11-.26,.15-.14,.08-.29,.15-.46,.21-.08,.04-.16,.07-.25,.08-.01,.01-.02,.02-.03,.01-.07,.03-.14,.05-.21,.06,0,0-.02,0-.03,0-.09,.03-.18,.05-.28,.06-.14,.03-.29,.05-.45,.07-.12,.02-.25,.03-.39,.04-.45,.03-.96,.02-1.51-.02-2.94-.23-1.65,4.38-4.18,5.35,2.65,.09,5.3,.18,7.95,.27,6.06-1.28,12.21-2.38,16.66-7.33,.57-2.6,2-5.16,.37-7.87Zm-12.04,5.84c-.31,.13-.84-.25-1.28-.4,.39-.47,.77-.94,1.21-1.48,.61,.29,1.02,.48,1.43,.67-.44,.42-.83,.98-1.36,1.21Z"/>
      <path class="cls-145" d="M525.41,283.08c.01-.3,.03-.61,.04-.91,3.45-1.99,7.14-2.38,10.99-1.66,.21,.25,.48,.32,.79,.2,1.38,1.03,2.75,2.07,4.13,3.1,.23,.33,.45,.65,.68,.98,4,7.65,3.77,14.91-1.95,21.68-1.58,.95-3.16,1.9-4.74,2.86-.93,.12-1.85,.25-2.78,.37-.68-.3-1.36-.61-2.04-.91,6.77-3.64,5.79-10.23,5.63-16.1-.25-8.59-2.48-10.26-10.75-9.6Z"/>
      <path class="cls-142" d="M579.4,309.68c-2.06-.4-1.85-1.98-1.85-3.48,0-7.14,.17-14.28-.05-21.41-.17-5.45,5.01-2.97,6.99-5.12,.25,.12,.51,.19,.78,.21,.08,2.14,.16,4.28,.25,6.43-.01,1.19-.02,2.38-.03,3.57-.07,6.55,.49,13.11-.31,19.66-1.93,.05-3.86,.1-5.78,.14Z"/>
      <path class="cls-19" d="M164.87,45.88c.64-.43,1.27-.86,1.91-1.28,2.94-.92,5.93-1.35,9-.82,.13,4.63-3.3,9.68,1.62,13.78,.32,.27,.62,.89-.35,1.43-2.08,1.16-2.3,2.89-2.84,4.42-1.18,3.3,1.05,5.71,1.52,8.55-2.28-.53-4.3-1.6-6.13-3.04-.66-2.35-.66-2.32-3.35-3.1-.51-.15-2.23,.52-1.3-.94,3.61-5.68,0-11.77,1.25-17.55,.24-1.13-.32-1.48-1.32-1.45Z"/>
      <path class="cls-130" d="M688.36,261.42c-.35,.08-.7,.17-1.05,.25-2.13-1.46-5.12-1.13-6.9-3.31,1.5-.33,.96-2.85,4.3-1.46,.98-.61,.14-1.15-.91-1.15-1.04,0-.15,.66-.08,.81,.36,.72-.32,2.27,1.41,1.94,.47-.09,.9-.33-.43-1.6-.24-2.87,2.08-1.9,3.37-3.5,3.43-4.27,6.8-8.6,11.44-11.73,.6-.41,.54-1.79,.78-2.73,1.34-.41,2.67-.82,4.01-1.23,.34-.05,.68-.09,1.02-.14,1.65-.02,3.31-.04,4.96-.05,.44,.94,2.34,1.9-.15,2.76-.64,.22-1.69,.03-1.86,1.08-.37,2.24-.35,2.26-1.8,2.31-.98,.03-1.97,0-3.06,0,.12,1.25,2.82,2.01,.76,3.38-6.01,3.99-9.79,10.42-15.82,14.37Z"/>
      <path class="cls-95" d="M43.86,12.73c2.91,.98,5.89,1.42,8.96,1.33,3.11,.56,6.22,1.13,9.33,1.69-3.54-.66-6.34,1.34-9.22,2.6-.03,1.17,1.96-.15,1.71,1.75h-6.69c2.66,.56,5.35,.49,5.02,4.57-.23,2.85-.14,5.47-4.08,5.21-3.37,.12-6.56-1.59-9.98-1.02-.09-2.02-1.56-1.99-2.99-2q4.71-3.68,3.63-7.83c-.07-.27,.03-.78,.21-.88,2.52-1.28,.28-3.81,1.46-5.42h2.66Z"/>
      <path class="cls-24" d="M674.33,212.29c7.28-6.88,14.57-13.75,21.82-20.66,.54-.52,.83-1.3,1.23-1.96,.65,.09,1.31,.18,1.96,.27,.32,.59,.64,1.18,.95,1.77,.69,1.06,1.95,1.42,.67,3.51-3.3,5.37-8.21,9.1-12.43,13.51-1.51,1.57-2.49,2.89-2.24,5.01-3.76,.58-7.28-1.18-10.99-1.1-.33-.12-.65-.24-.98-.35Z"/>
      <path class="cls-13" d="M201.78,70.89c-2.8,2.65-6.16,3.92-9.99,4.01-.63-.98-2.02-2.55-1.79-2.84,2.82-3.55-.12-7.35,.66-10.98,.43-2.02-1.4-2.23-2.96-2.28,2.83-2.02,6.6-2.31,9.08-4.96,.66-.33,1.32-.67,1.98-1,2.49,.34,1.88,2.28,1.98,3.85,.15,2.38-1.55,4.83,1.27,7.07,1.82,1.44-3.05,2.52-1.29,5.02,.2,.29,1.09,1.23,1.04,2.11Z"/>
      <path class="cls-15" d="M227.7,65.83c-2.68-9.33-7.13-12.04-15.87-9.68,1.91-1.89-.31-5.32,2.57-6.84-.98-.87-1.96-1.75-2.95-2.62,2.62-1.64,5.53-.51,8.28-.86,.27,.2,.58,.27,.91,.22,4.83,1.88,8.2,5.2,9.98,10.1,.2,3-.28,5.93-.94,8.85-.3,1.3-.81,1.75-1.98,.84Z"/>
      <path class="cls-36" d="M164.87,45.88c1-.03,1.56,.32,1.32,1.45-1.24,5.78,2.37,11.87-1.25,17.55-.93,1.46,.79,.79,1.3,.94,2.69,.78,2.69,.75,3.35,3.1-.88-.1-1.76-.2-2.65-.3,0,0,0,.07,0,.07-1.08-1.32-2.58-1.67-4.17-1.82l-.31-.2s-.37,.03-.37,.03c-1.12-.6-2.25-1.21-3.37-1.81,1.34-2.57-2.96-1.47-2.23-3.21,1.66-3.95-2.16-8.91,2.31-12.34,.06-.05-1.38-.36-2.13-.51,2.07-.88,4.13-1.75,6.2-2.63,.66-.1,1.33-.2,1.99-.3Z"/>
      <path class="cls-77" d="M8.06,38.86c.2-2.63,.4-5.25,.6-7.88,.13,5.63,.25,11.26,.38,16.9,0,3.63,0,7.27,0,10.9,0,4.33,.02,8.67,.03,13,0,2.65,.01,5.31,.02,7.96,0,2.99,0,5.98,0,8.98,0,3.99,0,7.99,0,11.98,.28,4.9-1.33,10.03,1.49,15.19,1.16-1.32-.44-3.14,1.13-3.27,1.1-.09,1.11,1.41,1.3,2.36-1.97,8.49-3.45,17.07-4.27,25.76-.23-.67-.46-1.33-.69-2,0-3.3,0-6.6,.01-9.91,.81-3.03,.3-6.06,0-9.08-.78-8.3,.35-16.63-.05-24.89-.44-9.07,.36-18.14-.44-27.22-.3-3.42,.88-7.13,.44-10.76,0-2.35,.01-4.7,.02-7.05,.01-3.65,.02-7.3,.03-10.96Z"/>
      <path class="cls-135" d="M688.36,261.42c6.03-3.95,9.81-10.38,15.82-14.37,2.06-1.37-.64-2.13-.76-3.38,1.1,0,2.08,.02,3.06,0,1.45-.04,1.43-.06,1.8-2.31,.17-1.04,1.22-.85,1.86-1.08,2.49-.86,.58-1.82,.15-2.76,.32-.29,.63-.58,.95-.86,1.24,.72,2.52,1.27,4,1.04,.7,1.33,2.84,.97,3.2,2.7-1.53,2.41-4.31,.46-6.48,1.84,2.18,1.12,3.22,2.11,.55,3.81-3.18,2.04-5.47,5.26-8.24,7.62-3.36,2.86-5.38,7.32-9.91,8.81-2.15,.51-4.02-.54-5.98-1.06Z"/>
      <path class="cls-38" d="M46.06,79.15c1.19-1.56,1.76-3.37,2.15-5.26,0,0,6.69-4.01,6.69-4.01,6.97,.99,13.94,1.98,20.91,2.97,1.61,1.87,4.47-.05,6.02,1.98-.53,1.13-1.3,1.93-2.63,1.98l-8.25-.12s.01,.07,.01,.07c-3.11-.94-6.22-.96-9.33-.02-1.26,.08-2.51,.15-3.77,.23-4.09-.12-7.82,1.68-11.8,2.18Z"/>
      <path class="cls-62" d="M703.11,312.61c.08-1.33,.15-2.66,.23-3.98,1.25,.19,.31,2.62,2.02,2.09,.48-.15,.63-1.37,.92-2.1,2.4-1.93-.38-5.47,2.09-7.59,1.79,2.05,.06,4.56,1.49,6.5,1.22-3.48,2.38-6.82,3.55-10.16,.28,.09,.56,.2,.83,.32,.51,3.65,2.44,7.03,2.06,10.85q-.12,5.09-2.19,8.26v-8.14q-3.43,10.97-9.76,8.94c-.37-.99-.75-1.98-1.12-2.97-.04-.67-.09-1.34-.13-2.01Z"/>
      <path class="cls-103" d="M95.78,31.59c-1.32-1.93-.77-4.13-.95-6.23-.4-4.89,1.22-9.98-1.73-14.63-.74-1.16,2.12-.99,1.66-2.54,.62-.07,1.25-.15,1.88-.22,1.08,.35,2.16,.7,3.23,1.05,2.78,2.49,2.95,5.95,1.79,8.81-1.02,2.52,2.99,5.57-1.26,7.29,1.07,1.13,2.94,.99,3.42,2.62-2.68,1.29-5.36,2.57-8.04,3.86Z"/>
      <path class="cls-128" d="M138.74,35.9c-3.51-1.69-6.09-4.63-9.2-6.86,2.52-1.48-1.25-2.77-.13-4.21-3.95-3.05-3.47-6.77-1.63-10.71l1.03-.24c1.07,1.05,2.4,1.16,3.79,1.07,3.25,2.1,7.56,1.9,10.43,4.83-2.72,.81-4.76-2.18-7.76-1.53,2.85,5.73,.49,12.17,3.47,17.64Z"/>
      <path class="cls-169" d="M628.15,85.23c-3.96-1.12-6.98,.59-8.6,3.89-1.31,2.67-1.47,5.84,1.77,7.85,1,.59,2,1.18,3,1.77-.34,.3-.68,.61-1.01,.92-3.87,.15-8.12,2.67-11.26-1.8-2.01-3.38-1.54-6.74,.15-10.07,1.18-1.95,3.24-2.44,5.19-3.11,1.43-.27,2.91-.94,4.28-.75,5.98,.83,6.81-2.36,5.88-7.11,1.61,2.7,.64,5.59,.6,8.41Z"/>
      <path class="cls-93" d="M720.27,279.66c2.49-.14,4.99-.23,7.27-1.44,2.04-1.09,4.12-2.65,6.39-.66,2.24,1.97,1.82,4.44,.88,6.9-.22,.29-.44,.59-.66,.88-.64,.39-1.27,.79-1.91,1.18-5.97,1.71-11.77,1.87-17.17-1.8,2.63-.76,2.55-4.31,5.2-5.05Z"/>
      <path class="cls-31" d="M346.62,111.79c-1.72,1.65-.96,3.77-.96,5.67-.04,45.07-.03,90.13-.03,135.2-1.72-1.65-.96-3.77-.96-5.67-.05-45.73-.04-91.46-.04-137.19,1.78-.45,1.34,1.33,2,2Z"/>
      <path class="cls-48" d="M41.21,12.73c-1.18,1.61,1.06,4.14-1.46,5.42-.18,.09-.27,.61-.21,.88q1.07,4.15-3.63,7.83c-.76-.06-1.53-.11-2.29-.17-.21-1.63-1.99-1.65-2.77-2.69,.71-.61,1.41-1.22,2.12-1.83-4.01-2-.76-6.21-2.61-8.74-2.27-3.11,.21-2.52,1.86-2.7,1.23,.06,2.45,.13,3.68,.19,.16,.22,.35,.26,.58,.1,1.58,.57,3.15,1.14,4.73,1.71Z"/>
      <path class="cls-143" d="M567.24,99.6s.03-.03,.05-.04c.02,0,.03-.01,.05-.01l-.1,.05Z"/>
      <path class="cls-143" d="M568.34,98.64c-.35,.31-.71,.61-1.05,.92-2.94,.62-5.9,.62-8.86,.22-.97-.74-1.93-1.47-2.9-2.21-.39-.92-.78-1.84-1.18-2.76,.55-8.12,5.51-11.48,16.06-10.85,0,.19,0,.38,.01,.56-8.11,2.57-9.77,5.98-5.99,12.25,.78,1.72,2.94,.55,3.91,1.87Z"/>
      <path class="cls-138" d="M563.3,295.85c-3.58-2.25-6.05,.13-7.86,2.5-2.1,2.75-1.91,5.91,.94,8.44,1.01,.59,2.02,1.18,3.03,1.77-3.62,2.15-7.3,1.2-10.98,.19-.37-.38-.75-.76-1.13-1.14-2.1-7.52,.27-11.19,8.02-13.16,2.64-.67,5.68,.3,7.93-1.9,1.36,1.08-.18,2.2,.05,3.3Z"/>
      <path class="cls-17" d="M180.84,57.62c2.19,.94,4.47,1.38,6.85,1.19,1.56,.04,3.39,.26,2.96,2.28-.78,3.62,2.16,7.43-.66,10.98-.23,.29,1.15,1.86,1.79,2.84-3.34-.02-6.68-.05-10.01-.07,0,0-.32-.18-.32-.18,0,0-.37,.02-.37,.02-.11-.27-.23-.55-.36-.82,2.73-1.47,3.97-3.04,2.27-6.49-1.44-2.91,1.85-7.15-2.14-9.75Z"/>
      <path class="cls-140" d="M627.07,149.88c2.72,2.74,3.15,6.25,3.29,9.86-1.69,1.24-.3,3.56-1.72,4.9-1.15-2.1-1.96-4.45-4.28-5.67-1.73-1.4-3.45-2.8-5.18-4.19-1.21-2.34-4.08-1.43-5.94-2.53,1.06-2.12,3.13-2.17,4.37-3.38,.59-.09,1.18-.19,1.77-.28,1.65,.02,3.31,.03,4.96,.05,.82,.6,1.56,1.38,2.72,1.26Z"/>
      <path class="cls-126" d="M152.73,36.78c-2.93,.86-5.89,1.43-8.96,.93-.78-1.18-2.47-2.66-2.2-3.5,1.3-3.95,1.01-8.74,5.22-11.35l2.83,2.37c-.04,.27,.07,.47,.31,.6,1.04,3.63,4.94,6.53,2.77,10.97l.02-.02Z"/>
      <path class="cls-136" d="M355.61,121.47c2.96-1.76,5.71-1.26,8.66,.34,1.61,.87,3.24,2.26,5.37,1.83,1.2,.77,3.25,.1,3.68,2.18-1.33-.06-2.7-.36-3.78,.78-3.97,.11-6.99,3.31-10.98,3.36-1.16-.61-2.38-1.11-3.45-1.84-1.28-.88-3.37-1.42-3.2-3.26,.18-1.86,1.82-2.94,3.7-3.38Z"/>
      <path class="cls-37" d="M727.26,313.43c1.35-.59,2.66-1.47,4.07-1.71,2.5-.43,4.57,.62,5.89,2.84,1.19,2.01,1.3,4.1,.02,6.13-1.37,2.18-3.41,3.24-5.91,2.8-1.41-.25-2.72-1.12-4.07-1.7-1.41-2.79-1.48-5.58,0-8.36Z"/>
      <path class="cls-80" d="M73.84,91.73c-.67,.07-1.34,.15-2.01,.22-1.81-.1-3.61-.21-5.27,.75-1.4,0-2.8-.01-4.21-.02,1.69-3.46,5.59-4.75,7.69-7.81,.31-.26,.62-.53,.93-.79,1.95-1.46,3.9-2.92,5.85-4.38,1.62,2.58,5.68,4.62,1.81,8.43-.26,.26,.2,1.24,.32,1.89-1.7,.57-3.4,1.13-5.11,1.7Z"/>
      <path class="cls-147" d="M390.42,255.23c-1.18,.88-2.46,1.13-3.86,.59,1.67-2.8,2.07-5.81,2.06-9.06-.11-30.09-.1-60.18-.13-90.27,1.82-.96,1.2,1.12,1.91,1.53-.96,1.09-1.43,2.17,.1,3.19-.15,1.14-.44,2.27-.44,3.41-.03,29.36-.04,58.73-.02,88.09,0,.8,.28,1.6,.43,2.4l-.05,.13Z"/>
      <path class="cls-119" d="M32.22,10.72c-1.65,.18-4.12-.4-1.86,2.7,1.85,2.54-1.4,6.74,2.61,8.74-.71,.61-1.41,1.22-2.12,1.83-3.32-1.03-6.33-2.63-9.05-4.8,1.82-3.25-.24-7.68,3.17-10.45,.65,0,1.3-.01,1.95-.02,.57,.1,1.14,.2,1.71,.31,1.2,.57,2.4,1.13,3.59,1.7Z"/>
      <path class="cls-81" d="M84.69,14.97c-5.47-2.67-10.97-5.3-14.81-10.88,4.2-.8,7.37,1.98,10.99,1.65,.34,.02,.68,.03,1.02,.05,1.66,.43,3.31,.86,4.97,1.28-.66,2.65,.78,5.88-2.17,7.9Z"/>
      <path class="cls-67" d="M683.24,293.76c-1.93-.7-1.97-2.75-2.95-4.13-.01-.67-.03-1.34-.04-2.01,1.05-2.89,2.23-5.76,2.19-8.92,.3-.68,.6-1.36,.91-2.04,1.97,2.21,2.09,1.67,3.24,1.92,5.12,1.1,1.79-3.82,3.68-4.92,1.1,.71,1.56,1.84,1.93,3.02-3.05,5.66-8.12,10.27-8.97,17.09Z"/>
      <path class="cls-161" d="M370.62,139.77c-1.72,.52-3.45,1.01-5.16,1.57-2.48,.81-2.78-.74-2.85-2.57,.65-1.7,1.3-3.4,1.94-5.1,2.31-1.38,5.4-1.31,7.11-3.81,1.39-.72,2.7-1.68,4.41-1.52-.84,1.51-1.62,2.92-2.4,4.33-1.02,2.36-2.04,4.73-3.06,7.09Z"/>
      <path class="cls-151" d="M67.88,266.82c-17.64-.11-35.29-.22-52.93-.33,1.57-1.4,3.48-.8,5.24-.81,12.26-.05,24.53-.19,36.78,.07,3.63,.08,7.13-2.26,10.88-.21,1.55,.85,1.49-2.51,3.35-2.04,2.84,.74,5.68,1.48,8.52,2.23-.14,1.24-1.26,.74-1.9,1.08-2.32,0-4.63,.01-6.95,.02-1,0-2,0-3,0Z"/>
      <path class="cls-88" d="M668.35,248.59c-1-2.19-3.56-3.29-4.08-5.81-.41-4.58,4.38-3.06,6.07-5.17,.64,.03,1.29,.05,1.93,.08,.35,.33,.69,.66,1.04,.98,.93,1.67,3.15,1.38,4.59,3.05-3.39,2.16-8.46,1.95-9.56,6.87Z"/>
      <path class="cls-44" d="M704.36,317.59q6.32,2.03,9.76-8.94v8.14q2.07-3.17,2.19-8.26c.25,.17,.51,.32,.78,.45,0,2.19,.02,4.37,.03,6.56-.69,1.97-1.37,3.93-2.06,5.9,0,0,0,0,0,0-6.2,3.12-8.68,2.23-10.69-3.84Z"/>
      <path class="cls-60" d="M670.56,284.5c-1.75-1.11-4.3-.61-5.52-2.77,1.76-.39,3.8,.62,5.28-1.09,1.45-.04,3.75,0,3.48-1.65-.76-4.68,2.69-5.66,5.51-7.34,2.16,4.55-.33,7.79-3.07,10.96-1.75,.64-3.51,1.28-5.26,1.93l-.42-.02Z"/>
      <path class="cls-41" d="M363.53,132.69c-2.48,.58-3.82,2.45-5.12,4.42-.81,1.24-1.08,3.47-3.56,2.26-2.28-1.12-3.77-2.55-3.35-5.41,.36-2.41,1.32-3.7,3.93-3.08,3.02,2.18,6.02,.07,9.03-.05l-.94,1.85Z"/>
      <path class="cls-43" d="M405.44,138.63c-2.53,1.46-4.31,1.22-5.67-1.77-.92-2.03-2.64-3.7-5.1-4.15-.63-.62-1.26-1.23-1.89-1.85,3.26-.64,6.54,2.47,9.79-.02,1.31,.04,2.61,.08,3.92,.12,.12,.58,.23,1.15,.35,1.73,.03,2.11,.15,4.24-1.38,6l-.02-.06Z"/>
      <path class="cls-89" d="M661.2,154.5c-1.8,2.71-4.11,4.71-7.21,2.25-3.26-2.59-1.97-5.42,.54-7.9,1.47,.02,2.93,.04,4.4,.06,1.16,1.44,2.18,2.95,2.39,4.86-.18,.23-.22,.47-.11,.74Z"/>
      <path class="cls-156" d="M362.5,118.88c-1.63-.1-3.29-.45-4.89-.26-6.23,.73-6.22,.79-5.96-5.81,0,0-.01,0-.01,0,1.95-.78,3.24-3.52,5.95-1.99-.04,.81-.03,1.6,.86,2,1.01,1.71,1.81,3.63,4.13,3.98,.33,.34,.65,.69,.98,1.03-.35,.35-.71,.7-1.06,1.04Z"/>
      <path class="cls-155" d="M395.67,116.87c1.84-.21,2.67-1.64,3.77-2.87,1.12-1.26,.79-4.47,3.79-3.36,2.77,1.02,4.14,3.08,3.47,6.19-.14,.63-.05,1.3-.06,1.96-.17,.19-.24,.42-.19,.68-.63,.11-1.26,.22-1.9,.33-2.8-1.98-5.84-1.41-8.89-.85-.33-.36-.67-.72-1-1.07,.34-.33,.68-.66,1.02-.99Z"/>
      <path class="cls-105" d="M791.81,133.96c.58,1.69,1.85,3.25,.98,5.21-.82,1.86-2.2,2.91-4.27,2.83-2.02-.08-3.61-1-4.15-2.99-.79-2.91,.86-4.7,3.19-6.06,1.42,.34,2.84,.67,4.25,1.01Z"/>
      <path class="cls-116" d="M670.34,237.61c-1.7,2.11-6.48,.59-6.07,5.17-3.43-3.43-3.52-8.74-6.9-12.19,.15-3.12,1.71-1.34,2.91-.85,0,0-.01,0-.01,0,2.68,3.28,6.03,5.62,9.98,7.11,.02,.26,.05,.51,.09,.76Z"/>
      <path class="cls-108" d="M796.2,159.74c-1.66-.02-3.32,.7-4.97-.08,2.05-3.43,2.6-6.84-.15-10.2,.03-.22,.08-.45,.14-.66,1.22,.03,2.45,.06,3.68,.09,1.1,.95,2.2,1.9,3.3,2.85,0,0,0,0,0,0,.06,1.67,.13,3.33,.19,5-.73,1-1.46,1.99-2.19,2.99Z"/>
      <path class="cls-153" d="M17.92,16.7c-2.3-1.19-4.31-2.75-6.06-4.66,1.09-2.32-.54-5.15,1.37-7.31,.57,.03,1.13,.05,1.7,.08,.21,.21,.45,.27,.73,.17,2.13,.94,4.27,1.88,6.4,2.82-.66,.03-1.33,.13-1.98,.06-3.12-.31-7.81-1.93-2.63,3.8,.77,.86,1.33,3.25,.48,5.04Z"/>
      <path class="cls-170" d="M594.13,279.76c2.63,1.1,1.22,2.86,.67,4.42-.36,1.01-.51,2.28-2.25,1.8-3.57-1-5.34,1.45-7.06,3.9,.01-1.19,.02-2.38,.03-3.57,1.93-3.01,4.02-5.83,7.86-6.56,.24,.26,.49,.26,.74,0Z"/>
      <path class="cls-154" d="M13.23,4.74c-1.91,2.16-.28,4.99-1.37,7.31-2.32-2.02-4.65-4.04-6.97-6.07,1.04-1.04,2.07-2.09,3.11-3.13,.99,.27,1.98,.54,2.97,.8,.75,.36,1.51,.72,2.26,1.08Z"/>
      <path class="cls-10" d="M364.47,130.84c-3.01,.11-6.01,2.23-9.03,.05,1.06-.24,2.3,.13,3.12-.93,3.99-.05,7.01-3.25,10.98-3.36,.32,.32,.65,.65,.97,.97-.67,.4-1.33,.8-2,1.2-1.06,1.26-2.17,2.39-4.04,2.08Z"/>
      <path class="cls-139" d="M606.37,94.54c6.07-.87,1.04,2.9,1.78,4.26-2.57-.37-5.3,.83-7.73-.82,.65-.39,1.3-.79,1.95-1.18,1.34-.75,2.67-1.5,4.01-2.26Z"/>
      <path class="cls-7" d="M757.26,199.71c-1.49,3.46-3.53,3.56-6.01,1,.81-4,2.61-5.08,5.81-1.95,0,.33,.07,.65,.2,.95Z"/>
      <path class="cls-166" d="M8,2.85c-1.04,1.04-2.07,2.09-3.11,3.13C3.26,4.27,1.63,2.56,0,.86c3.08-2.48,5.16,1.21,7.84,1.26,.02,.25,.07,.5,.16,.74Z"/>
      <path class="cls-65" d="M77.82,266.8c.65-.34,1.76,.16,1.9-1.08,4.12-.25,8.11,.37,11.96,1.87-4.58,0-9.15,0-13.73,0-.05-.26-.09-.53-.14-.79Z"/>
      <path class="cls-165" d="M651.53,69.57c.94,.03,1.87,.06,2.81,.08l5.09,.14c.35,2.1-1.14,1.97-2.47,2.03-1.81,.08-3.63,.17-5.44,.26,0-.84,0-1.67,.01-2.51Z"/>
      <path class="cls-33" d="M364.47,130.84c1.87,.31,2.98-.82,4.04-2.08,.64,1.57,2.14,.64,3.16,1.11-1.71,2.5-4.8,2.43-7.11,3.81-.34-.33-.68-.65-1.03-.98,.31-.62,.62-1.24,.94-1.85Z"/>
      <path class="cls-31" d="M345.62,252.66h1c-.45,2.87,1.91,6.79-3,7.99-.41-2.93,2.41-5.06,2-7.99Z"/>
      <path class="cls-160" d="M622.37,282.97l-3,1.67c-.36-.38-.73-.76-1.09-1.15,1.1-2.2,2.76-3.59,5.28-2.74,1.41,.47-.29,1.1-.26,1.71-.31,.17-.62,.34-.94,.51Z"/>
      <path class="cls-151" d="M13.91,266.49l-1.98,.33c-.67,0-1.34,0-2.01,0-1.3-.06-1.29-1.41-2.01-2.05,0-.42,.01-.84,.02-1.27,.29-.63,.58-1.25,.87-1.88,1.3,2.05,2.52,4.17,5.11,4.86Z"/>
      <path class="cls-167" d="M642.34,69.66c.33,.06,.66,.11,.99,.17-.05,.75-.1,1.51-.15,2.26-.65-1.11-4.21,1.53-2.82-2.2,.66-.08,1.32-.15,1.98-.23Z"/>
      <path class="cls-40" d="M174.3,157.59c-1.51-.94-1.22-2.29-1.12-4.3,1.33,1.58,2.04,2.63,1.12,4.3Z"/>
      <path class="cls-101" d="M13.01,114.97c-.19-.95-.2-2.45-1.3-2.36-1.57,.13,.03,1.95-1.13,3.27-2.82-5.16-1.21-10.28-1.49-15.19,2.17-4.52,4.25-9.03,7.89-12.74,3.76-3.83,6.73-8.56,9.53-12.96,5.23-8.24,11.24-15.93,16.39-24.19,1.33,.01,2.66,.02,4,.03,2.52,1.24,5.6,.29,7.99,2.02,0,0,.02,.06,.02,.06-3.88-.61-6.67,1.01-8.8,4.16-2.66,3.93-5.45,7.79-8.12,11.71-3.08,4.52-6.61,8.84-9.28,13.47-2.01,3.48-3,7.58-6.18,10.49-.68,.62-.41,1.52,.43,2.08-.64,2.48-2.23,4.36-3.92,6.17-2.16,.08-2.34,1.12-1.32,2.74-.83,1.71-1.66,3.42-2.49,5.12-1.44,.61-3.1,1.13-1.13,3.02-.11,1.12-.19,2.25-1.08,3.1Z"/>
      <path class="cls-127" d="M22.96,94.82c-.84-.55-1.11-1.46-.43-2.08,3.17-2.91,4.17-7,6.18-10.49,2.67-4.63,6.2-8.95,9.28-13.47,2.67-3.93,5.45-7.78,8.12-11.71,2.13-3.15,4.92-4.77,8.8-4.16,.57,1.05,.24,1.6-.73,2.39-5.17,4.25-7.94,10.27-11.6,15.67-2.17,3.2-4.03,6.84-7.46,9.12-1.81,1.2-3.3,2.61-1.07,4.79-3.7,3.32-7.39,6.63-11.09,9.95Z"/>
      <path class="cls-151" d="M8.79,260.68c-.11-1.48-.32-2.96-.32-4.43-.02-34.33-.02-68.67,0-103,0-1.48,.19-2.96,.3-4.44,1.89,1.34,1.13,3.34,1.13,5.06,.04,33.91,.04,67.82,0,101.73,0,1.73,.7,3.72-1.11,5.09Z"/>
      <path class="cls-77" d="M17.71,103.73c-1.01-1.62-.83-2.66,1.32-2.74-.44,.91-.88,1.83-1.32,2.74Z"/>
      <path class="cls-77" d="M14.09,111.87c-1.97-1.88-.31-2.41,1.13-3.02-.38,1.01-.75,2.01-1.13,3.02Z"/>
      <path class="cls-11" d="M776.05,166.45c.5,1.08,2.35,1.71,1.12,3.37-6.73,2.93-13.29,6.31-20.89,6.56-4.11,.14-8.22,.76-12.26-.5,.41-.31,.81-.63,1.22-.94l6.99-.15c9.11,.56,16.89-2.68,23.82-8.33Z"/>
      <path class="cls-39" d="M731.25,174.56c0-.55,0-1.1,0-1.65,.96,.08,1.92,.16,2.87,.24,1.58,.98,3.37,.58,5.07,.74,.05,.26,.08,.53,.09,.79,0,.27-.01,.54-.03,.81-2.67-.31-5.33-.62-8-.94Z"/>
      <path class="cls-4" d="M739.25,175.49c.02-.27,.02-.54,.03-.81,1-.06,2-.12,2.99-.18l2.97,.43c-.41,.31-.81,.63-1.22,.94l-4.77-.38Z"/>
      <path class="cls-150" d="M343.46,252.68c.42,2.06,.31,3.52-2.51,3.47-7.32-.13-14.63-.1-21.95-.02-1.97,.02-2.7-.76-2.5-2.64,.07-.66,0-1.33,0-1.99,0-43.24-.02-86.48,0-129.72,0-1.32,.19-2.64,.29-3.96,1.53,1.73,.84,3.82,.84,5.74,.04,41.76,.09,83.52-.06,125.27-.02,4.38,.86,6.35,5.71,5.94,5.12-.44,10.31-.18,15.46-.06,1.98,.05,3.59-.33,4.73-2.02Z"/>
      <path class="cls-100" d="M745.24,174.93c-.99-.14-1.98-.28-2.97-.43-.26-4.08-2.03-.56-3.08-.61-1.7-.16-3.49,.24-5.07-.74-.27-.75-.54-1.5-.81-2.25,1.64-.08,3.27-.17,4.91-.25,1.81,1.86,2.84,.08,4.04-.87,6.78-2.55,12.8-6.04,16.15-12.88,3.01-3.26,5.82-6.76,9.09-9.73,4.04-3.67,7.8-3.61,11.95-.51-1.67,.77,.46,2.25-.74,3.37-2.96,2.78-5.55,5.95-8.52,8.72-5.86,5.48-10.37,12.48-17.95,16.04l-6.99,.15Z"/>
      <path class="cls-125" d="M697.29,213.83c-3.67,.76-7.34,.94-11-.09-.25-2.13,.73-3.44,2.24-5.01,4.22-4.4,9.13-8.14,12.43-13.51,1.28-2.09,.02-2.45-.67-3.51,.84-.02,1.58-.21,2.02-1.02,3.42,.19,6.76,.77,9.98,1.95,2.44,1.85-.68,1.91-1.04,3.14h6.94c-6.25,1.79-10.47,4.69-12.86,9.58-.88,1.81-2.47,1.9-3.7,2.83-1.91,1.44-4.16,2.8-4.35,5.64Z"/>
      <path class="cls-123" d="M752.23,174.78c7.58-3.56,12.09-10.56,17.95-16.04,2.97-2.77,5.56-5.94,8.52-8.72,1.2-1.12-.93-2.6,.74-3.37,3.44,3.74,4.09,8.41,1.48,13-1.37,2.41-3.22,4.54-4.86,6.79-6.94,5.65-14.72,8.89-23.82,8.33Z"/>
      <path class="cls-99" d="M711.39,211.76c-.14-3.58,3.52-1.67,4.79-3.67-.63-.22-1.38-.48-2.9-1.01,4.69-1.56,7.46-4.81,10-8.1,1.99-2.57,4.3-3.44,7.27-3.4,3.4,.19,6.8,.39,10.2,.58-8.51,8.23-18.17,13.43-29.36,15.6Z"/>
      <path class="cls-121" d="M788.33,175.77c-2.5-.2-4.1-1.56-4.13-4.33-.03-3.09,1.86-4.57,4.69-4.46,2.67,.1,4.24,1.9,4.11,4.58-.13,2.62-1.65,4.2-4.66,4.21Z"/>
      <path class="cls-107" d="M791.08,149.47c2.75,3.36,2.2,6.77,.15,10.2-5.38-3.1-5.44-6.95-.15-10.2Z"/>
      <path class="cls-75" d="M782.52,179.73c2.05,.25,2.92,1.38,2.84,3.37-.07,1.83-1.03,2.74-2.79,2.75-1.97,.02-3.19-1.02-3.12-3.01,.07-1.85,1.11-3.06,3.07-3.11Z"/>
      <path class="cls-23" d="M764.35,199.62c-.47-2.05-1.54-4.42,1.8-4.97,1.71-.28,3.09,.77,2.97,2.48-.22,3.13-2.61,2.77-4.8,2.46,0,0,.03,.04,.03,.04Z"/>
      <path class="cls-22" d="M775.59,188.61c1.5,.02,2.62,.56,2.66,2.25,.04,1.78-.85,2.85-2.69,2.78-1.58-.05-2.4-1.07-2.42-2.59-.02-1.57,.81-2.46,2.45-2.45Z"/>
      <path class="cls-36" d="M702.31,190.69c-.43,.82-1.18,1-2.02,1.02-.32-.59-.64-1.18-.95-1.77,1.08-.1,2.16-.23,2.97,.75Z"/>
      <path class="cls-51" d="M81.84,74.83c-1.56-2.03-4.41-.11-6.02-1.98,2.73-.99,3.23-3.08,3.25-5.75,.05-5.03-1.29-9.92-.47-15.09,.68-4.28,1.62-8.98,.2-13.21-1.26-3.75-1.96-6.88-.29-10.82,2.12-5,.2-8.61-4.61-11.06,12.97-.21,12.93-.21,13.01,12.82,.01,2.2-1.19,4.98,2.01,6.22-.56,.35-1.12,.69-1.68,1.04-.99,.23-2.08,.45-1.65,1.86,2.83,9.36,.53,18.93,1.25,28.38,.08,1-.05,2.1-1.3,2.38-2.23,.5-3.02,.93-.29,2.21,2.36,1.11-.51,1.94-.38,2.98-1.01-.63-2.02-.6-3.03,0Z"/>
      <path class="cls-104" d="M105.86,77.86c-1.72,1.76-3.71,3.09-6.05,3.89-1.15-1.77-5.64,.55-4.46-1.68,1.91-3.61-.91-5.87-.74-8.89,.61-10.66,.24-21.38,.24-32.08,3.36,.31,6.66,.82,9.14,3.45-.46,.64-1.39,1.35-1.3,1.89,1.44,8.19,1.17,16.37,.85,24.64-.1,2.57-.15,6.33,2.31,8.79Z"/>
      <path class="cls-98" d="M105.86,77.86c-2.46-2.46-2.41-6.22-2.31-8.79,.32-8.27,.59-16.45-.85-24.64-.09-.54,.84-1.26,1.3-1.89,3.57,1.92,4.63,6.15,7.78,8.45-2.93,2.82-.34,6.16-.66,9.23-.45,4.38-1.55,9.06,.71,13.4-1.8,1.67-3.66,3.26-5.97,4.23Z"/>
      <path class="cls-117" d="M111.83,73.64c-2.26-4.34-1.16-9.02-.71-13.4,.31-3.08-2.27-6.41,.66-9.23,2.81,1.57,5.94,2.18,9.01,2.95-1.15,.69-.7,2.59-1.21,2.85-4.4,2.16,.59,4.42-.19,6.38-1.45,3.62,1.27,3.77,3.4,4.51-3.65,1.98-7.3,3.96-10.95,5.94Z"/>
      <path class="cls-134" d="M99.87,9.01c4.37,.24,8.68,.88,12.91,2.02-.97,1.48-2.9,.24-4.1,1.45,3.1,1.14,2.66,4.03,1.97,5.82-1.14,2.96-.05,5.06,1.15,7.39-2.66,.68-5.32,1.36-7.99,2.04-.48-1.63-2.35-1.49-3.42-2.62,4.25-1.72,.24-4.77,1.26-7.29,1.16-2.86,.99-6.32-1.79-8.81Z"/>
      <path class="cls-90" d="M156.68,48.8c.75,.15,2.19,.46,2.13,.51-4.47,3.43-.65,8.4-2.31,12.34-.73,1.74,3.57,.64,2.23,3.21-5.34-.62-10.68-1.25-16.02-1.87,0,0,.13-.23,.13-.23,1.95-.66,5.24,.94,5.07-3.27-.15-3.7,.55-7.75-5.12-7.69,4.63-1,9.26-2,13.89-3Z"/>
      <path class="cls-122" d="M122.79,67.7c-2.12-.75-4.84-.89-3.4-4.51,.78-1.96-4.21-4.22,.19-6.38,.51-.25,.06-2.16,1.21-2.85,2.28-.06,4.55-.12,6.83-.18,.8,.17,2.03,.07,2.3,.54,.93,1.58-.67,1.32-1.45,1.55-.87,.26-1.95,1.13-1.39,1.58,4.16,3.39-.48,4.68-1.63,7.11,2.58-1.77,4.96-1.79,7.27-.03-3.31,1.06-6.63,2.11-9.94,3.17Z"/>
      <path class="cls-106" d="M111.8,25.69c-1.19-2.33-2.29-4.44-1.15-7.39,.69-1.79,1.13-4.67-1.97-5.82,1.2-1.21,3.13,.02,4.1-1.45,2.31,.42,4.62,.84,6.93,1.26,.59,3.52-1.45,7.35,1.34,10.66-2.39,.87-4.75,1.72-7.12,2.58-.71,.05-1.42,.1-2.13,.16Z"/>
      <path class="cls-72" d="M132.73,64.53c-2.32-1.76-4.7-1.74-7.27,.03,1.15-2.42,5.79-3.71,1.63-7.11-.55-.45,.52-1.32,1.39-1.58,.78-.23,2.38,.02,1.45-1.55-.28-.47-1.51-.38-2.3-.54,2.84-1.37,5.89-.91,8.88-1.05,2.62,.28,2.66,2.35,2.23,4.01-.97,3.77,.78,5.35,4.1,6.03,0,0-.13,.23-.13,.23-3.33,.51-6.65,1.02-9.98,1.53Z"/>
      <path class="cls-102" d="M113.94,25.54c2.36-.86,4.73-1.71,7.12-2.58-2.78-3.32-.75-7.15-1.34-10.66,2.69,.61,5.38,1.22,8.07,1.83-1.84,3.93-2.31,7.66,1.63,10.71-1.12,1.44,2.65,2.73,.13,4.21-4.97-2.2-10.11-3.65-15.61-3.5Z"/>
      <path class="cls-114" d="M143.04,19.78c1.75,.42,3.01,1.45,3.77,3.08-4.21,2.61-3.93,7.4-5.22,11.35-.27,.84,1.41,2.31,2.2,3.5-1.9,.01-3.62-.49-5.03-1.82-2.98-5.46-.62-11.9-3.47-17.64,3-.65,5.04,2.34,7.76,1.53Z"/>
      <path class="cls-112" d="M142.84,62.76c-3.32-.67-5.07-2.25-4.1-6.03,.42-1.65,.39-3.72-2.23-4.01,1.96-1.21,4.15-.89,6.29-.93,5.67-.06,4.97,3.99,5.12,7.69,.17,4.21-3.12,2.61-5.07,3.27Z"/>
      <path class="cls-138" d="M575.02,307.87c-5.18,2.65-9.18,3.02-12.59-1.25-.46-.05-.92-.1-1.38-.14,3.62-2.94,.95-7.2,2.25-10.63-.23-1.1,1.31-2.22-.05-3.3-.13-.64-.29-1.28-.36-1.93-.9-7.63-1.71-8.32-9.33-7.88-.36-.34-.73-.69-1.09-1.03,3.18-1.81,6.63-1.84,10.09-1.35,5.47,.79,8.19,3.78,8.36,9.28,.14,4.62,.02,9.25,.03,13.88,0,2.23,.1,4.43,4.07,4.35Z"/>
      <path class="cls-168" d="M562.43,306.62c-.84,.89-1.67,1.83-3.02,1.94-1.01-.59-2.02-1.18-3.03-1.77,1.56-.11,3.12-.21,4.67-.31,.46,.04,.92,.09,1.38,.14Z"/>
      <path class="cls-159" d="M552.46,281.72c.36,.34,.73,.68,1.09,1.02-.95,.86-2.44,2-3.18,.87-.72-1.09,1.07-1.54,2.09-1.89Z"/>
      <path class="cls-64" d="M693.22,239.9c.38-.02,.75-.03,1.13-.05,1.33,.92,2.64,1.69,3.7-.34,.63-.64,1.41-.73,2.24-.57-.24,.93-.18,2.32-.78,2.73-4.64,3.13-8.01,7.46-11.44,11.73-1.29,1.6-3.61,.63-4.77,2.26-1.95-.15-1.4,2.37-2.9,2.7-2.31-.83-4.32-2.13-6-3.93,1.95-.99,2.41-3.99,3.19-4.48,5.23-3.31,8.38-10,15.63-10.05Z"/>
      <path class="cls-131" d="M679.31,271.64c-2.82,1.68-6.27,2.67-5.51,7.34,.27,1.64-2.03,1.61-3.55,1.7,.99-2.51,.1-3.46-2.42-2.99-.22,.04-.4,.34-.67,.58,.92,.75,1.79,1.47,3.08,2.41-1.41,1.65-3.45,.65-5.21,1.04-1.98-1.16-3.15-2.89-3.63-5.12,1.22-1.47,2.39-3.09,3.45-4.57,2.39-3.33,9.1-4.25,6.52-10.59,3.41,2.8,7.06,5.42,7.93,10.19Z"/>
      <path class="cls-124" d="M671.38,261.45c2.58,6.34-4.14,7.26-6.52,10.59-1.06,1.48-2.22,3.1-3.45,4.57-2.22-4.05-.92-8.43-1.15-12.66-.16-3.11,.48-6.29-.89-9.29,.22-1.21,.46-2.6,2.06-1.19,3.19,2.82,7.13,4.7,9.94,7.99Z"/>
      <path class="cls-74" d="M693.22,239.9c-7.25,.05-10.41,6.74-15.63,10.05-.78,.49-1.24,3.49-3.19,4.48-2.53-1.41-4.47-3.44-6.05-5.84,1.1-4.92,6.17-4.72,9.56-6.87-1.44-1.67-3.66-1.38-4.59-3.05,6.55,1.74,13.24,1.23,19.9,1.23Z"/>
      <path class="cls-69" d="M683.24,293.76c.85-6.82,5.92-11.42,8.97-17.09,2.35,2.53,1.92,6.03,3.12,8.96-.64,2-.98,4.16-1.97,5.98-2.27,4.17-5.83,4.81-10.12,2.15Z"/>
      <path class="cls-82" d="M718.24,262.63c-.1,3.75-1.23,5.91-5.77,5.56-2.94-.23-1.65,4.37-4.18,5.35-3.5,.18-6.79-.63-9.92-2.15,.84-1.74,2.55-2.42,4.18-3.27-1-.85-2.51-.13-3.21-1.35,6.65,.21,12.88-1.5,18.91-4.14Z"/>
      <path class="cls-94" d="M706.37,308.9c-.38,.44-.53,1.66-1.01,1.81-1.71,.53-.77-1.9-2.02-2.09-.05-3.21-.11-6.41-.16-9.62,.07-.8,.14-1.6,.21-2.49,1.68,.63,.12,2.5,1.16,2.94,2.38-2.78,6.03-4.65,5.74-8.87,1.64,1.98,2.73,4.22,3.13,6.77-1.17,3.34-2.34,6.68-3.55,10.16-1.42-1.94,.3-4.45-1.49-6.5-2.47,2.11,.31,5.66-2.01,7.88-.35-1.58,.42-3.03-.65-4.38-.68,1.41-.58,2.61,.65,4.38Z"/>
      <path class="cls-52" d="M710.29,290.59c.29,4.22-3.36,6.08-5.74,8.87-1.04-.43,.52-2.31-1.16-2.94-.08,.88-.14,1.68-.21,2.49-1.13-2.23-.87-4.65-1.01-7.03,.95-2.81-1.19-7.45,4.45-7.45,1.62,1.78,2.97,3.72,3.67,6.06Z"/>
      <path class="cls-133" d="M690.28,273.65c-1.89,1.1,1.43,6.02-3.68,4.92-1.15-.25-1.27,.29-3.24-1.92-.46-4.06-.87-8.14-3.46-11.76,4.45,1.78,7.84,4.75,10.38,8.76Z"/>
      <path class="cls-68" d="M706.62,284.53c-5.64,0-3.5,4.65-4.45,7.45-.65-1.78-1.3-3.56-1.96-5.35-.76-5.24-3.94-9.3-6.3-13.98,5.53,2.51,9.45,6.82,12.71,11.88Z"/>
      <path class="cls-54" d="M720.27,279.66c-2.65,.74-2.57,4.29-5.2,5.05-3.61-1.1-6.28-3.64-9.05-5.99-3.13-2.65,.31-1.86,1.27-2.36,4.08,2.05,8.62,2.31,12.98,3.3Z"/>
      <path class="cls-120" d="M699.33,266.77c.7,1.23,2.21,.51,3.21,1.35-1.63,.85-3.34,1.53-4.18,3.27-4.04-1.23-7.59-3.39-10.98-5.84,.68-.33,1.35-.65,2.03-.98,3.31,.73,6.61,1.46,9.92,2.19Z"/>
      <path class="cls-12" d="M722.35,295.63c-1.77,1.86-3.78,2.29-6.06,.99-.95-1.85-1.71-3.7,.2-5.43,1.11-1,2.45-1.05,3.75-.59,2.5,.87,2.13,3.05,2.11,5.03Z"/>
      <path class="cls-76" d="M689.41,264.58c-.68,.33-1.35,.65-2.03,.98-1.25-.74-2.5-1.48-3.89-2.3,1.97-1.53,3.25,.73,4.82,.31,.37,.34,.73,.68,1.1,1.02Z"/>
      <path class="cls-21" d="M650.16,142.95c.3,.76,.73,1.5,.88,2.29,.45,2.23-.63,3.5-2.8,3.72-1.62,.16-3.02-.45-3.27-2.25-.28-2.05,.52-3.58,2.76-3.88,.8-.11,1.63,.09,2.45,.15,0,0-.02-.03-.02-.03Z"/>
      <path class="cls-35" d="M641.15,143.64c-.28,1.73-1.09,3.1-3.14,2.98-1.91-.12-3.02-1.39-3.07-3.22-.05-1.99,1.16-2.9,3.17-2.83,1.98,.07,3.06,.95,3.04,3.08Z"/>
      <path class="cls-20" d="M723.39,307.47c-.36-.92-.89-1.81-1.04-2.76-.42-2.74,.82-4.66,3.53-5.01,2.44-.31,4.25,1.03,4.46,3.59,.26,3.11-1.42,4.6-4.51,4.46-.82-.04-1.64-.2-2.46-.31,0,0,.02,.03,.02,.03Z"/>
      <path class="cls-109" d="M735.33,328.75c2.46,.36,4.04,1.54,4.08,4.18,.04,2.68-1.55,4.09-3.98,4.12-2.46,.03-4.05-1.49-4.12-4.06-.07-2.66,1.73-3.72,4.02-4.24Z"/>
      <path class="cls-171" d="M384.47,143.97c-.09,.31-.15,.63-.26,.94-1.07,2.9-2.06,7.03-4.9,7.31-2.72,.27-3.53-4.02-4.95-6.48,.1-3.92,3.04-6.98,3.33-10.84,.97-1.15,.9-2.51,.83-3.88,.13-.47,.26-.94,.39-1.41,1.38,.45,.27,2,1.17,2.66,.87,4.12,1.76,8.24,4.4,11.7Z"/>
      <path class="cls-162" d="M393.27,132.89c1.27,2.64,3.73,5.81,1.67,8.15-1.55,1.76-4.79-.72-7.27-1.31-.72-1.65-1.44-3.3-2.16-4.95-.26-.45-.52-.9-.79-1.35-.33-1.53-2.6-2.53-1.67-4.2,.58-1.05,1.63,.52,2.54,.65,2.38,1.46,4.85,2.69,7.68,3.02Z"/>
      <path class="cls-132" d="M372.77,143.84c-.42,1.5-.21,2.96,.2,4.42,.49,1.73,1.51,3.68-1.3,4.36-2.82,.68-5.1,.24-6.64-2.73-1.4-2.69,.64-3.19,2.13-4,2.16-1.17,3.64-2.83,4.45-5.13,1.64,.55,.88,2.01,1.17,3.08Z"/>
      <path class="cls-110" d="M387.56,142.77c1.25,1.03,2.53,2.04,3.76,3.1,1.16,1,3.74,1.04,2.11,3.85-1.7,2.92-3.93,3.78-6.97,2.77-3.15-1.05-1.32-3.04-.78-4.76,1.79-1.21,.02-3.78,1.88-4.96Z"/>
      <path class="cls-18" d="M372.77,143.84c-.29-1.07,.47-2.53-1.17-3.08-.33-.33-.65-.66-.98-.99,1.02-2.36,2.04-4.73,3.06-7.09,1.13,.19,.88,4.85,3.25,1,.25,.41,.5,.81,.75,1.22-.29,3.87-3.23,6.92-3.33,10.84-.53-.63-1.05-1.27-1.58-1.9Z"/>
      <path class="cls-28" d="M384.72,133.43c.26,.45,.52,.9,.79,1.35-1.65,1.33-.42,2.59,.1,3.86-2.19,1.25,.41,2.82-.27,4.17-.29,.39-.58,.77-.87,1.16-2.64-3.46-3.53-7.57-4.4-11.69,1.64,.03,2,5.26,4.65,1.15Z"/>
      <path class="cls-26" d="M393.27,132.89c-2.83-.32-5.3-1.56-7.68-3.02,1.63-.08,3.26-.16,4.89-.24,.48,.94,1.36,1.15,2.3,1.24,.63,.62,1.26,1.23,1.89,1.85-.47,.06-.93,.12-1.4,.17Z"/>
      <path class="cls-59" d="M385.34,142.8c.68-1.35-1.92-2.91,.27-4.17,.31,.38,.62,.76,.94,1.14l1.02,2.99c-1.86,1.19-.09,3.75-1.88,4.96-.11-1.64-.23-3.29-.34-4.93Z"/>
      <path class="cls-2" d="M386.54,139.78c-.31-.38-.62-.76-.94-1.14-.53-1.28-1.75-2.53-.1-3.86,.72,1.65,1.44,3.3,2.16,4.95-.37,.02-.75,.03-1.12,.05Z"/>
      <path class="cls-141" d="M374.51,103.81c1.64-2.09,2.1-6.35,4.94-5.88,2.7,.44,3.68,4.29,4.66,7.09,.16,.46,.21,.96,.31,1.45-1.53,2.66-3.72,5.1-2.78,8.56q-2.76,3.76-3.93,1.56c.47-4.64-3.81-8.1-3.2-12.78Z"/>
      <path class="cls-161" d="M387.46,110.73c.15-.07,.29-.15,.44-.21,2.34-1.01,5.13-2.92,7.2-1.27,1.84,1.46-.63,4.14-.61,6.36-1.85,2.36-5.23,2-7.23,4.09-.32,.31-.64,.62-.96,.93-1.07,.19-2.14,.39-3.48,.63,.68-1.93,1.26-3.57,1.83-5.22,2.17-1.11,1.96-3.49,2.81-5.29Z"/>
      <path class="cls-163" d="M363.59,114.82c-.07-.64-.02-1.33-.24-1.92-1.74-4.51,.59-4.63,3.93-3.7,.77,.21,1.56,.4,2.34,.59,1.94,1.09,1.79,3.45,3.01,4.98,.31,1.5,.49,3.07,1.91,4.04,.22,1.21-.09,2.01-1.51,1.93-2.78-2.56-7.22-2.46-9.44-5.92Z"/>
      <path class="cls-111" d="M385.3,107.69c.68-1.95,.55-3.93,.12-5.9-.36-1.67-1.76-3.39,1.32-4.2,3.07-.81,5.02-.07,6.58,2.71,1.48,2.63-.39,2.97-2.03,3.86-2.25,1.22-3.76,3.21-4.77,5.56-.32,.04-.63,.13-.93,.25-1.46-.59-.13-1.53-.29-2.28Z"/>
      <path class="cls-87" d="M370.61,107.78c-.52-1.75-1.97-2.55-3.4-3.4-1.51-.91-3.39-1.51-2.08-4.1,1.5-2.97,3.61-3.35,6.56-2.65,3.17,.76,1.47,2.59,1.24,4.2-.19,1.3-.17,2.62-.25,3.93-.04,.98-.08,1.96-.13,2.93-.65-.3-1.3-.61-1.94-.91Z"/>
      <path class="cls-30" d="M372.55,108.69c.04-.98,.08-1.96,.13-2.93,.61-.65,1.22-1.3,1.83-1.95-.61,4.68,3.68,8.13,3.2,12.78-1.7-.1-1.71-2.09-2.99-2.66-.72-1.74-1.44-3.49-2.17-5.23Z"/>
      <path class="cls-16" d="M363.59,114.82c2.22,3.46,6.67,3.36,9.44,5.92-1.5,.24-3.4-1.21-4.43,1.04-1.77-.36-3.55-.7-5.01-1.88,.73-.34,2.04,.58,2.17-.72,.04-.37-1.43-.88-2.2-1.33-.33-.34-.65-.69-.98-1.03,.8-.43,.94-1.2,1.01-2Z"/>
      <path class="cls-1" d="M385.3,107.69c.15,.75-1.18,1.69,.29,2.28-.03,.65-.05,1.3-.08,1.96-2.11-.27-2.07,1.74-2.97,2.77-.3,.11-.6,.22-.9,.32-.94-3.46,1.25-5.9,2.78-8.56,.29,.41,.59,.82,.88,1.23Z"/>
      <path class="cls-3" d="M372.55,108.69c.72,1.74,1.44,3.49,2.17,5.23,0,0,.04,0,.04,0-.71,.28-1.41,.56-2.12,.84-1.22-1.53-1.07-3.88-3.01-4.98,.78-.45,.92-1.21,.99-2.01,.65,.3,1.3,.61,1.94,.91Z"/>
      <path class="cls-34" d="M387.25,119.69c2-2.08,5.39-1.72,7.23-4.09,.4,.42,.79,.85,1.19,1.27-.34,.33-.68,.66-1.02,.99-2.4,.9-4.59,2.64-7.41,1.82Z"/>
      <path class="cls-29" d="M385.51,111.93c.03-.65,.05-1.3,.08-1.96,.3-.12,.61-.21,.93-.25,.31,.34,.63,.67,.94,1.01-.85,1.81-.64,4.19-2.81,5.29,0,0-.11-.35-.11-.35-.14-1.37,.24-2.6,.97-3.75Z"/>
      <path class="cls-50" d="M81.84,74.83c1.01-.61,2.02-.63,3.03,0,2.91,2.02,1.93,5.1,1.91,7.79-.01,1.79-.58,3.53,1.03,4.93-2.85,1.19-5.71,2.35-8.85,2.5-.12-.65-.58-1.63-.32-1.89,3.87-3.82-.18-5.86-1.81-8.43,.79-.97,1.58-1.93,2.38-2.9,1.34-.05,2.11-.85,2.63-1.98Z"/>
      <path class="cls-79" d="M73.89,16.93c4.82,2.45,6.73,6.06,4.61,11.06-1.67,3.94-.96,7.07,.29,10.82,1.42,4.23,.48,8.93-.2,13.21-.82,5.16,.52,10.06,.47,15.09-.02,2.67-.52,4.76-3.25,5.75-6.97-.99-13.94-1.98-20.91-2.97-1.84-1.43-4.19-.66-6.25-1.39,.37-3.25,4.44-2.08,5.34-4.59,.3,0,.61-.04,.9-.11,1.6-.1,2.95-.7,3.99-1.94,4.67-2.02,9.57-3.61,13.27-8h-9.28l-.47-.04s-.47,.01-.47,.01c-1.1-1.33-2.68-.78-4.06-1.03-.26-3.68,2.14-9.22-7.07-6.99,4.25-3.27,8.03-2.88,12.23-4.94-2.59,0-3.89,0-5.18,0,2.69-.99,5.38-1.97,8.07-2.96,2.3-.09,4.37-.79,6.15-3.08h-5.14c-1.12-1.33-2.67-.82-4.07-.94-2.45-1.96-5.33-.56-7.97-1.01-1.54-2.09-4.49,.1-6.03-1.97v-1c3.95,.26,3.85-2.36,4.09-5.21,.33-4.07-2.36-4-5.02-4.57h6.69c.25-1.9-1.74-.58-1.71-1.75,2.88-1.26,5.67-3.25,9.22-2.6,2.93,.13,5.86,.25,8.8,.38,.79,.96,1.92,.7,2.95,.8Z"/>
      <path class="cls-118" d="M57.86,40.85h5.18c-4.2,2.07-7.99,1.67-12.23,4.94,9.21-2.23,6.81,3.31,7.07,6.99-.33,.04-.65,.09-.97,.15-.67-.03-1.35-.06-2.02-.09-2.4-1.73-5.47-.78-7.99-2.02,.1-2.6,2.86-2.24,4.16-3.64-1.81-.7-4.07,.12-5.38-1.94,1.43-1.15,2.82-2.26,4.21-3.38,1.68-.25,3.59,.63,5.01-.99,.99,0,1.98-.02,2.96-.03Z"/>
      <path class="cls-91" d="M54.9,63.78c-.3,.07-.6,.11-.9,.11-.43-.17-.87-.34-1.3-.52,3.06-2.83,3.38-8.53,9.04-8.7,.39-.01,.77-.55,1.16-.84,3.09,0,6.19,0,9.28,0-3.7,4.39-8.6,5.98-13.27,8-1.7-.1-3.21,.16-3.99,1.94Z"/>
      <path class="cls-127" d="M56.91,52.93c.32-.06,.65-.1,.97-.15,1.38,.25,2.96-.3,4.06,1.03-1.7-.17-3.57,.66-5.03-.88Z"/>
      <path class="cls-164" d="M526.33,307.85c1.4,.31,2.8,.63,4.2,.94,.68,.3,1.36,.61,2.04,.91-2.63,1.18-4.99,.41-7.28-.97,.35-.29,.69-.59,1.04-.88Z"/>
      <path class="cls-76" d="M381.64,115.02c.3-.11,.6-.21,.9-.32,.66,.33,1.33,.65,1.99,.98,0,0,.11,.35,.11,.35-.58,1.65-1.16,3.29-1.83,5.22,1.34-.24,2.41-.43,3.48-.63,1.14,.19,2.46-.26,3.29,.96-1.07,.82-2.15,1.64-3.22,2.45-.75,.49-1.51,.99-2.26,1.48,1.21,.47,2.41,.95,3.62,1.42,.92,.9,1.84,1.79,2.76,2.69-1.63,.08-3.26,.16-4.89,.24-.91-.13-1.96-1.69-2.54-.64-.93,1.68,1.34,2.68,1.67,4.2-2.65,4.11-3-1.12-4.65-1.15-.91-.68,.2-2.22-1.18-2.67-.13,.47-.26,.94-.39,1.41-.53,.89-1.05,1.77-1.58,2.66-2.37,3.84-2.12-.81-3.25-1,.78-1.41,1.56-2.82,2.4-4.33-1.71-.17-3.02,.8-4.41,1.52-1.02-.47-2.53,.46-3.16-1.1,.67-.4,1.33-.8,2-1.19,1.07-.37,2.26-.55,2.81-1.75-.43-2.08-2.49-1.4-3.68-2.18,0-.81-.05-1.59-1.03-1.86,1.03-2.25,2.93-.8,4.43-1.04,1.42,.08,1.73-.72,1.51-1.93,.07-1.63,.14-3.25,.2-4.88,0,0-.04,0-.04,0,1.28,.56,1.3,2.56,3,2.66q1.17,2.2,3.93-1.56Z"/>
      <path class="cls-56" d="M363.56,117.84c.78,.45,2.24,.96,2.2,1.33-.13,1.29-1.43,.38-2.17,.72-.36-.34-.73-.67-1.09-1.01,.35-.35,.71-.69,1.06-1.04Z"/>
      <path class="cls-172" d="M561.44,70.87c.38,.36,.75,.71,1.13,1.07-1.84,.97-3.68,1.93-5.53,2.9,.72-2.37,2.34-3.45,4.4-3.96Z"/>
      <path class="cls-96" d="M694.34,262.48c4.53-1.49,6.55-5.94,9.91-8.81,2.78-2.37,5.07-5.59,8.24-7.62,2.66-1.71,1.63-2.69-.55-3.81,2.17-1.38,4.95,.57,6.48-1.84,4.65,5.58,3.61,13-2.67,17.69-6.41,4.79-13.79,5.27-21.41,4.4Z"/>
      <path class="cls-157" d="M570.47,95.93c-.01,.39-.01,.77-.02,1.16-.4,.94-1.16,1.37-2.11,1.55-.97-1.32-3.13-.15-3.91-1.87,2.11,.42,4.13,.15,6.04-.84Z"/>
      <path class="cls-49" d="M33.62,26.69c.76,.06,1.53,.11,2.29,.17,1.44,0,2.9-.02,2.99,2-3.49,3.46-5.19,8.1-8,12.01-1,0-1.99-.02-2.99-.03-1.05-1.7-3.25-.31-4.45-1.63,2.25-2.58,3.42-5.74,4.31-8.88,.33-1.15,4.1-1.17,1.21-3.3,1.08-.09,2.16-.18,3.24-.27,.46-.02,.93-.05,1.39-.07Z"/>
      <path class="cls-58" d="M9.04,47.87c-.13-5.63-.25-11.27-.38-16.9-.81-4.31,1.26-5.24,4.98-4.21,2.09,0,4.17,0,6.63,0-2.57,3.97-5.21,7.28-6.97,11-1.39,2.95-2.15,.74-3.37,.02v7.06c-.03,1.09,.15,2.24-.9,3.03Z"/>
      <path class="cls-57" d="M9.93,44.85v-7.06c1.22,.72,1.99,2.93,3.37-.02,1.75-3.73,4.4-7.04,6.97-11-2.46,0-4.55,0-6.63,0,6.19-.81,12.39-.93,18.59,0-1.08,.09-2.16,.18-3.24,.26-1.84-.26-4.04-.47-5.1,1.07-3.58,5.23-8.25,9.7-11.04,15.47-.67,1.38-1.79,1.2-2.91,1.27Z"/>
      <path class="cls-42" d="M22.06,7.8c1.05,.07,2.13,.06,2.91,.94-3.41,2.77-1.35,7.2-3.17,10.45-1.29-.83-2.59-1.66-3.88-2.49,.85-1.79,.29-4.18-.48-5.04-5.17-5.73-.48-4.1,2.63-3.8,.65,.06,1.32-.04,1.98-.06Z"/>
      <path class="cls-6" d="M627.36,96.8c-.83,.93-1.67,1.85-3.04,1.94-1-.59-2-1.18-3-1.77,1.82,.18,3.53-.2,5.17-.96,.29,.27,.58,.53,.87,.79Z"/>
      <path class="cls-113" d="M733.31,170.9c.27,.75,.54,1.5,.81,2.25-.96-.08-1.92-.16-2.87-.24-1.12-.45-2.25-.91-3.37-1.36,.04-.22,.07-.43,.11-.65h5.33Z"/>
      <path class="cls-113" d="M742.25,169.77c-1.2,.95-2.23,2.73-4.04,.87,1.2-.97,2.62-.9,4.04-.87Z"/>
      <path class="cls-82" d="M721.16,262.57c.61,.28,1.02,.48,1.44,.67-.45,.42-.83,.98-1.36,1.21-.31,.14-.84-.25-1.27-.39,.38-.47,.77-.95,1.2-1.48Z"/>
      <path class="cls-25" d="M180.71,73.86c-2.03,.33-3.55-.67-4.98-1.91-.47-2.84-2.7-5.25-1.52-8.55,.55-1.53,.76-3.25,2.84-4.42,.97-.54,.67-1.16,.35-1.43-4.91-4.1-1.48-9.15-1.62-13.78,2.66-.46,4.7,.91,6.75,2.28,1.43,4.15-.44,7.82-1.68,11.57,3.99,2.6,.71,6.83,2.14,9.74,1.7,3.45,.45,5.02-2.27,6.49Z"/>
      <path class="cls-64" d="M686.1,258.13c-.06,.02-.5,.27-.97,.36-1.73,.33-1.06-1.22-1.41-1.94-.07-.15-.96-.82,.08-.81,1.04,0,1.89,.55,2.3,2.39Z"/>
      <path class="cls-83" d="M30.9,40.86c2.81-3.91,4.51-8.55,8-12.01,3.42-.57,6.61,1.14,9.98,1.02,0,.33,0,.67,0,1-6.42,.16-5.61,8.35-10.88,9.98h8.89c2.34-.02,4.68-.05,7.02-.07,.33,.02,.66,.05,.98,.09-1.41,1.62-3.32,.74-5.01,.99-3.99,0-7.99,0-11.98,0-2.32-.4-4.89,.87-7-1Z"/>
      <path class="cls-144" d="M614.4,288.69c1.07,2.71,3.3,4.63,5.38,6.3,5.22,4.2,5.98,9.4,4.74,15.45-3.43-3.3-6.81-6.55-10.18-9.8-.41-.51-.8-1.04-1.24-1.53q-5.74-6.36,1.19-11.8c.04,.46,.07,.92,.11,1.38Z"/>
      <path class="cls-152" d="M614.4,288.69c-.04-.46-.07-.92-.11-1.38,1.33-1.27,2.66-2.55,3.99-3.82,.36,.38,.73,.76,1.09,1.15-1.66,1.35-3.31,2.7-4.97,4.06Z"/>
      <path class="cls-129" d="M42.9,50.79c-5.16,8.27-11.16,15.95-16.39,24.19-2.79,4.4-5.77,9.13-9.53,12.96-3.64,3.71-5.72,8.22-7.89,12.74,0-3.99,0-7.99,0-11.98,2.13-3.68,4.09-8.16,6.6-10.75,4.54-4.69,7.48-10.34,11.68-15.1,1.78-2.03,2.95-4.43,4.44-6.47,1.96-2.68,1.87-7.89,7.12-7.55,1.33,.65,2.65,1.3,3.98,1.96Z"/>
      <path class="cls-92" d="M9.93,44.85c1.12-.07,2.24,.11,2.91-1.27,2.79-5.78,7.46-10.24,11.04-15.47,1.05-1.54,3.25-1.33,5.1-1.07,2.89,2.14-.88,2.15-1.21,3.31-.89,3.14-2.06,6.3-4.31,8.88,1.21,1.32,3.4-.07,4.45,1.63-1.66,0-3.33,.01-4.99,.02-1.68,.91-3.08,2.09-2.97,4.19,.12,2.3-1.25,3.65-2.78,4.97-2.1,1.81-3.27,4.21-4.37,6.66-.46,1.03-.89,2.08-1.72,4.03-.14-3.01-.23-4.94-.34-7.17-1.6,1.69,.03,3.98-1.72,5.24,0-3.63,0-7.27,0-10.9,1.04-.79,.87-1.94,.9-3.03Z"/>
      <path class="cls-97" d="M38.92,48.84c-5.25-.34-5.16,4.87-7.12,7.55-1.49,2.04-2.65,4.45-4.44,6.47-4.19,4.76-7.14,10.41-11.68,15.1-2.51,2.6-4.48,7.08-6.6,10.75,0-2.99,0-5.98,0-8.98,1.89-1.86,3.28-4.05,4.78-6.25,5.14-7.55,11.33-14.4,16.12-22.14,2.02-3.28,3.94-3.67,6.93-3.5,.66,0,1.33,0,1.99,0,0,.33,.02,.66,.03,.98Z"/>
      <path class="cls-85" d="M36.9,47.85c-2.98-.17-4.9,.22-6.93,3.5-4.78,7.74-10.98,14.6-16.12,22.14-1.5,2.2-2.89,4.39-4.78,6.25,0-2.65-.01-5.31-.02-7.96,4.31-4.38,5.73-10.67,10.14-15.11,1.77-1.78,3.21-4.34,4.19-7.06,.76-2.12,2.17-4.98,5.54-4.76,.66,0,1.33,.01,1.99,.02,1.57,1.94,3.75,2.06,5.99,2.01,0,.33,0,.66,0,.98Z"/>
      <path class="cls-55" d="M28.92,44.84c-3.37-.21-4.77,2.64-5.54,4.76-.98,2.72-2.42,5.28-4.19,7.06-4.41,4.45-5.83,10.73-10.14,15.11,0-4.33-.02-8.67-.03-13,1.75-1.26,.12-3.55,1.72-5.24,.11,2.23,.2,4.16,.34,7.17,.83-1.94,1.26-2.99,1.72-4.03,1.1-2.45,2.27-4.86,4.37-6.66,1.52-1.31,2.9-2.67,2.78-4.97-.11-2.09,1.29-3.28,2.97-4.19,.68,3.31,4.82,1.42,6,3.98Z"/>
      <path class="cls-5" d="M616.33,71.78c0,2.03-1.42,2.55-3.22,2.98,.1-2.33,1.46-2.89,3.3-2.89,0,0-.08-.09-.08-.09Z"/>
      <path class="cls-66" d="M373.32,125.81c-.55,1.21-1.74,1.38-2.81,1.75-.32-.32-.65-.65-.97-.97,1.08-1.14,2.46-.84,3.78-.78Z"/>
      <path class="cls-8" d="M390.47,129.62c-.92-.9-1.84-1.79-2.76-2.69,2.62-.76,4.86,.47,7,1.58,2.64,1.37,5.17,1.8,7.86,.32,0,.67,0,1.34,0,2.01-3.26,2.5-6.53-.62-9.79,.02-.94-.1-1.82-.3-2.3-1.24Z"/>
      <path class="cls-9" d="M386.36,124.03c1.07-.82,2.15-1.64,3.22-2.45,2.02-.88,4.05-1.76,6.08-2.64,3.04-.56,6.09-1.13,8.89,.85-.78,.45-.98,1.2-1,2.03-3.24-1.73-6.35-1.81-9.64,.13-2.25,1.33-4.87,1.96-7.54,2.07Z"/>
      <path class="cls-47" d="M395.66,118.94c-2.03,.88-4.05,1.76-6.08,2.64-.84-1.22-2.16-.77-3.29-.96,.32-.31,.64-.62,.96-.93,2.82,.82,5.01-.92,7.41-1.82,.33,.36,.67,.72,1,1.07Z"/>
      <path class="cls-130" d="M698.05,239.51c-1.05,2.04-2.37,1.26-3.7,.34,1.23-.11,2.46-.23,3.7-.34Z"/>
      <path class="cls-138" d="M386.36,124.03c2.67-.11,5.29-.74,7.54-2.07,3.29-1.95,6.4-1.87,9.64-.13,.8,1.61,4.84,1.9,2.04,4.98-1,.68-2.01,1.36-3.01,2.03-2.69,1.48-5.21,1.05-7.86-.32-2.14-1.11-4.38-2.34-7-1.58-1.21-.47-2.41-.95-3.62-1.42,.75-.49,1.51-.99,2.26-1.48Z"/>
      <path class="cls-63" d="M38.92,48.84c-.01-.33-.02-.66-.03-.98,.63-.06,1.38,.07,1.88-.23,.9-.54,.15-1.1-.29-1.45-3.58-2.84,1.58-1.71,1.36-3.04-1.22-.69-2.99,.26-3.93-1.27,3.99,0,7.99,0,11.98,0-1.39,1.11-2.78,2.23-4.21,3.38,1.32,2.06,3.57,1.24,5.38,1.94-1.3,1.4-4.06,1.04-4.16,3.64-1.33,0-2.66-.02-4-.03-1.33-.65-2.65-1.3-3.98-1.96Z"/>
      <path class="cls-113" d="M739.19,173.89c1.06,.05,2.83-3.47,3.08,.61-1,.06-2,.12-2.99,.18,0-.27-.04-.53-.09-.79Z"/>
      <path class="cls-60" d="M670.17,280.74c-1.22-1-2.09-1.72-3.01-2.47,.27-.24,.44-.54,.67-.58,2.52-.47,3.41,.48,2.34,3.05Z"/>
      <path class="cls-62" d="M706.45,309.19c-1.31-2.06-1.41-3.25-.73-4.67,1.07,1.34,.3,2.79,.73,4.67Z"/>
      <path class="cls-46" d="M376.93,133.68c.53-.89,1.05-1.78,1.58-2.66,.07,1.37,.14,2.73-.83,3.88-.25-.41-.5-.81-.75-1.22Z"/>
      <path class="cls-70" d="M374.75,113.93c-.07,1.63-.14,3.25-.2,4.88-1.43-.97-1.61-2.54-1.92-4.04,.71-.28,1.41-.56,2.12-.84Z"/>
      <path class="cls-14" d="M384.54,115.67c-.66-.33-1.33-.65-1.99-.98,.89-1.03,.86-3.05,2.97-2.77-.74,1.14-1.11,2.38-.97,3.75Z"/>
      <path class="cls-135" d="M46.9,40.85h-8.89c5.27-1.63,4.46-9.81,10.88-9.98,1.55,2.08,4.49-.11,6.03,1.97-5.03,.31-5.4,5.28-8.01,8Z"/>
      <path class="cls-71" d="M54.9,40.87c-.33-.04-.65-.07-.98-.09,.04-1.14-2.77-3.39,1.23-3,.9,.09,2.8-.4,1.45-1.71-2.2-2.14-.03-1.99,.93-2.11,1.76-.21,3.56-.08,5.35-.1,1.4,.12,2.95-.39,4.07,.94-1.79,1.25-4.33,1-6.33,3.08h5.31c-2.69,.99-5.38,1.97-8.07,2.96-.99,0-1.98,.02-2.96,.03Z"/>
      <path class="cls-61" d="M62.87,33.87c-1.79,.01-3.59-.11-5.35,.1-.96,.12-3.13-.04-.93,2.11,1.35,1.31-.56,1.8-1.45,1.71-4-.38-1.2,1.86-1.23,3-2.34,.02-4.68,.05-7.02,.07,2.61-2.73,2.98-7.69,8.01-8,2.64,.46,5.52-.95,7.97,1.01Z"/>
      <path class="cls-78" d="M65.93,37.89h-5.31c2-2.08,4.54-1.83,6.33-3.08,1.71,0,3.42,0,5.14,0-1.78,2.3-3.85,2.99-6.15,3.08Z"/>
      <path class="cls-115" d="M54.9,63.78c.78-1.78,2.3-2.05,3.99-1.94-1.04,1.24-2.4,1.84-3.99,1.94Z"/>
      <path class="cls-45" d="M37.91,41.87c.95,1.54,2.72,.58,3.93,1.27,.23,1.33-4.94,.2-1.36,3.04,.44,.35,1.19,.91,.29,1.45-.5,.29-1.24,.17-1.88,.23-.66,0-1.33,0-1.99,0,0-.33,0-.66,0-.98-1.56-1.98-3.74-2.09-5.99-2.01-.66,0-1.33-.01-1.99-.02-1.18-2.57-5.32-.67-6-3.98,1.66,0,3.33-.01,4.99-.02,1,0,1.99,.02,2.99,.03,2.11,1.87,4.68,.6,7,1Z"/>
      <path class="cls-63" d="M30.91,44.86c2.25-.08,4.43,.03,5.99,2.01-2.24,.05-4.42-.07-5.99-2.01Z"/>
    </g>
  </g>
</svg>