<?xml version="1.0" encoding="UTF-8"?>
<svg id="Layer_2" data-name="Layer 2" xmlns="http://www.w3.org/2000/svg" xmlns:xlink="http://www.w3.org/1999/xlink" viewBox="0 0 271.57 38.2">
  <defs>
    <style>
      .cls-1 {
        clip-path: url(#clippath);
      }

      .cls-2 {
        fill: #d13d9f;
      }
    </style>
    <clipPath id="clippath">
      <path class="cls-2" d="M53.2,12.9c-17.7,0-27.2,2.6-27.2,6.1,0,3.3,11.2,6.1,25,6.1s25-2.7,25-6.1c0-1.9-2.9-4.4-12.2-5.3,0,0-.7-.1-.7,.3-.1,.4,.8,.5,.8,.5,7,.6,8.5,2.4,8.3,3.3-.4,2.2-9.5,4-21.2,4s-21.2-1.8-21.2-4,10.9-4.1,23.3-4.1c0,0,.9,0,.9-.3,0-.5-.6-.5-.8-.5"/>
    </clipPath>
  </defs>
  <g id="Layer_1-2" data-name="Layer 1">
    <g>
      <path class="cls-2" d="M37.5,5.1h17.1V.8H27.8L0,37.2H5.4L32.7,1.5V37.2h22.3v-4.2h-17.5V5.1ZM123.7,.8V28.7L103.5,.8h-3.6V37.2h4.5V9.4l20.2,27.8h3.6V.8h-4.5ZM76.5,0C65.4,0,56.8,8.4,56.8,19.1s8.6,19.1,19.7,19.1,19.8-8.4,19.8-19.1S87.6,0,76.5,0m.1,33.9c-8.3,0-15-6.7-15-14.9s6.7-14.9,15-14.9,15,6.7,15,14.9-6.8,14.9-15,14.9"/>
      <g>
        <path class="cls-2" d="M53.2,12.9c-17.7,0-27.2,2.6-27.2,6.1,0,3.3,11.2,6.1,25,6.1s25-2.7,25-6.1c0-1.9-2.9-4.4-12.2-5.3,0,0-.7-.1-.7,.3-.1,.4,.8,.5,.8,.5,7,.6,8.5,2.4,8.3,3.3-.4,2.2-9.5,4-21.2,4s-21.2-1.8-21.2-4,10.9-4.1,23.3-4.1c0,0,.9,0,.9-.3,0-.5-.6-.5-.8-.5"/>
        <g class="cls-1">
          <path class="cls-2" d="M26,12.9h50v12.2H26V12.9Z"/>
        </g>
      </g>
      <path class="cls-2" d="M32.7,9h4.8v8.9h-4.8V9Z"/>
      <g id="AoigdD.tif">
        <g>
          <path class="cls-2" d="M223.71,33.2V.84h-3.51V37.05h22.49v-3.68c-6.33-.15-12.51,.11-18.98-.16Zm28.9,.02V.86h-3.88V37.01h22.83v-3.79h-18.95ZM200.59,.8h-5.28c-4.52,12.01-9.07,24.08-13.66,36.25h4.18c1.34-3.64,2.65-7.22,3.99-10.86h15.71c1.12,3.29,2.14,6.43,3.28,9.53,.21,.56,.83,1.26,1.37,1.36,1.08,.21,2.24,.07,3.63,.07-4.47-12.28-8.84-24.29-13.22-36.35Zm-9.32,21.31c2.08-5.7,4.02-11,5.96-16.31,.26,0,.53-.01,.8-.02,2.49,5.11,3.75,10.66,5.79,16.33h-12.54ZM169.13,.86c-3.45,10.14-6.87,20.18-10.28,30.22-.21,.05-.43,.11-.64,.16-.42-.67-.98-1.3-1.23-2.03-1.14-3.21-2.2-6.47-3.28-9.7-1.37-4.06-2.71-8.13-4.11-12.19-.75-2.19-1.59-4.35-2.35-6.44h-6.37V37.02h3.89V7.09c.21-.07,.42-.13,.62-.2,.38,.48,.94,.89,1.13,1.44,1.33,3.81,2.59,7.64,3.86,11.47,1.53,4.61,3.03,9.23,4.57,13.83,.4,1.2,.89,2.36,1.29,3.42h3.99c3.83-10.24,6.72-20.59,10.91-30.56,.46,.84,.62,1.61,.62,2.39,.01,8.69,0,17.39,.01,26.09,0,.66,.08,1.31,.11,2.06h3.4V.86h-6.15Z"/>
          <path class="cls-2" d="M160.22,37.05h-3.99c-.4-1.06-.89-2.22-1.29-3.41-1.54-4.61-3.04-9.23-4.57-13.84-1.27-3.83-2.53-7.66-3.86-11.46-.19-.55-.74-.97-1.13-1.44-.21,.07-.41,.13-.62,.2v29.93h-3.89V.88h6.36c.77,2.09,1.6,4.25,2.36,6.44,1.39,4.05,2.74,8.13,4.1,12.19,1.09,3.24,2.14,6.48,3.28,9.7,.26,.73,.81,1.35,1.23,2.02,.22-.05,.43-.1,.65-.15,3.42-10.04,6.83-20.08,10.28-30.22h6.15V37.02h-3.4c-.04-.74-.11-1.4-.11-2.05,0-8.7,0-17.4-.02-26.1,0-.78-.16-1.55-.62-2.38-4.19,9.97-7.08,20.32-10.91,30.56Z"/>
          <path class="cls-2" d="M200.59,.8h-5.28c-4.52,12.01-9.07,24.08-13.66,36.25h4.18c1.34-3.64,2.65-7.22,3.99-10.86h15.71c1.12,3.29,2.14,6.43,3.28,9.53,.21,.56,.83,1.26,1.37,1.36,1.08,.21,2.24,.07,3.63,.07-4.47-12.28-8.84-24.29-13.22-36.35Zm-9.32,21.31c2.08-5.7,4.02-11,5.96-16.31,.26,0,.53-.01,.8-.02,2.49,5.11,3.75,10.66,5.79,16.33h-12.54Z"/>
          <path class="cls-2" d="M248.74,37.01V.86h3.88V33.22h18.95v3.79h-22.83Z"/>
          <path class="cls-2" d="M220.2,.84h3.51V33.2c6.47,.27,12.65,.01,18.98,.16v3.68h-22.49V.84Z"/>
        </g>
      </g>
    </g>
  </g>
</svg>